<?xml version="1.0" encoding="UTF-8"?>
<!DOCTYPE svg PUBLIC "-//W3C//DTD SVG 1.1//EN" "http://www.w3.org/Graphics/SVG/1.1/DTD/svg11.dtd">
<!-- Creator: CorelDRAW 2021 (64-Bit) -->
<svg xmlns="http://www.w3.org/2000/svg" xml:space="preserve" width="15in" height="15in" version="1.1" style="shape-rendering:geometricPrecision; text-rendering:geometricPrecision; image-rendering:optimizeQuality; fill-rule:evenodd; clip-rule:evenodd"
viewBox="0 0 15 15"
 xmlns:xlink="http://www.w3.org/1999/xlink"
 xmlns:xodm="http://www.corel.com/coreldraw/odm/2003">
 <defs>
  <style type="text/css">
   <![CDATA[
    .str2 {stroke:#263238;stroke-width:0.017;stroke-miterlimit:2.61313}
    .str0 {stroke:black;stroke-width:0.01389;stroke-linecap:round;stroke-linejoin:round;stroke-miterlimit:2.61313}
    .str1 {stroke:#263238;stroke-width:0.017;stroke-linecap:round;stroke-linejoin:round;stroke-miterlimit:2.61313}
    .str3 {stroke:white;stroke-width:0.017;stroke-linecap:round;stroke-linejoin:round;stroke-miterlimit:2.61313}
    .fil17 {fill:none}
    .fil3 {fill:none;fill-rule:nonzero}
    .fil0 {fill:#2063F2}
    .fil16 {fill:white}
    .fil1 {fill:#2063F2;fill-rule:nonzero}
    .fil6 {fill:#263238;fill-rule:nonzero}
    .fil12 {fill:#757575;fill-rule:nonzero}
    .fil13 {fill:#999999;fill-rule:nonzero}
    .fil4 {fill:#BFBFBF;fill-rule:nonzero}
    .fil5 {fill:white;fill-rule:nonzero}
    .fil14 {fill:black;fill-rule:nonzero;fill-opacity:0.141176}
    .fil9 {fill:black;fill-rule:nonzero;fill-opacity:0.200000}
    .fil15 {fill:#263238;fill-rule:nonzero;fill-opacity:0.200000}
    .fil11 {fill:white;fill-rule:nonzero;fill-opacity:0.200000}
    .fil8 {fill:white;fill-rule:nonzero;fill-opacity:0.400000}
    .fil10 {fill:white;fill-rule:nonzero;fill-opacity:0.600000}
    .fil2 {fill:white;fill-rule:nonzero;fill-opacity:0.701961}
    .fil7 {fill:white;fill-rule:nonzero;fill-opacity:0.800000}
   ]]>
  </style>
      <clipPath id="id0" style="clip-rule:nonzero">
       <path d="M11.6168 13.06723c0,0 0.07165,-0.62323 0.30965,-1.16354 0.238,-0.5403 0.02454,-0.65587 -0.10379,-0.52091 -0.12832,0.13495 -0.2672,0.64188 -0.2672,0.64188 0,0 0.0633,-0.53048 0.03755,-0.81339 -0.03755,-0.41418 -0.10207,-0.73757 -0.29297,-0.68703 -0.22083,0.05913 0.09275,0.85879 0.01006,1.69672 0,0 -0.29076,-0.46203 -0.39259,-0.85707 -0.10183,-0.39504 -0.36486,-0.22378 -0.27359,0.12955 0.09128,0.35333 0.44485,0.55085 0.58152,0.93411 0,0 -0.45516,-0.42105 -0.60041,-0.25518 -0.08195,0.09349 0.12539,0.16072 0.21519,0.2039 0.43578,0.20856 0.54742,0.73046 0.54742,0.73046l0.22917 -0.0395z"/>
      </clipPath>
      <clipPath id="id1" style="clip-rule:nonzero">
       <path d="M6.7524 12.94454c0,0 -0.23874,0.11507 -0.43283,0.07361l-0.07361 -0.12833c0,0 -0.18354,-0.15213 -0.36609,-0.45246 -0.05072,-0.08394 -0.09702,-0.17176 -0.13734,-0.26106 -0.21372,-0.47307 -0.42522,-1.07961 -0.42522,-1.07961l-0.4819 -1.17138 -0.02454 -0.06159 -0.18771 -0.54839 1.13188 -0.58888c0,0 0.15262,0.78125 0.1428,0.98147 -0.00981,0.20022 0.53981,1.90994 0.59968,2.11384 0.05987,0.20391 0.25469,0.79401 0.20611,0.98417l0.04878 0.13862z"/>
      </clipPath>
    <clipPath id="id2">
     <path d="M7.49981 0.06944c0.85114,0 1.54111,0.68998 1.54111,1.54111 0,0.85113 -0.68998,1.54112 -1.54111,1.54112 -0.85113,0 -1.54111,-0.68998 -1.54111,-1.54112 0,-0.85113 0.68998,-1.54111 1.54111,-1.54111z"/>
    </clipPath>
     <clipPath id="id3">
      <path d="M8.51672 0.45267c0.04997,0.04392 0.09706,0.09102 0.14098,0.14099l0 2.03381c-0.04392,0.04996 -0.09101,0.09706 -0.14097,0.14098l-2.03383 0c-0.04996,-0.04392 -0.09706,-0.09101 -0.14098,-0.14098l0 -2.03381c0.04392,-0.04997 0.09102,-0.09707 0.14099,-0.14099l2.03381 0z"/>
     </clipPath>
     <clipPath id="id4">
      <path d="M7.49981 0.06944c0.85114,0 1.54111,0.68998 1.54111,1.54111 0,0.85113 -0.68998,1.54112 -1.54111,1.54112 -0.85113,0 -1.54111,-0.68998 -1.54111,-1.54112 0,-0.85113 0.68998,-1.54111 1.54111,-1.54111z"/>
     </clipPath>
 </defs>
 <g id="Layer_x0020_1">
  <metadata id="CorelCorpID_0Corel-Layer"/>
  <g id="_1607069271632">
   <rect class="fil0 str0" x="1.0494" y="1.33667" width="12.9012" height="13.59387" rx="1.01228" ry="1.01228"/>
   <g>
    <g id="freepik--background-simple--inject-101">
     <path class="fil1" d="M9.21392 3.7521c0,0 -1.78456,-0.63476 -3.53648,0.37566 -1.75192,1.01042 -2.63598,3.01606 -3.3949,4.62248 -0.75893,1.60641 -0.32217,3.24081 1.01509,3.98599 1.33725,0.74518 2.24658,-0.35333 4.12217,-0.40681 1.87559,-0.05349 2.38006,0.2147 3.9374,-0.84505 1.55735,-1.05974 1.8383,-3.56273 0.61023,-5.41476 -1.22806,-1.85203 -2.75351,-2.3175 -2.75351,-2.3175z"/>
     <path class="fil2" d="M9.21392 3.7521c0,0 -1.78456,-0.63476 -3.53648,0.37566 -1.75192,1.01042 -2.63598,3.01606 -3.3949,4.62248 -0.75893,1.60641 -0.32217,3.24081 1.01509,3.98599 1.33725,0.74518 2.24658,-0.35333 4.12217,-0.40681 1.87559,-0.05349 2.38006,0.2147 3.9374,-0.84505 1.55735,-1.05974 1.8383,-3.56273 0.61023,-5.41476 -1.22806,-1.85203 -2.75351,-2.3175 -2.75351,-2.3175z"/>
    </g>
    <g id="freepik--Wall--inject-101">
     <line class="fil3 str1" x1="7.24264" y1="14.1596" x2="7.24264" y2= "3.50134" />
     <rect class="fil3 str1" x="6.21284" y="4.51102" width="0.61219" height="0.24586"/>
     <rect class="fil3 str1" x="5.72259" y="4.79222" width="0.61219" height="0.24586"/>
     <rect class="fil3 str1" x="4.31737" y="6.38661" width="0.61219" height="0.24586"/>
     <rect class="fil3 str1" x="4.62335" y="6.71123" width="0.61219" height="0.24586"/>
     <rect class="fil3 str1" x="6.51905" y="8.69601" width="0.61219" height="0.24586"/>
     <rect class="fil3 str1" x="6.18364" y="9.00198" width="0.61219" height="0.24586"/>
     <rect class="fil3 str1" x="2.61796" y="9.29421" width="0.61219" height="0.24586"/>
     <rect class="fil3 str1" x="2.94136" y="9.62153" width="0.61219" height="0.24586"/>
     <rect class="fil3 str1" x="6.32571" y="10.90652" width="0.61219" height="0.24586"/>
     <rect class="fil3 str1" x="5.83301" y="8.69601" width="0.61219" height="0.24586"/>
     <path class="fil3 str1" d="M3.53539 7.9815c0.59502,0.00663 1.20844,0.00663 1.7853,0"/>
     <line class="fil3 str1" x1="3.29002" y1="7.9815" x2="3.43969" y2= "7.9815" />
     <line class="fil3 str1" x1="7.12389" y1="5.77418" x2="7.24215" y2= "5.77418" />
     <line class="fil3 str1" x1="6.70161" y1="5.77418" x2="7.04341" y2= "5.77712" />
     <line class="fil3 str1" x1="6.35294" y1="10.51958" x2="6.26854" y2= "10.51958" />
     <line class="fil3 str1" x1="7.24264" y1="10.51958" x2="6.44888" y2= "10.51958" />
    </g>
    <g id="freepik--Floor--inject-101">
     <line class="fil3 str1" x1="2.47222" y1="14.14561" x2="12.45081" y2= "14.14561" />
    </g>
    <g id="freepik--canvas-2--inject-101">
     <polygon class="fil4 str2" points="8.15565,14.15519 5.45735,14.15519 5.29811,11.60655 7.99665,11.60655 "/>
     <polygon class="fil5" points="8.2538,14.15519 5.5555,14.15519 5.39626,11.60655 8.0948,11.60655 "/>
     <g>
      <path class="fil6" d="M5.68775 12.18759c0,0 0.18354,-0.31898 0.51257,-0.29125 0.32904,0.02772 0.38646,0.33664 0.55208,0.2169 0.16562,-0.11974 0.64114,-0.18231 0.82566,-0.18501 0.18452,-0.0027 0.18427,0.0135 0.23285,0.18501 0.04858,0.17152 -0.11655,0.39455 0,0.53048 0.11655,0.13594 0.2223,0.36314 0.00908,0.58888 -0.21322,0.22574 -0.21249,0.55943 -0.4262,0.58692 -0.21372,0.02748 -0.63133,-0.26598 -0.85437,-0.13372 -0.22304,0.13225 -0.65046,0.32364 -0.6117,0.13569 0.03877,-0.18794 0.10723,-0.56925 -0.07729,-0.69905 -0.18452,-0.1298 -0.28487,-0.78787 -0.16268,-0.93485z"/>
      <path class="fil7" d="M5.68775 12.18759c0,0 0.18354,-0.31898 0.51257,-0.29125 0.32904,0.02772 0.38646,0.33664 0.55208,0.2169 0.16562,-0.11974 0.64114,-0.18231 0.82566,-0.18501 0.18452,-0.0027 0.18427,0.0135 0.23285,0.18501 0.04858,0.17152 -0.11655,0.39455 0,0.53048 0.11655,0.13594 0.2223,0.36314 0.00908,0.58888 -0.21322,0.22574 -0.21249,0.55943 -0.4262,0.58692 -0.21372,0.02748 -0.63133,-0.26598 -0.85437,-0.13372 -0.22304,0.13225 -0.65046,0.32364 -0.6117,0.13569 0.03877,-0.18794 0.10723,-0.56925 -0.07729,-0.69905 -0.18452,-0.1298 -0.28487,-0.78787 -0.16268,-0.93485z"/>
      <path class="fil8" d="M6.98918 12.46902c-0.2331,-0.16293 -0.19065,0.12587 -0.3575,0.20537 -0.16685,0.0795 -0.27873,0.09373 -0.38449,0.14722 -0.10576,0.05349 0.03533,0.30548 0.1168,0.49368 0.08146,0.1882 -0.05963,0.3575 0.13397,0.44166 0.19359,0.08417 0.4662,0.01374 0.61833,-0.07091 0.15213,-0.08465 0.397,-0.1617 0.35824,-0.45319 -0.03877,-0.29149 -0.34352,-0.52459 -0.33002,-0.6409 0.0135,-0.1163 -0.08858,-0.07606 -0.15532,-0.12293z"/>
      <path class="fil8" d="M7.8033 12.31223c-0.2277,-0.15091 -0.13495,0.06527 -0.26745,0.10771 -0.1325,0.04245 -0.42375,-0.0027 -0.24267,0.18501 0.18108,0.1877 0.25175,0.31726 0.22623,0.37541 -0.02552,0.05815 0.08441,0.12931 0.09815,0.22647 0.01374,0.09716 -0.10993,0.23334 0.06478,0.2331 0.1747,-0.00024 0.22647,-0.0395 0.18746,-0.33689 -0.03901,-0.29738 0.0584,-0.30401 0.04539,-0.4397 -0.01301,-0.13569 0.00147,-0.27604 -0.11189,-0.35111z"/>
      <path class="fil8" d="M6.39367 12.52742c0.12514,0.02258 0.21789,-0.09815 0.30303,-0.1877 0.08514,-0.08956 0.20169,-0.06478 0.33124,0 0.12956,0.06478 0.27187,0 0.29444,-0.08024 0.02258,-0.08024 0.05594,-0.23163 -0.08686,-0.33125 -0.14281,-0.09962 -0.28536,-0.18476 -0.42768,-0.15188 -0.14232,0.03288 -0.10355,0.41443 -0.36241,0.2915 -0.25886,-0.12293 -0.33639,0.4078 -0.05177,0.45957z"/>
      <path class="fil8" d="M5.57193 12.68912c-0.00663,-0.20046 0.03239,-0.4662 0.24537,-0.48534 0.21298,-0.01914 0.20071,0.31898 0.3494,0.35014 0.14869,0.03116 0.14231,0.19335 -0.02454,0.21298 -0.16685,0.01963 -0.11017,0.25935 0,0.35603 0.11017,0.09668 -0.04907,0.48779 -0.21887,0.40878 -0.1698,-0.07901 -0.33197,-0.24733 -0.35136,-0.84259z"/>
      <path class="fil8" d="M5.9925 12.55392c-0.11336,-0.21249 0.05079,-0.40069 0.28094,-0.29444 0.23016,0.10624 0.36413,0.02257 0.42326,-0.03263 0.05913,-0.05521 0.37541,0.30057 0.0557,0.53981 -0.31971,0.23923 0.04368,0.49073 -0.25445,0.61465 -0.29812,0.12391 -0.4392,0.13593 -0.52091,-0.22647 -0.0817,-0.36241 0.16538,-0.32192 0.01546,-0.60091z"/>
      <path class="fil8" d="M7.06303 13.20684c-0.12415,-0.30573 0.19777,-0.55649 0.45025,-0.39455 0.25248,0.16194 -0.05938,0.25641 0.13593,0.42081 0.19532,0.1644 0.33002,0.25272 0.07116,0.5241 -0.25886,0.27138 -0.72383,0.31677 -0.87645,0.0903 -0.15262,-0.22647 0.31873,-0.39479 0.21911,-0.64065z"/>
      <path class="fil8" d="M5.75523 13.64678c-0.0265,-0.24537 0.01718,-0.52361 0.3862,-0.52386 0.36903,-0.00024 0.66543,0.106 0.61096,0.40878 -0.05447,0.30278 0.15385,0.38694 -0.25445,0.46129 -0.4083,0.07434 -0.68874,0.15213 -0.74272,-0.34621z"/>
      <path class="fil8" d="M5.78541 11.9643c0,0 0.20832,-0.12784 0.3494,0 0.14108,0.12783 0.26991,0.38302 0.49687,0.29444 0.22697,-0.08857 0.31898,-0.1931 0.64851,-0.21813 0.32953,-0.02502 0.2331,-0.1612 0.38179,-0.04466 0.14869,0.11655 -0.07189,0.33517 0.0584,0.5008 0.1303,0.16563 0.2807,0.01202 0.1963,-0.35087 -0.08441,-0.3629 -0.18231,-0.36486 -0.40903,-0.37664 -0.22672,-0.01178 -0.71819,0.38278 -0.85413,0.20807 -0.13593,-0.1747 -0.44166,-0.26745 -0.69684,-0.20807 -0.25518,0.05938 -0.32953,0.21297 -0.17127,0.19506z"/>
      <polygon class="fil9" points="6.49697,14.15519 5.45735,14.15519 5.29811,11.60655 5.64776,11.60655 "/>
     </g>
     <polygon class="fil3 str1" points="8.2538,14.15519 5.5555,14.15519 5.39626,11.60655 8.0948,11.60655 "/>
     <polygon class="fil4 str2" points="3.09667,14.15248 5.79522,14.15248 5.34669,10.14171 2.64815,10.14171 "/>
     <g>
      <polygon class="fil5" points="2.85106,11.07877 3.19482,14.15248 5.89337,14.15248 5.44483,10.14171 2.74629,10.14171 2.78064,10.44965 "/>
      <path id="_1" class="fil3 str1" d="M2.85106 11.07877l0.34376 3.07372 2.69854 0 -0.44853 -4.01077 -2.69854 0 0.03435 0.30794m0.07042 0.62912z"/>
     </g>
     <line class="fil3 str1" x1="2.81524" y1="10.75733" x2="2.83167" y2= "10.90652" />
     <path class="fil1" d="M3.2542 11.12097c0.08072,-0.24218 0.30082,-0.24291 0.50472,-0.47086 0.2039,-0.22794 0.13593,-0.33469 0.51527,-0.17937 0.37933,0.15532 0.34106,0.24978 0.51993,0.43553 0.17887,0.18575 0.41443,0.17176 0.32094,0.40681 -0.09349,0.23506 0.12882,0.49712 0.22647,0.66249 0.09765,0.16537 0.07705,0.44632 0,0.62127 -0.07705,0.17495 0.26156,0.48533 0,0.76678 -0.26156,0.28144 -0.70886,0.28438 -0.9952,0.31701 -0.28634,0.03263 -0.52926,-0.04515 -0.66519,-0.27825 -0.13593,-0.2331 -0.42694,0.1747 -0.29125,-0.3494 0.13569,-0.5241 0.18452,-1.00355 0.01963,-1.20548 -0.16489,-0.20194 -0.21371,-0.55184 -0.15531,-0.72654z"/>
     <path class="fil10" d="M3.2542 11.12097c0.08072,-0.24218 0.30082,-0.24291 0.50472,-0.47086 0.2039,-0.22794 0.13593,-0.33469 0.51527,-0.17937 0.37933,0.15532 0.34106,0.24978 0.51993,0.43553 0.17887,0.18575 0.41443,0.17176 0.32094,0.40681 -0.09349,0.23506 0.12882,0.49712 0.22647,0.66249 0.09765,0.16537 0.07705,0.44632 0,0.62127 -0.07705,0.17495 0.26156,0.48533 0,0.76678 -0.26156,0.28144 -0.70886,0.28438 -0.9952,0.31701 -0.28634,0.03263 -0.52926,-0.04515 -0.66519,-0.27825 -0.13593,-0.2331 -0.42694,0.1747 -0.29125,-0.3494 0.13569,-0.5241 0.18452,-1.00355 0.01963,-1.20548 -0.16489,-0.20194 -0.21371,-0.55184 -0.15531,-0.72654z"/>
     <polygon class="fil10" points="4.73499,10.36058 3.28634,12.1471 3.34474,12.23739 5.02084,10.49013 "/>
     <polygon class="fil10" points="5.0655,10.83193 4.22168,11.89437 4.44472,12.26316 4.88491,11.77782 4.98183,11.91376 4.28302,12.7161 4.50311,13.02674 5.24069,12.0043 5.02084,11.65489 5.24069,11.053 "/>
     <path class="fil11" d="M4.71413 11.54055c-0.04964,-0.07167 -0.11747,-0.12911 -0.1963,-0.16637 -0.0714,-0.03386 -0.15311,-0.05202 -0.21175,-0.10526 -0.08146,-0.07361 -0.09643,-0.19826 -0.08048,-0.30745 0.00933,-0.06478 0.02748,-0.13054 0.01472,-0.19482 -0.01276,-0.06429 -0.0714,-0.12612 -0.13569,-0.11361 -0.02314,0.00587 -0.04449,0.01743 -0.06206,0.03362 -0.05,0.04648 -0.09253,0.10065 -0.12583,0.1602 -0.11753,0.18574 -0.28119,0.33787 -0.40731,0.52091 -0.06434,0.08976 -0.12104,0.18625 -0.16794,0.2863 -0.06235,0.14223 -0.09481,0.29617 -0.09481,0.45161 0,0.10559 0.01506,0.21091 0.04437,0.31226 0.07152,-0.05665 0.16019,-0.08752 0.25149,-0.08752 0.00781,0 0.01578,0.00025 0.02354,0.00069 0.00076,-0.00004 0.00156,-0.00006 0.00234,-0.00006 0.01581,0 0.03108,0.00588 0.0428,0.01648 0.00718,0.00966 0.01113,0.02135 0.01128,0.03338 0.00515,0.05938 -0.01988,0.1168 -0.03386,0.1747 -0.00872,0.03647 -0.01317,0.07399 -0.01317,0.11152 0,0.02642 0.00222,0.05289 0.00654,0.0789 0.00451,0.03765 0.01912,0.07346 0.0422,0.10355 0.03338,0.0343 0.07927,0.05369 0.12715,0.05369 0.01025,0 0.02056,-0.00091 0.03063,-0.00267 0.05681,-0.01072 0.11124,-0.03262 0.15974,-0.06406 0.04386,-0.02089 0.08092,-0.05398 0.10672,-0.09516 0.01509,-0.03874 0.02343,-0.07992 0.02454,-0.12145 0.01963,-0.15286 0.10085,-0.29248 0.20317,-0.4078 0.10232,-0.11532 0.22623,-0.2093 0.34793,-0.30401 0.05938,-0.04637 0.12269,-0.09815 0.13961,-0.17176 0.01791,-0.06773 -0.01007,-0.1384 -0.04957,-0.19581z"/>
     <polygon class="fil11" points="3.38351,12.65796 4.0087,12.11446 4.18586,13.10428 3.78468,13.53294 3.65856,13.3705 3.88185,12.98797 3.78272,12.90161 3.56459,13.10428 "/>
     <path class="fil11" d="M5.09123 12.96078c-0.19682,-0.19682 -0.51592,-0.19682 -0.71274,0 -0.19682,0.19681 -0.19682,0.51592 0,0.71273 0.19682,0.19682 0.51592,0.19682 0.71274,0 0.19682,-0.19681 0.19682,-0.51592 0,-0.71273z"/>
     <polygon class="fil11" points="4.82013,13.10428 4.18586,13.89387 4.28302,13.99422 4.92368,13.20169 "/>
     <polygon class="fil11" points="5.49048,12.76788 4.88491,13.77118 5.57439,13.90049 "/>
     <polygon class="fil11" points="3.2304,10.39738 4.1017,10.31543 3.45466,11.15017 "/>
    </g>
    <g id="freepik--canvas-1--inject-101">
     <polygon class="fil12 str1" points="10.14043,8.09609 11.16631,14.15248 11.36628,14.15248 10.34065,8.09609 "/>
     <polygon class="fil13 str1" points="11.26618,14.15248 11.16631,14.15248 10.14043,8.09609 10.24054,8.09609 "/>
     <polygon class="fil12 str1" points="10.63018,5.78448 10.43021,5.78448 9.83274,14.14561 10.03271,14.14561 "/>
     <polygon class="fil12 str1" points="9.89408,5.78448 9.69411,5.78448 8.27687,14.15248 8.47684,14.15248 "/>
     <polygon class="fil13 str1" points="9.79397,5.78448 9.69411,5.78448 8.27687,14.15248 8.37697,14.15248 "/>
     <polygon class="fil13 str1" points="10.53007,5.78448 10.43021,5.78448 9.83274,14.14561 9.9326,14.14561 "/>
     <polygon class="fil4 str2" points="11.04265,10.20649 8.34434,10.20649 8.79287,6.19572 11.49118,6.19572 "/>
     <g>
      <polygon class="fil5" points="11.28826,7.13253 10.9445,10.20649 8.24619,10.20649 8.69472,6.19572 11.39303,6.19572 11.35868,6.50365 "/>
      <path id="_1_0" class="fil3 str1" d="M11.28826 7.13253l-0.34376 3.07396 -2.69831 0 0.44853 -4.01077 2.69831 0 -0.03435 0.30794m-0.07043 0.62887z"/>
     </g>
     <line class="fil3 str1" x1="11.32432" y1="6.81135" x2="11.30764" y2= "6.96052" />
     <path class="fil1" d="M8.7281 7.39924c0.06895,-0.20905 0.24757,-0.37909 0.2753,-0.59821 0.02772,-0.21911 0.06478,-0.34081 0.27334,-0.37173 0.20856,-0.03092 0.36167,0.33763 0.65317,0.17397 0.2915,-0.16366 0.67819,-0.39823 0.82541,-0.04613 0.14722,0.3521 0.14403,0.4662 0.27825,0.51674 0.13421,0.05054 0.10477,0.61489 -0.08171,0.68384 -0.18648,0.06895 -0.22279,0.3786 -0.10232,0.59698 0.12047,0.21837 0.09692,0.6193 -0.06355,0.80161 -0.16047,0.18231 0.02797,0.34965 -0.11606,0.60974 -0.14403,0.26008 -0.68703,0.32143 -1.06219,0.225 -0.37517,-0.09643 -0.42031,-0.45 -0.64654,-0.49736 -0.22623,-0.04736 -0.384,-0.34499 -0.36682,-0.62225 0.01718,-0.27726 0.22941,-0.41712 0.21224,-0.72898 -0.01717,-0.31187 -0.14747,-0.53367 -0.07852,-0.74322z"/>
     <path class="fil11" d="M8.7281 7.39924c0.06895,-0.20905 0.24757,-0.37909 0.2753,-0.59821 0.02772,-0.21911 0.06478,-0.34081 0.27334,-0.37173 0.20856,-0.03092 0.36167,0.33763 0.65317,0.17397 0.2915,-0.16366 0.67819,-0.39823 0.82541,-0.04613 0.14722,0.3521 0.14403,0.4662 0.27825,0.51674 0.13421,0.05054 0.10477,0.61489 -0.08171,0.68384 -0.18648,0.06895 -0.22279,0.3786 -0.10232,0.59698 0.12047,0.21837 0.09692,0.6193 -0.06355,0.80161 -0.16047,0.18231 0.02797,0.34965 -0.11606,0.60974 -0.14403,0.26008 -0.68703,0.32143 -1.06219,0.225 -0.37517,-0.09643 -0.42031,-0.45 -0.64654,-0.49736 -0.22623,-0.04736 -0.384,-0.34499 -0.36682,-0.62225 0.01718,-0.27726 0.22941,-0.41712 0.21224,-0.72898 -0.01717,-0.31187 -0.14747,-0.53367 -0.07852,-0.74322z"/>
     <path class="fil1" d="M10.98548 6.85796c0.00466,-0.11581 -0.1114,-0.1963 -0.21298,-0.25101l-0.04146 -0.02257c-0.02275,-0.01366 -0.04717,-0.02474 -0.07241,-0.03288 -0.13765,-0.03975 -0.26181,0.08637 -0.39578,0.13716 -0.04307,0.01515 -0.08848,0.02298 -0.13418,0.02298 -0.12987,0 -0.25185,-0.06255 -0.32759,-0.16798 -0.05054,-0.07361 -0.10477,-0.18108 -0.19261,-0.16194 -0.07975,0.01742 -0.10723,0.13324 -0.18697,0.14943 -0.07361,0.01472 -0.14378,-0.0638 -0.2142,-0.04073 -0.02454,0.00785 -0.04294,0.0265 -0.06674,0.03484 -0.05079,0.01816 -0.11336,-0.01374 -0.15875,0.01546 -0.04539,0.0292 -0.04073,0.09054 -0.03362,0.14133 0.01448,0.1006 0.03018,0.17176 -0.00221,0.2672 -0.03803,0.11164 -0.09005,0.21666 -0.04907,0.33689 0.0162,0.04907 0.04613,0.09815 0.03117,0.1455 -0.00919,0.02076 -0.01976,0.04131 -0.03118,0.06087 -0.02969,0.06772 0.01006,0.14354 0.02454,0.21617 0.01595,0.08343 -0.00294,0.1693 -0.02208,0.25224 -0.00762,0.04872 -0.02521,0.09554 -0.05151,0.13734 -0.02664,0.03033 -0.05528,0.05936 -0.0852,0.08633 -0.04503,0.05085 -0.06998,0.1165 -0.06998,0.18446 0,0.03631 0.00712,0.0723 0.02096,0.10587 0.04907,0.1141 0.17667,0.19359 0.18771,0.3175 0.00663,0.07557 -0.03411,0.14845 -0.08809,0.20145 -0.05398,0.053 -0.12121,0.0903 -0.18427,0.1325 -0.02963,0.01626 -0.05375,0.04109 -0.06919,0.07116 -0.03705,0.09226 0.08784,0.17887 0.0817,0.27849 -0.00344,0.05496 -0.0476,0.10379 -0.04098,0.1585 0.00687,0.05913 0.06797,0.09471 0.12269,0.11606 0.16587,0.06453 0.35554,0.08809 0.52091,0.02233 0.12538,-0.04907 0.24537,-0.15041 0.37762,-0.12269 0.11213,0.02307 0.19752,0.13569 0.31211,0.13372 0.12563,-0.00221 0.20832,-0.14035 0.33026,-0.17053 -0.03828,-0.03485 -0.02454,-0.10355 0.01546,-0.13569 0.03999,-0.03215 0.09815,-0.03509 0.14844,-0.02699 0.05546,0.00883 0.11876,0.02699 0.16268,-0.0081 0.05963,-0.04711 0.02846,-0.14035 0.00638,-0.21322 -0.0152,-0.05202 -0.02294,-0.10606 -0.02294,-0.16032 0,-0.12657 0.04212,-0.24979 0.1196,-0.34979 0.03386,-0.04294 0.07655,-0.09128 0.06281,-0.14403 -0.00736,-0.02748 -0.0292,-0.04907 -0.03729,-0.07631 -0.02626,-0.08662 0.09054,-0.15066 0.10796,-0.23924 0.01055,-0.053 -0.0162,-0.1055 -0.0422,-0.15286l-0.13173 -0.24144c-0.04515,-0.0822 -0.09128,-0.17985 -0.05349,-0.26573 0.05963,-0.13471 0.28487,-0.14428 0.31898,-0.28733 0.01718,-0.07017 -0.02258,-0.14256 -0.01571,-0.21445 0.00884,-0.08539 0.07901,-0.15532 0.08245,-0.23997z"/>
     <polygon class="fil11" points="9.60455,8.10639 9.7341,8.97278 10.5892,8.63614 10.41181,7.82324 "/>
     <polygon class="fil10" points="9.92451,8.25704 10.799,8.8025 9.84648,9.41714 "/>
     <polygon class="fil8" points="9.47307,9.78015 9.61528,9.78556 9.66537,8.46963 9.52316,8.46422 "/>
     <path class="fil11" d="M10.58799 6.59272c-0.19179,-0.01863 -0.36238,0.12174 -0.38102,0.31353 -0.01864,0.1918 0.12174,0.36239 0.31353,0.38102 0.1918,0.01864 0.36239,-0.12174 0.38102,-0.31353 0.01864,-0.1918 -0.12174,-0.36239 -0.31353,-0.38102z"/>
     <polygon class="fil11" points="8.79312,9.60387 8.81226,9.10307 9.06278,8.98603 9.1413,8.44966 8.93298,8.31397 9.03088,7.35287 9.45806,7.23215 9.36017,8.18294 9.75643,8.38587 9.75962,9.11706 9.34127,9.25569 9.31477,9.94983 "/>
     <polygon class="fil10" points="8.96242,6.87906 9.85482,6.96028 9.75054,6.79564 "/>
     <polygon class="fil8" points="9.84133,7.31901 10.19196,7.27509 10.38702,7.42378 "/>
     <polygon class="fil10" points="8.86575,7.67577 9.73287,7.56536 9.84133,7.92139 9.52578,8.0183 9.60455,8.30809 9.18939,8.39789 "/>
    </g>
    <g id="freepik--Plant--inject-101">
     <path class="fil1" d="M11.6168 13.06723c0,0 0.07165,-0.62323 0.30965,-1.16354 0.238,-0.5403 0.02454,-0.65587 -0.10379,-0.52091 -0.12832,0.13495 -0.2672,0.64188 -0.2672,0.64188 0,0 0.0633,-0.53048 0.03755,-0.81339 -0.03755,-0.41418 -0.10207,-0.73757 -0.29297,-0.68703 -0.22083,0.05913 0.09275,0.85879 0.01006,1.69672 0,0 -0.29076,-0.46203 -0.39259,-0.85707 -0.10183,-0.39504 -0.36486,-0.22378 -0.27359,0.12955 0.09128,0.35333 0.44485,0.55085 0.58152,0.93411 0,0 -0.45516,-0.42105 -0.60041,-0.25518 -0.08195,0.09349 0.12539,0.16072 0.21519,0.2039 0.43578,0.20856 0.54742,0.73046 0.54742,0.73046l0.22917 -0.0395z"/>
     <g>
     </g>
     <g style="clip-path:url(#id0)">
      <g id="_1607160191968">
       <path class="fil14" d="M11.6168 13.06723c0,0 0.07166,-0.62323 0.30966,-1.16354 0.238,-0.5403 0.02453,-0.65587 -0.10379,-0.52091 -0.12833,0.13495 -0.26721,0.64188 -0.26721,0.64188 0,0 0.0633,-0.53048 0.03756,-0.81339 -0.03756,-0.41419 -0.10209,-0.73758 -0.29297,-0.68704 -0.22083,0.05913 0.09275,0.8588 0.01006,1.69672 0,0 -0.29076,-0.46202 -0.39259,-0.85707 -0.10183,-0.39505 -0.36487,-0.22378 -0.27358,0.12955 0.09127,0.35333 0.44484,0.55085 0.58152,0.93411 0,0 -0.45515,-0.42106 -0.60041,-0.25518 -0.08195,0.09349 0.12539,0.16072 0.2152,0.20391 0.43577,0.20856 0.54741,0.73045 0.54741,0.73045l0.22916 -0.0395z"/>
      </g>
     </g>
     <path class="fil3" d="M11.6168 13.06723c0,0 0.07165,-0.62323 0.30965,-1.16354 0.238,-0.5403 0.02454,-0.65587 -0.10379,-0.52091 -0.12832,0.13495 -0.2672,0.64188 -0.2672,0.64188 0,0 0.0633,-0.53048 0.03755,-0.81339 -0.03755,-0.41418 -0.10207,-0.73757 -0.29297,-0.68703 -0.22083,0.05913 0.09275,0.85879 0.01006,1.69672 0,0 -0.29076,-0.46203 -0.39259,-0.85707 -0.10183,-0.39504 -0.36486,-0.22378 -0.27359,0.12955 0.09128,0.35333 0.44485,0.55085 0.58152,0.93411 0,0 -0.45516,-0.42105 -0.60041,-0.25518 -0.08195,0.09349 0.12539,0.16072 0.21519,0.2039 0.43578,0.20856 0.54742,0.73046 0.54742,0.73046l0.22917 -0.0395z"/>
     <path class="fil3 str1" d="M11.6168 13.06723c0,0 0.07165,-0.62323 0.30965,-1.16354 0.238,-0.5403 0.02454,-0.65587 -0.10379,-0.52091 -0.12832,0.13495 -0.2672,0.64188 -0.2672,0.64188 0,0 0.0633,-0.53048 0.03755,-0.81339 -0.03755,-0.41418 -0.10207,-0.73757 -0.29297,-0.68703 -0.22083,0.05913 0.09275,0.85879 0.01006,1.69672 0,0 -0.29076,-0.46203 -0.39259,-0.85707 -0.10183,-0.39504 -0.36486,-0.22378 -0.27359,0.12955 0.09128,0.35333 0.44485,0.55085 0.58152,0.93411 0,0 -0.45516,-0.42105 -0.60041,-0.25518 -0.08195,0.09349 0.12539,0.16072 0.21519,0.2039 0.43578,0.20856 0.54742,0.73046 0.54742,0.73046l0.22917 -0.0395z"/>
     <path class="fil1 str1" d="M11.35206 12.93301c0,0 0.03607,-0.65218 -0.20194,-1.19248 -0.238,-0.5403 -0.02454,-0.5825 0.10183,-0.44755 0.12637,0.13495 0.22452,0.83425 0.22452,0.83425 0,0 0.11189,-0.62667 0.06109,-1.05999 -0.05079,-0.43332 -0.04735,-0.67746 0.13127,-0.67746 0.22794,0 0.17446,1.06072 -0.01006,1.69647 0,0 0.29076,-0.46178 0.39259,-0.85683 0.10183,-0.39504 0.36583,-0.22328 0.27431,0.13029 -0.09152,0.35357 -0.4446,0.55061 -0.58152,0.93411 0,0 0.45516,-0.42105 0.60041,-0.25518 0.08195,0.09348 -0.12538,0.16072 -0.21519,0.20365 -0.43578,0.20881 -0.54742,0.7307 -0.54742,0.7307l-0.2299 -0.03999z"/>
     <path class="fil3 str1" d="M11.68306 11.4478c0.00754,-0.08107 0.01141,-0.1637 0.01141,-0.24537 0,-0.08167 -0.00387,-0.16431 -0.0113,-0.24533"/>
     <path class="fil3 str1" d="M11.32899 11.86493c0.10355,0.31187 0.14722,0.64188 0.15507,0.96944 0.08969,-0.43427 0.15642,-0.87961 0.19456,-1.32087"/>
     <path class="fil3 str1" d="M11.27059 11.71329c0.01178,0.0265 0.02257,0.05349 0.03288,0.08048"/>
     <path class="fil3 str1" d="M12.01209 11.70568c-0.119,0.21494 -0.25028,0.44706 -0.43602,0.61195"/>
     <path class="fil3 str1" d="M12.1441 11.45124c-0.03165,0.0665 -0.06576,0.13201 -0.1006,0.1963"/>
     <path class="fil3 str1" d="M11.74415 12.417c-0.08097,0.06698 -0.16758,0.13937 -0.22451,0.22942"/>
     <path class="fil3 str1" d="M12.1441 12.126c-0.12072,0.07827 -0.2385,0.16219 -0.35137,0.25175"/>
     <polygon class="fil6" points="12.17673,12.67734 10.78035,12.67734 10.88831,14.15519 12.06877,14.15519 "/>
    </g>
    <g id="freepik--Character--inject-101">
     <polygon class="fil5 str1" points="6.15125,12.59195 6.76835,13.89313 7.06303,13.89313 6.57255,12.42044 "/>
     <path class="fil1" d="M6.7524 12.94454c0,0 -0.23874,0.11507 -0.43283,0.07361l-0.07361 -0.12833c0,0 -0.18354,-0.15213 -0.36609,-0.45246 -0.05072,-0.08394 -0.09702,-0.17176 -0.13734,-0.26106 -0.21372,-0.47307 -0.42522,-1.07961 -0.42522,-1.07961l-0.4819 -1.17138 -0.02454 -0.06159 -0.18771 -0.54839 1.13188 -0.58888c0,0 0.15262,0.78125 0.1428,0.98147 -0.00981,0.20022 0.53981,1.90994 0.59968,2.11384 0.05987,0.20391 0.25469,0.79401 0.20611,0.98417l0.04878 0.13862z"/>
     <g>
     </g>
     <g style="clip-path:url(#id1)">
      <g>
       <path class="fil14" d="M5.89337 12.42044c-0.00417,0.00589 -0.00809,0.0113 -0.01251,0.01669 -0.05072,-0.08394 -0.09702,-0.17176 -0.13735,-0.26106 -0.21372,-0.47307 -0.42522,-1.07961 -0.42522,-1.07961l-0.48191 -1.17139 0.43136 -0.38498 0.12661 0.02013c0,0 0.08465,0.1325 -0.03631,0.20857 -0.12097,0.07606 0.08441,0.37492 0.18648,0.59182 0.10207,0.21691 -0.07361,0.42744 -0.07361,0.42744 0,0 0.16169,0.3418 0.36142,0.5111 0,0 -0.15802,-0.04196 -0.07778,0.12268 0.08024,0.16464 0.30568,0.75891 0.13882,0.99863z"/>
      </g>
     </g>
     <path class="fil3" d="M6.7524 12.94454c0,0 -0.23874,0.11507 -0.43283,0.07361l-0.07361 -0.12833c0,0 -0.18354,-0.15213 -0.36609,-0.45246 -0.05072,-0.08394 -0.09702,-0.17176 -0.13734,-0.26106 -0.21372,-0.47307 -0.42522,-1.07961 -0.42522,-1.07961l-0.4819 -1.17138 -0.02454 -0.06159 -0.18771 -0.54839 1.13188 -0.58888c0,0 0.15262,0.78125 0.1428,0.98147 -0.00981,0.20022 0.53981,1.90994 0.59968,2.11384 0.05987,0.20391 0.25469,0.79401 0.20611,0.98417l0.04878 0.13862z"/>
     <path class="fil3 str1" d="M6.7524 12.94454c0,0 -0.23874,0.11507 -0.43283,0.07361l-0.07361 -0.12833c0,0 -0.18354,-0.15213 -0.36609,-0.45246 -0.05072,-0.08394 -0.09702,-0.17176 -0.13734,-0.26106 -0.21372,-0.47307 -0.42522,-1.07961 -0.42522,-1.07961l-0.4819 -1.17138 -0.02454 -0.06159 -0.18771 -0.54839 1.13188 -0.58888c0,0 0.15262,0.78125 0.1428,0.98147 -0.00981,0.20022 0.53981,1.90994 0.59968,2.11384 0.05987,0.20391 0.25469,0.79401 0.20611,0.98417l0.04878 0.13862z"/>
     <path class="fil3 str1" d="M6.36325 12.87486c0,0 0.18893,0.00933 0.26769,-0.05324"/>
     <path class="fil6" d="M6.71977 14.15248c-0.06134,-0.02748 -0.00491,-0.25935 -0.00491,-0.25935 0,0 -0.08269,-0.05546 0,-0.11311 0.04158,0.03527 0.09437,0.05466 0.14891,0.05466 0.02942,0 0.05861,-0.00568 0.0859,-0.01663 0.02728,-0.01096 0.01619,-0.15532 0.11336,-0.1352 0,0 0.02454,0.09815 0.0817,0.15458 0.15433,0.15213 0.35382,0.16955 0.38719,0.24291 0.00207,0.01031 0.00312,0.02081 0.00312,0.03133 0,0.01376 -0.00181,0.02751 -0.00533,0.0408l-0.80995 0.00001z"/>
     <g>
      <path class="fil5" d="M6.59487 6.71221l0.7042 1.05778 0.95693 -0.75573 0.22083 0.11091c0,0 -0.89952,1.09287 -1.19715,1.12869 -0.29763,0.03582 -1.01116,-0.99374 -1.01116,-0.99374l0.32633 -0.54791zm0 0l0 0 0 0z"/>
      <path id="_1_1" class="fil3 str1" d="M6.59487 6.71221l0.7042 1.05778 0.95693 -0.75573 0.22083 0.11091c0,0 -0.89952,1.09287 -1.19715,1.12869 -0.29763,0.03582 -1.01116,-0.99374 -1.01116,-0.99374m0.32633 -0.54791l0 0 0 0z"/>
     </g>
     <path class="fil6" d="M6.48961 6.54954c0.14431,0.06207 0.26502,0.16942 0.34351,0.30546 0.12956,0.2265 0.26622,0.42156 0.26622,0.42156 0,0 -0.31333,0.34352 -0.56434,0.43994l-0.29935 -0.10354 0.25396 -1.06342z"/>
     <polygon class="fil5 str1" points="4.80075,12.65648 5.14034,13.89313 5.43257,13.89313 5.30596,12.47761 "/>
     <g>
      <path class="fil1" d="M5.75523 9.107l-1.29039 -0.63084c0,0 -0.2331,0.6885 -0.22083,1.26806 0.01227,0.57956 0.20513,1.37406 0.22083,1.74039 0.0157,0.36633 -0.00761,1.05655 0.39259,1.5333l0.04907 0.15311c0,0 0.36952,0.05177 0.48582,0l-0.01938 -0.14428c0,0 0.15924,-0.32168 0.03926,-0.83941 -0.11998,-0.51772 -0.17764,-2.41367 -0.17764,-2.41367 0,0 0.14403,-0.12268 0.20218,-0.24757l0.31849 -0.41909zm0 0l0 0 0 0z"/>
      <path id="_1_2" class="fil3 str1" d="M5.75523 9.107l-1.29039 -0.63084c0,0 -0.2331,0.6885 -0.22083,1.26806 0.01227,0.57956 0.20513,1.37406 0.22083,1.74039 0.0157,0.36633 -0.00761,1.05655 0.39259,1.5333l0.04907 0.15311c0,0 0.36952,0.05177 0.48582,0l-0.01938 -0.14428c0,0 0.15924,-0.32168 0.03926,-0.83941 -0.11998,-0.51772 -0.17764,-2.41367 -0.17764,-2.41367 0,0 0.14403,-0.12268 0.20218,-0.24757m0.31849 -0.41909l0 0 0 0z"/>
     </g>
     <path class="fil6" d="M4.52937 8.31201c0.07778,-0.43798 0.17911,-1.47392 0.52852,-1.71046 0.34941,-0.23654 0.94908,-0.25665 1.19101,-0.16096 0.4743,0.18795 0.48165,0.27628 0.40412,0.63427 -0.07754,0.35799 -0.58741,1.45748 -0.58741,1.45748l-0.11802 0.58226c0,0 -0.44362,0.33812 -0.95227,0.1963 -0.59648,-0.16611 -0.69316,-0.543 -0.69316,-0.543l0.22721 -0.45589z"/>
     <path class="fil5 str1" d="M6.30264 6.1994c-0.00923,0.01615 -0.02077,0.03096 -0.0341,0.04391 -0.01028,0.01 -0.0202,0.02066 -0.02945,0.03168 -0.03337,0.03599 -0.0564,0.08049 -0.06651,0.12856 -0.00153,0.00925 -0.00233,0.01866 -0.00233,0.02806 0,0.01539 0.00214,0.03074 0.00629,0.04556 0.01034,0.03465 0.03067,0.06557 0.05838,0.08881 0.02771,0.02324 0.00564,0.15605 -0.18795,0.17494 -0.23285,0.02258 -0.36363,-0.22083 -0.36363,-0.22083 0.29002,-0.39823 0.07189,-0.56656 0.07189,-0.56656 0.28143,-0.15481 0.65415,0.05694 0.54741,0.24587z"/>
     <path class="fil6" d="M6.23909 6.27497c-0.03337,0.03601 -0.0564,0.0805 -0.06651,0.12857 -0.1558,-0.0768 -0.16563,-0.18942 -0.16563,-0.18942 0.06598,0.01052 0.13093,0.02883 0.19263,0.05443 0.01217,0.00426 0.02498,0.00643 0.03786,0.00643 0.00054,0 0.00113,-0.00001 0.00165,-0.00001l-0.00001 -0z"/>
     <g>
      <path class="fil5" d="M5.71131 5.77418c-0.1055,-0.45197 0.11287,-0.64801 0.25617,-0.70715 0.22917,-0.09496 0.5273,0.05422 0.59526,0.30548 0.06797,0.25126 0.00663,0.30818 0.00981,0.41099 0.00221,0.07214 0.04662,0.10747 -0.00221,0.28831 -0.03239,0.1195 -0.08662,0.31309 -0.29027,0.27653 -0.10111,-0.02362 -0.19606,-0.06932 -0.27772,-0.13351l-0.29104 -0.44065zm0 0l0 0 0 0z"/>
      <path id="_1_3" class="fil3 str1" d="M5.71131 5.77418c-0.1055,-0.45197 0.11287,-0.64801 0.25617,-0.70715 0.22917,-0.09496 0.5273,0.05422 0.59526,0.30548 0.06797,0.25126 0.00663,0.30818 0.00981,0.41099 0.00221,0.07214 0.04662,0.10747 -0.00221,0.28831 -0.03239,0.1195 -0.08662,0.31309 -0.29027,0.27653 -0.10111,-0.02362 -0.19606,-0.06932 -0.27772,-0.13351m-0.29104 -0.44065l0 0 0 0z"/>
     </g>
     <path class="fil6" d="M5.68333 5.10138c0,0 0.02797,-0.2093 0.23898,-0.2093 0.09422,0 0.18967,0.17176 0.32536,0.11066 0.13569,-0.0611 0.26991,-0.05373 0.31039,-0.00491 0.08759,0.10354 -0.01128,0.2039 0.09226,0.22672 0.10355,0.02281 0.13667,0.12465 0.07999,0.1963 -0.05668,0.07165 0.00908,0.14722 -0.00221,0.19875 -0.01329,0.07428 -0.07793,0.12834 -0.15336,0.12834 -0.00023,0 -0.0005,0 -0.00072,0 -0.00022,0 0.05693,-0.31383 -0.03018,-0.36535 -0.07533,-0.0449 -0.13814,0.01963 -0.13814,0.01963 -0.11606,-0.06699 -0.24757,-0.01448 -0.28438,0.03239 -0.06772,0.08686 -0.02184,0.18795 -0.09226,0.24267 -0.02454,0.02012 -0.09815,0.03288 -0.08809,0.09815 0.01006,0.06527 -0.04907,0.10943 -0.04907,0.10943l-0.04393 0.13446c0,0 0.05128,0.13863 -0.03902,0.24537 -0.02772,0.03312 -0.07901,0.03705 -0.17176,-0.02208 0.03484,-0.0174 0.05689,-0.05302 0.05689,-0.09198 0,-0.01492 -0.00326,-0.02969 -0.00952,-0.04321 -0.02282,-0.05202 -0.08637,-0.00883 -0.13471,-0.07361 -0.05546,-0.07361 0,-0.18427 -0.00785,-0.24831 -0.00663,-0.05128 -0.06674,-0.01767 -0.11827,-0.1271 -0.01423,-0.02994 -0.02454,-0.18403 0.06797,-0.27457 -0.00123,0.00048 -0.0979,-0.20661 0.19163,-0.28243z"/>
     <g>
      <path class="fil5" d="M5.96747 5.85343c0,0 -0.08294,-0.15458 -0.16955,-0.1168 -0.08661,0.03778 -0.0265,0.2223 0.04907,0.28266 0.07557,0.06036 0.12072,0 0.12072,0l-0.00025 -0.16587zm0 0l0 0 0 0z"/>
      <path id="_1_4" class="fil3 str1" d="M5.96747 5.85343c0,0 -0.08294,-0.15458 -0.16955,-0.1168 -0.08661,0.03778 -0.0265,0.2223 0.04907,0.28266 0.07557,0.06036 0.12072,0 0.12072,0m-0.00025 -0.16587l0 0 0 0z"/>
     </g>
     <path class="fil3 str1" d="M6.30656 5.62744c0,0 -0.08489,-0.03165 -0.13029,0.06797"/>
     <path class="fil3 str1" d="M6.59487 5.57469c0,0 -0.08858,-0.01914 -0.12637,0.04491"/>
     <path class="fil3 str1" d="M6.44594 5.74793c0,0 -0.00761,0.07901 0.02257,0.09422 0.03019,0.01521 0.0773,-0.01693 0.06306,0.04613 -0.01423,0.06306 -0.08662,0.06674 -0.08662,0.06674"/>
     <path class="fil6 str1" d="M6.28964 5.76878c0,0.02085 -0.00933,0.03803 -0.0211,0.03803 -0.01178,0 -0.02085,-0.01718 -0.02085,-0.03803 0,-0.02085 0.00932,-0.03804 0.02085,-0.03804 0.01153,0 0.0211,0.01693 0.0211,0.03804z"/>
     <path class="fil6 str1" d="M6.53181 5.74793c0,0.0211 -0.00957,0.03803 -0.0211,0.03803 -0.01153,0 -0.0211,-0.01693 -0.0211,-0.03803 0,-0.02111 0.00957,-0.03804 0.0211,-0.03804 0.01153,0 0.0211,0.01693 0.0211,0.03804z"/>
     <path class="fil3 str1" d="M6.28964 6.01709c0,0 0.0925,0.05128 0.17887,0.02895"/>
     <path class="fil3 str1" d="M6.30656 6.03427c0,0 0.00981,0.06698 0.07361,0.07361 0.00269,0.00038 0.00541,0.00057 0.00811,0.00057 0.0314,0 0.05703,-0.02513 0.05765,-0.05651"/>
     <path class="fil6" d="M6.40569 5.4022c-0.02159,-0.02663 -0.0541,-0.04213 -0.08841,-0.04213 -0.01685,0 -0.03353,0.00377 -0.04874,0.01096 -0.08171,0.0395 -0.05496,0.12907 -0.05741,0.18501 -0.00246,0.05594 -0.04368,0.03362 -0.0849,0.0665 -0.04122,0.03288 -0.01448,0.08735 -0.01448,0.08735 0,0 -0.08637,-0.01448 -0.02625,-0.09029 0.06011,-0.07581 0.1087,-0.0611 0.06993,-0.13152 -0.01109,-0.01885 -0.01695,-0.04035 -0.01695,-0.06222 0,-0.05764 0.04016,-0.10751 0.09644,-0.11984 0.08784,-0.02185 0.16857,0.02748 0.17077,0.09618z"/>
     <path class="fil6" d="M5.06133 14.15248c0,0 -0.03018,-0.11557 0.00516,-0.1585 0.06355,-0.0768 -0.00785,-0.14133 0.05619,-0.16807l0.02675 0.03092c0.00515,-0.03141 -0.00981,-0.1271 0.1087,-0.13961 0.14305,-0.01521 0.14575,0.08906 0.1536,0.12268l-0.00245 -0.04785c0.0611,0 0.02944,0.06085 0.12269,0.16072 0.04361,0.04827 0.06776,0.11105 0.06776,0.17612 0,0.0077 -0.00035,0.01543 -0.00103,0.0231l-0.53735 0.0005z"/>
     <path class="fil3 str3" d="M6.72614 7.07511c-0.05054,0.20317 -0.13495,0.40952 -0.28119,0.56435"/>
     <path class="fil3 str3" d="M6.7578 6.91342c-0.00417,0.03165 -0.00981,0.06306 -0.0162,0.09422"/>
     <path class="fil3 str3" d="M5.22965 8.85844c-0.00323,0.00004 -0.00665,0.0001 -0.00994,0.0001 -0.03405,0 -0.06816,-0.00354 -0.10148,-0.01043"/>
     <path class="fil3 str3" d="M6.00256 8.53774c-0.20415,0.15066 -0.45491,0.2888 -0.71009,0.31677"/>
     <path class="fil3 str3" d="M4.57476 8.31103c0,0 0.10993,0.02772 0.28143,-0.05717"/>
     <path class="fil3 str3" d="M5.97189 6.81159c0.01525,0.00166 0.03067,0.00253 0.04604,0.00253 0.02259,0 0.04528,-0.00185 0.06756,-0.00548"/>
     <path class="fil3 str3" d="M5.60261 6.54954c0.06625,0.11532 0.17765,0.21519 0.3072,0.25052"/>
     <path class="fil3 str1" d="M4.57476 11.16882c0,0 0.37958,0.53981 0.58152,0.60091"/>
     <path class="fil3 str1" d="M4.9514 13.02674c0,0 0.24782,0.0449 0.36805,0"/>
     <path class="fil3 str1" d="M5.44336 10.92051c0.20071,0.2115 0.411,0.43455 0.65709,0.59379 0.0473,0.03371 0.10061,0.05872 0.15682,0.07357"/>
     <path class="fil3 str1" d="M5.32068 10.78801c0.02454,0.02748 0.04907,0.05447 0.07484,0.08146"/>
     <path class="fil3 str1" d="M5.49612 9.74446c-0.0631,0.03204 -0.13289,0.04891 -0.20367,0.04907"/>
     <path class="fil3 str1" d="M5.17395 9.79305c0,0 -0.17863,-0.21838 -0.34842,-0.23286"/>
     <path class="fil5 str1" d="M4.99974 7.46476c0,0 -0.60459,0.65366 -0.75328,0.62913 -0.14869,-0.02454 -0.22574,-0.26574 -0.19311,-0.33248 0.03263,-0.06674 0.57735,-0.69978 0.57735,-0.69978l0.36904 0.40313z"/>
     <path class="fil6" d="M5.2299 6.50954c0,0 -0.35701,0.09962 -0.53515,0.36511 -0.17814,0.26549 -0.2623,0.33002 -0.2623,0.33002 0,0 0.18108,0.3364 0.34352,0.43994 0.16243,0.10354 0.50472,-0.08416 0.50472,-0.08416l-0.05079 -1.05091z"/>
     <path class="fil3 str3" d="M5.19431 6.78582c-0.01866,-0.03269 -0.04471,-0.06063 -0.07605,-0.08146"/>
     <path class="fil3 str3" d="M4.80762 7.67577c0.01891,0.01325 0.04057,0.02224 0.06331,0.02625 0.09815,-0.12268 0.29002,-0.10649 0.3391,-0.25371 0.09815,-0.17176 0.07361,-0.39259 0.01472,-0.59796"/>
     <g>
      <path class="fil5" d="M4.24646 8.09388c-0.17004,-0.02871 -0.35113,-0.03926 -0.45467,-0.68433l-0.10305 -0.64507 0.23285 -0.06969c0,0 0.29027,0.70691 0.3813,0.88332 0.09103,0.17642 0.03901,0.28733 0.03901,0.28733l-0.09544 0.22844zm0 0l0 0 0 0z"/>
      <path id="_1_5" class="fil3 str1" d="M4.24646 8.09388c-0.17004,-0.02871 -0.35113,-0.03926 -0.45467,-0.68433l-0.10305 -0.64507 0.23285 -0.06969c0,0 0.29027,0.70691 0.3813,0.88332 0.09103,0.17642 0.03901,0.28733 0.03901,0.28733m-0.09544 0.22844l0 0 0 0z"/>
     </g>
     <g>
      <path class="fil5" d="M8.24619 7.02211c0,0 0.17176,-0.18918 0.25641,-0.23727 0.07999,-0.04613 0.16022,-0.07705 0.17715,-0.07361 0.04269,0.00957 0.15041,0.13078 0.15041,0.13078 0,0 -0.01448,0.04196 -0.0849,0.01055 0,0 0.08171,0.10183 0.0687,0.15483 -0.01301,0.053 -0.1033,0.10232 -0.12612,0.12612 -0.00493,0.00623 -0.01244,0.00987 -0.02039,0.00987 -0.00849,0 -0.01644,-0.00415 -0.02131,-0.0111 -0.00487,-0.00696 -0.16685,0.11409 -0.27972,0.08637l-0.12023 -0.19654zm0 0l0 0 0 0z"/>
      <path id="_1_6" class="fil3 str1" d="M8.24619 7.02211c0,0 0.17176,-0.18918 0.25641,-0.23727 0.07999,-0.04613 0.16022,-0.07705 0.17715,-0.07361 0.04269,0.00957 0.15041,0.13078 0.15041,0.13078 0,0 -0.01448,0.04196 -0.0849,0.01055 0,0 0.08171,0.10183 0.0687,0.15483 -0.01301,0.053 -0.1033,0.10232 -0.12612,0.12612 -0.00493,0.00623 -0.01244,0.00987 -0.02039,0.00987 -0.00849,0 -0.01644,-0.00415 -0.02131,-0.0111 -0.00487,-0.00696 -0.16685,0.11409 -0.27972,0.08637m-0.12023 -0.19654l0 0 0 0z"/>
     </g>
     <path class="fil12 str1" d="M8.30606 6.74583l0.97313 0.21838 0 0.0292 -0.98785 -0.1963c-0.00189,-0.00504 -0.00287,-0.01038 -0.00287,-0.01576 0,-0.01393 0.00651,-0.02708 0.01759,-0.03553l0 0z"/>
     <path class="fil6" d="M9.46739 6.91391c-0.0027,0.00711 -0.03435,0.08612 -0.08711,0.10894 -0.02822,0.01251 -0.06232,0.00883 -0.10109,-0.02944l0 -0.0292c0.01665,-0.01836 0.0403,-0.02884 0.06508,-0.02884 0.00516,0 0.01032,0.00046 0.0154,0.00136l0 -0c0.00471,0.00085 0.00934,0.00226 0.01374,0.00417 0.00902,0.00323 0.01857,0.00487 0.02816,0.00487 0.02566,0 0.04991,-0.01175 0.06581,-0.03186z"/>
     <path class="fil1" d="M9.46739 6.91391c-0.0027,0.00711 -0.03435,0.08612 -0.08711,0.10894 0.00663,-0.01693 0.01546,-0.04122 0.01129,-0.04368 -0.00417,-0.00245 -0.0292,-0.0027 -0.0422,-0.00785 -0.01301,-0.00515 0.01497,-0.03362 0.01055,-0.03459 0.00471,0.00085 0.00934,0.00226 0.01374,0.00417 0.00897,0.00318 0.01845,0.00481 0.02797,0.00481 0.02562,0 0.04985,-0.01172 0.06576,-0.0318z"/>
     <path class="fil15" d="M9.46739 6.91391c-0.0027,0.00711 -0.03435,0.08612 -0.08711,0.10894 0.00663,-0.01693 0.01546,-0.04122 0.01129,-0.04368 -0.00417,-0.00245 -0.0292,-0.0027 -0.0422,-0.00785 -0.01301,-0.00515 0.01497,-0.03362 0.01055,-0.03459 0.00471,0.00085 0.00934,0.00226 0.01374,0.00417 0.00897,0.00318 0.01845,0.00481 0.02797,0.00481 0.02562,0 0.04985,-0.01172 0.06576,-0.0318z"/>
     <g>
      <path class="fil5" d="M8.34434 7.13253c0,0 0.17642,-0.01448 0.20881,-0.12465 0.01098,-0.02769 0.02776,-0.05281 0.04909,-0.0736 0.02133,-0.02079 0.16023,0.01693 0.16023,-0.04907l-0.20931 -0.05031c-0.08177,0.01735 -0.15543,0.06201 -0.2088,0.12637l-0.00002 0.17126zm0 0l0 0 0 0z"/>
      <path id="_1_7" class="fil3 str1" d="M8.34434 7.13253c0,0 0.17642,-0.01448 0.20881,-0.12465 0.01098,-0.02769 0.02776,-0.05281 0.04909,-0.0736 0.02133,-0.02079 0.16023,0.01693 0.16023,-0.04907l-0.20931 -0.05031c-0.08177,0.01735 -0.15543,0.06201 -0.2088,0.12637m-0.00002 0.17126l0 0 0 0z"/>
     </g>
     <path class="fil3 str1" d="M8.64516 7.13253c-0.00269,-0.00751 -0.00407,-0.01544 -0.00407,-0.02343 0,-0.00798 0.00138,-0.01592 0.00407,-0.02343 0.00269,-0.00752 -0.04539,-0.01571 -0.03362,-0.05643 0,0 -0.06797,-0.01938 -0.01055,-0.09398"/>
     <path class="fil3 str1" d="M8.61253 7.02923c0,0 0.10379,-0.05447 0.11924,-0.08441"/>
     <path class="fil3 str1" d="M8.64516 7.08567c0,0 0.1087,-0.04491 0.11606,-0.07999"/>
     <path class="fil3 str1" d="M8.67215 6.7711c0.01163,0.0322 0.03594,0.05827 0.06722,0.07214"/>
     <path class="fil3 str1" d="M8.68442 6.79564c-0.01794,0.00638 -0.03524,0.01467 -0.05152,0.02454"/>
     <path class="fil12 str1" d="M2.79193 6.60646c-0.10183,-0.18746 -0.05398,-0.70568 0.39799,-0.77389 0.62127,-0.09398 0.37786,0.36633 0.7783,0.45369 0.40044,0.08735 0.30695,0.63795 -0.23481,0.70715 -0.41737,0.05398 -0.77168,-0.07385 -0.94148,-0.38694z"/>
     <path class="fil5 str1" d="M3.89362 6.38685c0,0 -0.04907,-0.05594 -0.08735,-0.06478 -0.03828,-0.00883 -0.15532,0.03043 -0.15532,0.03043 0,0 0.00491,0.05791 0.08244,0.06011 0.07753,0.00221 0.03902,0.04122 0.03902,0.04122 0,0 0.10453,0.05056 0.12121,-0.06698z"/>
     <path class="fil1" d="M3.48092 5.95893c-0.04907,-0.10183 -0.15679,-0.07017 -0.19875,-0.03215 -0.07778,0.07017 -0.03877,0.13864 0,0.11999 0.03876,-0.01865 0.24757,0.01374 0.19875,-0.08784z"/>
     <path class="fil1" d="M3.00368 6.29926c0.00826,0.00515 0.01707,0.00936 0.02626,0.01252 0.00642,0.00169 0.01305,0.00256 0.01969,0.00256 0.03565,0 0.06663,-0.02455 0.07476,-0.05924 0.00085,-0.00667 0.0021,-0.01334 0.00369,-0.01989 0.00465,-0.01049 0.01052,-0.0205 0.01743,-0.02968 0.00387,-0.00537 0.00596,-0.01181 0.00596,-0.01843 0,-0.00503 -0.00121,-0.00999 -0.00352,-0.01445 -0.01128,-0.01644 -0.03926,-0.00711 -0.05546,-0.01865 -0.01227,-0.00859 -0.01448,-0.02601 -0.02454,-0.03754 -0.01472,-0.01791 -0.04171,-0.01693 -0.06478,-0.01472 -0.00785,0 -0.01767,0.00344 -0.01938,0.01104 -0.00172,0.0076 0,0.00859 0,0.01276 -0.00196,0.00933 -0.01423,0.01055 -0.02454,0.01227 -0.03755,0.00638 -0.05594,0.05153 -0.04638,0.08613 0.00957,0.03459 0.06134,0.05841 0.09078,0.07533z"/>
     <path class="fil1" d="M3.15875 6.57358c-0.01178,-0.02012 -0.00638,-0.04662 -0.01742,-0.06723 -0.01423,-0.0265 -0.04907,-0.03312 -0.07827,-0.03607 -0.03681,-0.00368 -0.07361,-0.00613 -0.11066,-0.00785 -0.0005,-0.00009 -0.00102,-0.00013 -0.00154,-0.00013 -0.0017,0 -0.00338,0.00047 -0.00484,0.00135 -0.00294,0.00196 -0.0027,0.00638 -0.0027,0.00981 -0.00226,0.01797 -0.00787,0.03537 -0.01644,0.05129 -0.01521,0.04098 0.0319,0.09202 0.05913,0.11974 0.01942,0.02098 0.04538,0.03483 0.07362,0.03926 0.04024,0.00417 0.07827,-0.01742 0.11287,-0.03828 0.00513,-0.00271 0.00966,-0.00648 0.01325,-0.01104 0.00186,-0.00401 0.00283,-0.00839 0.00283,-0.01282 0,-0.0076 -0.00285,-0.01494 -0.00798,-0.02055 -0.0078,-0.00871 -0.01515,-0.01793 -0.02184,-0.02749l-0.00001 0.00001z"/>
     <path class="fil1" d="M3.43282 6.68204c-0.03263,-0.0162 -0.07165,-0.00417 -0.10576,0.0081 -0.00913,0.00196 -0.01714,0.00743 -0.02231,0.01522 -0.00589,0.01202 0.00294,0.02257 0.0027,0.03411 0,0.01914 -0.00859,0.01546 -0.01448,0.03067 -0.00143,0.00426 -0.00216,0.00873 -0.00216,0.01324 0,0.01848 0.01216,0.03476 0.02988,0.04 0.04907,0.02454 0.09937,0.07042 0.15213,0.0265 0.01609,-0.01502 0.02525,-0.03609 0.02525,-0.05811 0,-0.00354 -0.00024,-0.00709 -0.00071,-0.01059 -0.00322,-0.02526 -0.01343,-0.04916 -0.02943,-0.06896 -0.00924,-0.01258 -0.02126,-0.02292 -0.03509,-0.03017l-0.00001 0z"/>
     <path class="fil1" d="M3.93411 6.71221c-0.0019,-0.00386 -0.00489,-0.0071 -0.00858,-0.00932 -0.00342,-0.00156 -0.00714,-0.00236 -0.01089,-0.00236 -0.00095,0 -0.00191,0.00006 -0.00285,0.00016 -0.0088,0.00094 -0.01775,0.0014 -0.02661,0.0014 -0.01651,0 -0.03304,-0.00164 -0.04921,-0.00484 -0.01374,-0.00441 -0.02625,-0.01202 -0.03975,-0.01742 -0.00811,-0.00388 -0.01698,-0.00591 -0.02598,-0.00591 -0.00549,0 -0.01096,0.00076 -0.01623,0.00224 -0.02724,0.01006 -0.01325,0.02454 -0.01276,0.04294 0,0.02601 -0.02183,0.04662 -0.02061,0.07361 0.00298,0.02291 0.01976,0.04163 0.0422,0.04711 0.01196,0.00275 0.02424,0.00414 0.03653,0.00414 0.0103,0 0.0206,-0.00098 0.0307,-0.00291 0.017,-0.0007 0.03371,-0.0048 0.04908,-0.01203 0.00988,-0.00588 0.01884,-0.01326 0.02649,-0.02184 0.0127,-0.01228 0.02306,-0.02687 0.03044,-0.04293 0.00326,-0.00757 0.00495,-0.01572 0.00495,-0.02396 0,-0.00978 -0.00238,-0.01942 -0.00692,-0.02806l-0.00001 0z"/>
    </g>
   </g>
   <path class="fil16" d="M7.49981 0.06944c0.85114,0 1.54111,0.68998 1.54111,1.54111 0,0.85113 -0.68998,1.54112 -1.54111,1.54112 -0.85113,0 -1.54111,-0.68998 -1.54111,-1.54112 0,-0.85113 0.68998,-1.54111 1.54111,-1.54111z"/>
   <g style="clip-path:url(#id2)">
    <g>
    </g>
    <g style="clip-path:url(#id3)">
     <image x="6.34192" y="0.45267" width="2.31578" height="2.31578" xlink:href="art_Images\art_ImgID1.png"/>
    </g>
    <g style="clip-path:url(#id4)">
    </g>
   </g>
   <path class="fil17 str0" d="M7.49981 0.06944c0.85114,0 1.54111,0.68998 1.54111,1.54111 0,0.85113 -0.68998,1.54112 -1.54111,1.54112 -0.85113,0 -1.54111,-0.68998 -1.54111,-1.54112 0,-0.85113 0.68998,-1.54111 1.54111,-1.54111z"/>
  </g>
 </g>
</svg>
