<svg version="1.1" id="Layer_1" xmlns="http://www.w3.org/2000/svg" xmlns:xlink="http://www.w3.org/1999/xlink" x="0px" y="0px"
	 width="100%" viewBox="0 0 512 512" enable-background="new 0 0 512 512" xml:space="preserve">
<path fill="#FFFFFF" opacity="1.000000" stroke="none" 
	d="
M513.000000,161.000000 
	C513.000000,278.291809 513.000000,395.583618 513.000000,512.937744 
	C342.435272,512.937744 171.870544,512.937744 1.000000,512.937744 
	C1.000000,395.976837 1.000000,278.953430 1.236504,161.481659 
	C1.473009,161.033295 1.942371,161.100693 1.979404,161.448273 
	C8.673516,169.685867 15.294162,177.606979 21.998070,185.457001 
	C28.510071,193.082306 35.154560,200.594589 41.655964,208.228790 
	C50.590477,218.720078 59.404152,229.314316 68.347305,239.798157 
	C75.070374,247.679459 81.972374,255.408157 88.692581,263.291840 
	C97.524391,273.652740 106.220741,284.128998 115.042274,294.498718 
	C121.539528,302.136230 128.199371,309.635498 134.687164,317.280914 
	C143.281219,327.408447 151.714981,337.672272 160.334503,347.777832 
	C168.975204,357.908203 177.810242,367.872650 186.467224,377.989319 
	C195.642242,388.711365 204.719223,399.517517 213.817581,410.304993 
	C220.689865,418.453064 227.440918,426.705109 234.406281,434.772400 
	C241.487976,442.974457 248.766006,451.007019 256.069458,459.379333 
	C256.818420,459.454956 257.456024,459.265015 258.410339,458.953613 
	C264.869049,451.721985 271.016815,444.616821 277.151337,437.500244 
	C283.615540,430.001190 290.097656,422.517303 296.516754,414.979797 
	C305.489349,404.443939 314.395660,393.851654 323.359283,383.308167 
	C329.770660,375.766785 336.261108,368.292542 342.659546,360.740265 
	C351.177063,350.686768 359.582245,340.537659 368.143341,330.521667 
	C375.114380,322.365997 382.315430,314.406952 389.286346,306.251190 
	C400.205994,293.475647 410.994537,280.588135 421.883484,267.786255 
	C428.405243,260.118744 435.054932,252.560013 441.570831,244.887619 
	C450.207458,234.717987 458.729980,224.451431 467.376434,214.290253 
	C474.006653,206.498520 480.786591,198.834320 487.438995,191.061218 
	C495.991241,181.068130 504.482483,171.022827 513.000000,161.000000 
z"/>
<path fill="#FFFFFF" opacity="1.000000" stroke="none" 
	d="
M0.999999,158.000000 
	C1.000000,105.694382 1.000000,53.388756 1.000000,1.041568 
	C171.548569,1.041568 342.097168,1.041568 513.000000,1.041568 
	C513.000000,53.020359 513.000000,105.041519 512.780396,157.479034 
	C512.560852,157.895401 512.109680,157.880157 512.009399,157.655258 
	C511.713898,157.142822 511.447113,156.959244 511.008759,156.654785 
	C510.713470,156.142548 510.446716,155.959213 510.008545,155.654968 
	C509.713501,155.142563 509.446747,154.959229 509.008484,154.655075 
	C508.713501,154.142578 508.446747,153.959229 508.008545,153.655090 
	C507.713501,153.142593 507.446747,152.959259 507.008545,152.655090 
	C506.713501,152.142593 506.446747,151.959259 506.008545,151.655090 
	C505.713501,151.142593 505.446747,150.959259 505.008545,150.655090 
	C504.713501,150.142593 504.446747,149.959259 504.008484,149.655106 
	C503.713501,149.142624 503.446747,148.959259 503.008636,148.655060 
	C502.713989,148.142792 502.447723,147.958572 502.009521,147.656525 
	C501.713135,147.157990 501.450989,146.975891 501.026428,146.656799 
	C500.656403,146.242828 500.382385,146.061447 500.008545,145.655090 
	C499.713501,145.142593 499.446747,144.959259 499.008545,144.655090 
	C498.713501,144.142593 498.446747,143.959259 498.008545,143.655090 
	C497.713501,143.142593 497.446747,142.959259 497.008545,142.655090 
	C496.713501,142.142593 496.446747,141.959259 496.008545,141.655090 
	C495.713501,141.142593 495.446747,140.959259 495.008545,140.655090 
	C494.713501,140.142593 494.446747,139.959259 494.008545,139.655090 
	C493.713501,139.142593 493.446747,138.959259 493.008545,138.655090 
	C492.713501,138.142593 492.446747,137.959259 492.008484,137.655106 
	C491.713501,137.142624 491.446747,136.959259 491.008636,136.655060 
	C490.713989,136.142792 490.447723,135.958572 490.009521,135.656525 
	C489.713135,135.157990 489.450989,134.975891 489.023010,134.662811 
	C488.721741,134.156998 488.453766,133.975235 488.024994,133.657745 
	C487.656342,133.243073 487.382355,133.061569 487.008545,132.655075 
	C486.713501,132.142593 486.446747,131.959259 486.008545,131.655090 
	C485.713501,131.142593 485.446747,130.959259 485.008545,130.655090 
	C484.713501,130.142593 484.446747,129.959259 484.008545,129.655090 
	C483.713501,129.142593 483.446747,128.959259 483.008545,128.655090 
	C482.713501,128.142609 482.446747,127.959251 482.008545,127.655075 
	C481.713501,127.142593 481.446747,126.959244 481.008545,126.655075 
	C480.713501,126.142593 480.446747,125.959244 480.008545,125.655075 
	C479.713501,125.142593 479.446747,124.959244 479.008545,124.655075 
	C478.713501,124.142593 478.446747,123.959244 478.008545,123.655075 
	C477.713501,123.142593 477.446747,122.959244 477.008545,122.655075 
	C476.713501,122.142593 476.446747,121.959244 476.008545,121.655075 
	C475.713501,121.142593 475.446747,120.959244 475.008545,120.655075 
	C474.713501,120.142593 474.446747,119.959244 474.008545,119.655075 
	C473.713501,119.142593 473.446747,118.959244 473.008545,118.655075 
	C472.713501,118.142593 472.446747,117.959244 472.008545,117.655075 
	C471.713501,117.142593 471.446747,116.959244 471.008545,116.655075 
	C470.713501,116.142593 470.446747,115.959244 470.008545,115.655075 
	C469.713501,115.142593 469.446747,114.959244 469.008545,114.655075 
	C468.713501,114.142593 468.446747,113.959244 468.008545,113.655075 
	C467.713501,113.142593 467.446747,112.959244 467.008606,112.655075 
	C466.713928,112.142815 466.447662,111.958565 466.009460,111.656479 
	C465.713074,111.157997 465.450928,110.975906 465.026367,110.656769 
	C464.656372,110.242813 464.382385,110.061432 464.008545,109.655075 
	C463.713501,109.142593 463.446747,108.959244 463.008545,108.655075 
	C462.713501,108.142593 462.446747,107.959244 462.008545,107.655075 
	C461.713501,107.142593 461.446747,106.959244 461.008545,106.655075 
	C460.713501,106.142593 460.446747,105.959244 460.008545,105.655075 
	C459.713501,105.142593 459.446747,104.959244 459.008545,104.655075 
	C458.713501,104.142593 458.446747,103.959244 458.008545,103.655075 
	C457.713501,103.142593 457.446747,102.959244 457.008545,102.655075 
	C456.713501,102.142593 456.446747,101.959244 456.008545,101.655075 
	C455.713501,101.142593 455.446747,100.959244 455.008545,100.655075 
	C454.713501,100.142593 454.446747,99.959244 454.008545,99.655075 
	C453.713501,99.142593 453.446747,98.959244 453.008606,98.655075 
	C452.713928,98.142815 452.447662,97.958565 452.009460,97.656479 
	C451.713074,97.157997 451.450928,96.975906 451.026367,96.656784 
	C450.656372,96.242828 450.382355,96.061447 450.008545,95.655075 
	C449.713501,95.142593 449.446747,94.959244 449.008545,94.655075 
	C448.713501,94.142593 448.446747,93.959244 448.008545,93.655075 
	C447.713501,93.142593 447.446747,92.959244 447.008545,92.655075 
	C446.713501,92.142593 446.446747,91.959244 446.008545,91.655075 
	C445.713501,91.142593 445.446747,90.959244 445.008545,90.655075 
	C444.713501,90.142593 444.446747,89.959244 444.008545,89.655075 
	C443.713501,89.142593 443.446747,88.959244 443.008545,88.655075 
	C442.713501,88.142593 442.446747,87.959244 442.008545,87.655075 
	C441.713501,87.142593 441.446747,86.959244 441.008545,86.655075 
	C440.713501,86.142593 440.446747,85.959244 440.008606,85.655075 
	C439.713928,85.142815 439.447662,84.958565 439.009460,84.656464 
	C438.713043,84.157928 438.450867,83.975838 438.022949,83.662743 
	C437.721680,83.156952 437.453705,82.975182 437.024963,82.657722 
	C436.656281,82.243073 436.382324,82.061569 436.008545,81.655075 
	C435.713501,81.142593 435.446747,80.959244 435.008545,80.655075 
	C434.713501,80.142593 434.446747,79.959244 434.008545,79.655075 
	C433.713501,79.142593 433.446747,78.959244 433.008545,78.655075 
	C432.713501,78.142593 432.446747,77.959244 432.008545,77.655075 
	C431.713501,77.142593 431.446747,76.959244 431.008545,76.655075 
	C430.713501,76.142593 430.446747,75.959244 430.008545,75.655075 
	C429.713501,75.142593 429.446747,74.959244 429.008545,74.655075 
	C428.713501,74.142593 428.446747,73.959244 428.008545,73.655075 
	C427.713501,73.142593 427.446747,72.959244 427.008545,72.655075 
	C426.713501,72.142593 426.446747,71.959244 426.008606,71.655075 
	C425.713928,71.142815 425.447662,70.958565 425.009460,70.656479 
	C424.713074,70.157997 424.450928,69.975906 424.026367,69.656776 
	C423.656372,69.242821 423.382355,69.061440 423.008545,68.655075 
	C422.713501,68.142593 422.446747,67.959244 422.008545,67.655075 
	C421.713501,67.142593 421.446747,66.959244 421.008545,66.655075 
	C420.713501,66.142593 420.446747,65.959244 420.008545,65.655075 
	C419.713501,65.142593 419.446747,64.959244 419.008545,64.655075 
	C418.713562,64.142593 418.446777,63.959255 418.008514,63.655113 
	C417.713501,63.142632 417.446747,62.959282 417.008514,62.655113 
	C416.713501,62.142632 416.446747,61.959282 416.008514,61.655113 
	C415.713501,61.142632 415.446747,60.959282 415.008514,60.655113 
	C414.713501,60.142632 414.446747,59.959282 414.008514,59.655113 
	C413.713501,59.142632 413.446747,58.959282 413.008514,58.655109 
	C412.713501,58.142620 412.446747,57.959263 412.008606,57.655075 
	C411.713898,57.142830 411.447662,56.958565 411.009491,56.656452 
	C410.713104,56.158005 410.450989,55.975876 410.022949,55.662308 
	C409.720947,55.155510 409.451996,54.974586 408.966003,54.631096 
	C408.242157,54.223072 407.668823,54.076576 406.845642,53.572800 
	C405.936859,53.144497 405.277863,53.011311 404.618896,53.011242 
	C306.594727,53.001110 208.570557,52.997372 110.546394,53.037380 
	C109.345329,53.037872 108.144485,53.605461 106.596344,53.955887 
	C104.867050,55.137260 103.377426,56.163425 102.118546,57.420643 
	C69.752174,89.744141 37.412701,122.094566 5.052876,154.424637 
	C3.780878,155.695450 2.354461,156.811722 0.999999,158.000000 
z"/>
<path fill="#86DAFF" opacity="1.000000" stroke="none" 
	d="
M512.109680,157.880157 
	C512.109680,157.880157 512.560852,157.895401 512.780396,157.947693 
	C513.000000,158.750000 513.000000,159.500000 513.000000,160.625000 
	C504.482483,171.022827 495.991241,181.068130 487.438995,191.061218 
	C480.786591,198.834320 474.006653,206.498520 467.376434,214.290253 
	C458.729980,224.451431 450.207458,234.717987 441.570831,244.887619 
	C435.054932,252.560013 428.405243,260.118744 421.883484,267.786255 
	C410.994537,280.588135 400.205994,293.475647 389.286346,306.251190 
	C382.315430,314.406952 375.114380,322.365997 368.143341,330.521667 
	C359.582245,340.537659 351.177063,350.686768 342.659546,360.740265 
	C336.261108,368.292542 329.770660,375.766785 323.359283,383.308167 
	C314.395660,393.851654 305.489349,404.443939 296.516754,414.979797 
	C290.097656,422.517303 283.615540,430.001190 277.151337,437.500244 
	C271.016815,444.616821 264.869049,451.721985 258.386810,458.559418 
	C258.607452,456.383820 259.059479,454.440735 259.745361,452.584045 
	C275.131958,410.932312 290.547058,369.291138 305.950958,327.645844 
	C323.835571,279.293701 341.751465,230.953094 359.557251,182.571930 
	C362.294525,175.134293 364.513306,167.505829 367.230225,160.011093 
	C367.662231,160.038071 367.835938,160.019577 368.477509,160.000519 
	C414.847015,159.999954 460.748749,160.022537 506.650146,159.915329 
	C508.437317,159.911148 510.221649,158.663330 512.032227,157.965729 
	C512.057190,157.936432 512.109680,157.880157 512.109680,157.880157 
z"/>
<path fill="#00AAF0" opacity="1.000000" stroke="none" 
	d="
M0.999999,158.375000 
	C2.354461,156.811722 3.780878,155.695450 5.052876,154.424637 
	C37.412701,122.094566 69.752174,89.744141 102.118546,57.420643 
	C103.377426,56.163425 104.867050,55.137260 106.746338,54.298561 
	C110.828911,64.395096 114.399887,74.201797 118.002510,83.996872 
	C127.321724,109.334572 136.654892,134.667130 145.514923,160.001068 
	C99.223526,160.000061 53.399673,159.986710 7.575910,160.045975 
	C5.697612,160.048401 3.820197,160.733582 1.942370,161.100693 
	C1.942371,161.100693 1.473009,161.033295 1.236504,161.016647 
	C1.000000,160.250000 1.000000,159.500000 0.999999,158.375000 
z"/>
<path fill="#00C3FF" opacity="1.000000" stroke="none" 
	d="
M366.971863,159.965607 
	C364.513306,167.505829 362.294525,175.134293 359.557251,182.571930 
	C341.751465,230.953094 323.835571,279.293701 305.950958,327.645844 
	C290.547058,369.291138 275.131958,410.932312 259.745361,452.584045 
	C259.059479,454.440735 258.607452,456.383820 258.070068,458.680847 
	C257.456024,459.265015 256.818420,459.454956 256.075867,458.984375 
	C252.305191,448.016357 248.722305,437.678497 244.957520,427.407318 
	C235.476639,401.541351 225.934341,375.697784 216.378204,349.859467 
	C205.613251,320.752747 194.801208,291.663422 184.018951,262.563080 
	C174.216919,236.108231 164.378311,209.666763 154.663208,183.180008 
	C151.872589,175.571793 149.454422,167.826981 146.900421,160.106415 
	C146.935349,160.068054 147.007690,159.993637 147.475571,159.985458 
	C220.975388,159.995392 294.007324,160.013504 367.021729,160.015823 
	C367.004242,160.000031 366.971863,159.965607 366.971863,159.965607 
z"/>
<path fill="#0096DC" opacity="1.000000" stroke="none" 
	d="
M146.865494,160.144791 
	C149.454422,167.826981 151.872589,175.571793 154.663208,183.180008 
	C164.378311,209.666763 174.216919,236.108231 184.018951,262.563080 
	C194.801208,291.663422 205.613251,320.752747 216.378204,349.859467 
	C225.934341,375.697784 235.476639,401.541351 244.957520,427.407318 
	C248.722305,437.678497 252.305191,448.016357 255.964493,458.718811 
	C248.766006,451.007019 241.487976,442.974457 234.406281,434.772400 
	C227.440918,426.705109 220.689865,418.453064 213.817581,410.304993 
	C204.719223,399.517517 195.642242,388.711365 186.467224,377.989319 
	C177.810242,367.872650 168.975204,357.908203 160.334503,347.777832 
	C151.714981,337.672272 143.281219,327.408447 134.687164,317.280914 
	C128.199371,309.635498 121.539528,302.136230 115.042274,294.498718 
	C106.220741,284.128998 97.524391,273.652740 88.692581,263.291840 
	C81.972374,255.408157 75.070374,247.679459 68.347305,239.798157 
	C59.404152,229.314316 50.590477,218.720078 41.655964,208.228790 
	C35.154560,200.594589 28.510071,193.082306 21.998070,185.457001 
	C15.294162,177.606979 8.673516,169.685867 1.979403,161.448273 
	C3.820197,160.733582 5.697612,160.048401 7.575910,160.045975 
	C53.399673,159.986710 99.223526,160.000061 145.736267,160.033752 
	C146.425186,160.067093 146.865494,160.144791 146.865494,160.144791 
z"/>
<path fill="#00C3FF" opacity="1.000000" stroke="none" 
	d="
M146.900421,160.106415 
	C146.865494,160.144791 146.425186,160.067093 146.203827,160.034424 
	C136.654892,134.667130 127.321724,109.334572 118.002510,83.996872 
	C114.399887,74.201797 110.828911,64.395096 107.093529,54.251015 
	C108.144485,53.605461 109.345329,53.037872 110.546394,53.037380 
	C208.570557,52.997372 306.594727,53.001110 404.618896,53.011242 
	C405.277863,53.011311 405.936859,53.144497 406.762268,53.818214 
	C406.909149,54.592560 406.889618,54.764206 406.622589,55.187782 
	C401.141022,69.591721 395.873932,83.731636 390.680634,97.898598 
	C383.095856,118.589241 375.564056,139.299316 368.009644,160.001099 
	C367.835938,160.019577 367.662231,160.038071 367.230194,160.011078 
	C366.971863,159.965607 367.004242,160.000031 366.922913,159.689255 
	C351.360565,144.491272 335.881592,129.601974 320.398041,114.717407 
	C300.346649,95.441666 280.294281,76.166931 260.230591,56.904007 
	C259.192139,55.906971 258.043365,55.024815 256.929138,54.074818 
	C256.118835,54.748543 255.583099,55.140518 255.108582,55.596237 
	C235.048126,74.862579 215.019928,94.162598 194.925446,113.393356 
	C185.784943,122.140961 176.421829,130.657089 167.333542,139.457748 
	C160.416107,146.156250 153.772903,153.137939 147.007690,159.993637 
	C147.007690,159.993637 146.935349,160.068054 146.900421,160.106415 
z"/>
<path fill="#86DAFF" opacity="1.000000" stroke="none" 
	d="
M406.870087,54.935852 
	C406.889618,54.764206 406.909149,54.592560 407.012085,54.175491 
	C407.668823,54.076576 408.242157,54.223072 408.938477,54.656647 
	C409.061462,54.943722 409.005096,54.993362 408.649231,55.002914 
	C407.818939,54.986931 407.344513,54.961391 406.870087,54.935852 
z"/>
<path fill="#86DAFF" opacity="1.000000" stroke="none" 
	d="
M487.108368,132.880066 
	C487.382355,133.061569 487.656342,133.243073 487.996246,133.683746 
	C488.062195,133.942902 488.004913,133.995148 487.772705,133.903656 
	C487.248779,133.614059 487.070251,133.341721 487.030762,132.966370 
	C487.056610,132.937576 487.108368,132.880066 487.108368,132.880066 
z"/>
<path fill="#86DAFF" opacity="1.000000" stroke="none" 
	d="
M464.108368,109.880051 
	C464.382385,110.061432 464.656372,110.242813 464.996948,110.683159 
	C465.063538,110.942123 465.004913,110.995163 464.772675,110.903702 
	C464.248688,110.614120 464.070190,110.341759 464.030762,109.966370 
	C464.056610,109.937576 464.108368,109.880058 464.108368,109.880051 
z"/>
<path fill="#86DAFF" opacity="1.000000" stroke="none" 
	d="
M486.108368,131.880066 
	C486.446747,131.959259 486.713501,132.142593 487.008545,132.655090 
	C487.108368,132.880066 487.056610,132.937576 486.798553,132.874878 
	C486.248779,132.614059 486.070251,132.341721 486.030762,131.966370 
	C486.056610,131.937576 486.108368,131.880066 486.108368,131.880066 
z"/>
<path fill="#86DAFF" opacity="1.000000" stroke="none" 
	d="
M485.108368,130.880066 
	C485.446747,130.959259 485.713501,131.142593 486.008545,131.655090 
	C486.108368,131.880066 486.056610,131.937576 485.798553,131.874878 
	C485.248779,131.614059 485.070251,131.341721 485.030762,130.966370 
	C485.056610,130.937576 485.108368,130.880066 485.108368,130.880066 
z"/>
<path fill="#86DAFF" opacity="1.000000" stroke="none" 
	d="
M484.108368,129.880066 
	C484.446747,129.959259 484.713501,130.142593 485.008545,130.655090 
	C485.108368,130.880066 485.056610,130.937576 484.798553,130.874878 
	C484.248779,130.614059 484.070251,130.341721 484.030762,129.966370 
	C484.056610,129.937576 484.108368,129.880066 484.108368,129.880066 
z"/>
<path fill="#86DAFF" opacity="1.000000" stroke="none" 
	d="
M483.108368,128.880066 
	C483.446747,128.959259 483.713501,129.142593 484.008545,129.655090 
	C484.108368,129.880066 484.056610,129.937576 483.798553,129.874878 
	C483.248779,129.614059 483.070251,129.341721 483.030762,128.966370 
	C483.056610,128.937576 483.108368,128.880066 483.108368,128.880066 
z"/>
<path fill="#86DAFF" opacity="1.000000" stroke="none" 
	d="
M482.108368,127.880058 
	C482.446747,127.959251 482.713501,128.142609 483.008545,128.655090 
	C483.108368,128.880066 483.056610,128.937576 482.798523,128.874908 
	C482.248657,128.614136 482.070129,128.341782 482.030762,127.966370 
	C482.056610,127.937576 482.108368,127.880058 482.108368,127.880058 
z"/>
<path fill="#86DAFF" opacity="1.000000" stroke="none" 
	d="
M481.108368,126.880058 
	C481.446747,126.959244 481.713501,127.142593 482.008545,127.655075 
	C482.108368,127.880058 482.056610,127.937576 481.798523,127.874908 
	C481.248688,127.614120 481.070190,127.341759 481.030762,126.966370 
	C481.056610,126.937576 481.108368,126.880058 481.108368,126.880058 
z"/>
<path fill="#86DAFF" opacity="1.000000" stroke="none" 
	d="
M480.108368,125.880058 
	C480.446747,125.959244 480.713501,126.142593 481.008545,126.655075 
	C481.108368,126.880058 481.056610,126.937576 480.798523,126.874908 
	C480.248688,126.614120 480.070190,126.341759 480.030762,125.966370 
	C480.056610,125.937576 480.108368,125.880058 480.108368,125.880058 
z"/>
<path fill="#86DAFF" opacity="1.000000" stroke="none" 
	d="
M479.108368,124.880058 
	C479.446747,124.959244 479.713501,125.142593 480.008545,125.655075 
	C480.108368,125.880058 480.056610,125.937576 479.798523,125.874908 
	C479.248688,125.614120 479.070190,125.341759 479.030762,124.966370 
	C479.056610,124.937576 479.108368,124.880058 479.108368,124.880058 
z"/>
<path fill="#86DAFF" opacity="1.000000" stroke="none" 
	d="
M478.108368,123.880058 
	C478.446747,123.959244 478.713501,124.142593 479.008545,124.655075 
	C479.108368,124.880058 479.056610,124.937576 478.798523,124.874908 
	C478.248688,124.614120 478.070190,124.341759 478.030762,123.966370 
	C478.056610,123.937576 478.108368,123.880058 478.108368,123.880058 
z"/>
<path fill="#86DAFF" opacity="1.000000" stroke="none" 
	d="
M477.108368,122.880058 
	C477.446747,122.959244 477.713501,123.142593 478.008545,123.655075 
	C478.108368,123.880058 478.056610,123.937576 477.798523,123.874908 
	C477.248688,123.614120 477.070190,123.341759 477.030762,122.966370 
	C477.056610,122.937576 477.108368,122.880058 477.108368,122.880058 
z"/>
<path fill="#86DAFF" opacity="1.000000" stroke="none" 
	d="
M476.108368,121.880058 
	C476.446747,121.959244 476.713501,122.142593 477.008545,122.655075 
	C477.108368,122.880058 477.056610,122.937576 476.798523,122.874908 
	C476.248688,122.614120 476.070190,122.341759 476.030762,121.966370 
	C476.056610,121.937576 476.108368,121.880058 476.108368,121.880058 
z"/>
<path fill="#86DAFF" opacity="1.000000" stroke="none" 
	d="
M475.108368,120.880058 
	C475.446747,120.959244 475.713501,121.142593 476.008545,121.655075 
	C476.108368,121.880058 476.056610,121.937576 475.798523,121.874908 
	C475.248688,121.614120 475.070190,121.341759 475.030762,120.966370 
	C475.056610,120.937576 475.108368,120.880058 475.108368,120.880058 
z"/>
<path fill="#86DAFF" opacity="1.000000" stroke="none" 
	d="
M474.108368,119.880058 
	C474.446747,119.959244 474.713501,120.142593 475.008545,120.655075 
	C475.108368,120.880058 475.056610,120.937576 474.798523,120.874908 
	C474.248688,120.614120 474.070190,120.341759 474.030762,119.966370 
	C474.056610,119.937576 474.108368,119.880058 474.108368,119.880058 
z"/>
<path fill="#86DAFF" opacity="1.000000" stroke="none" 
	d="
M473.108368,118.880058 
	C473.446747,118.959244 473.713501,119.142593 474.008545,119.655075 
	C474.108368,119.880058 474.056610,119.937576 473.798523,119.874908 
	C473.248688,119.614120 473.070190,119.341759 473.030762,118.966370 
	C473.056610,118.937576 473.108368,118.880058 473.108368,118.880058 
z"/>
<path fill="#86DAFF" opacity="1.000000" stroke="none" 
	d="
M472.108368,117.880058 
	C472.446747,117.959244 472.713501,118.142593 473.008545,118.655075 
	C473.108368,118.880058 473.056610,118.937576 472.798523,118.874908 
	C472.248688,118.614120 472.070190,118.341759 472.030762,117.966370 
	C472.056610,117.937576 472.108368,117.880058 472.108368,117.880058 
z"/>
<path fill="#86DAFF" opacity="1.000000" stroke="none" 
	d="
M471.108368,116.880058 
	C471.446747,116.959244 471.713501,117.142593 472.008545,117.655075 
	C472.108368,117.880058 472.056610,117.937576 471.798523,117.874908 
	C471.248688,117.614120 471.070190,117.341759 471.030762,116.966370 
	C471.056610,116.937576 471.108368,116.880058 471.108368,116.880058 
z"/>
<path fill="#86DAFF" opacity="1.000000" stroke="none" 
	d="
M470.108368,115.880058 
	C470.446747,115.959244 470.713501,116.142593 471.008545,116.655075 
	C471.108368,116.880058 471.056610,116.937576 470.798523,116.874908 
	C470.248688,116.614120 470.070190,116.341759 470.030762,115.966370 
	C470.056610,115.937576 470.108368,115.880058 470.108368,115.880058 
z"/>
<path fill="#86DAFF" opacity="1.000000" stroke="none" 
	d="
M469.108368,114.880058 
	C469.446747,114.959244 469.713501,115.142593 470.008545,115.655075 
	C470.108368,115.880058 470.056610,115.937576 469.798523,115.874908 
	C469.248688,115.614120 469.070190,115.341759 469.030762,114.966370 
	C469.056610,114.937576 469.108368,114.880058 469.108368,114.880058 
z"/>
<path fill="#86DAFF" opacity="1.000000" stroke="none" 
	d="
M468.108368,113.880058 
	C468.446747,113.959244 468.713501,114.142593 469.008545,114.655075 
	C469.108368,114.880058 469.056610,114.937576 468.798523,114.874908 
	C468.248688,114.614120 468.070190,114.341759 468.030762,113.966370 
	C468.056610,113.937576 468.108368,113.880058 468.108368,113.880058 
z"/>
<path fill="#86DAFF" opacity="1.000000" stroke="none" 
	d="
M467.108368,112.880058 
	C467.446747,112.959244 467.713501,113.142593 468.008545,113.655075 
	C468.108368,113.880058 468.056610,113.937576 467.798523,113.874908 
	C467.248688,113.614120 467.070190,113.341759 467.030762,112.966370 
	C467.056610,112.937576 467.108368,112.880058 467.108368,112.880058 
z"/>
<path fill="#86DAFF" opacity="1.000000" stroke="none" 
	d="
M466.110077,111.877350 
	C466.447662,111.958565 466.713928,112.142815 467.008606,112.655075 
	C467.108368,112.880058 467.056610,112.937576 466.798523,112.874908 
	C466.248688,112.614120 466.070190,112.341759 466.031128,111.965652 
	C466.057373,111.936150 466.110077,111.877350 466.110077,111.877350 
z"/>
<path fill="#86DAFF" opacity="1.000000" stroke="none" 
	d="
M465.092957,110.915741 
	C465.450928,110.975906 465.713074,111.157997 466.009460,111.656479 
	C466.110077,111.877350 466.057373,111.936150 465.798889,111.874191 
	C465.248688,111.614120 465.070190,111.341759 465.004913,110.995163 
	C465.004913,110.995163 465.063538,110.942123 465.092957,110.915741 
z"/>
<path fill="#86DAFF" opacity="1.000000" stroke="none" 
	d="
M463.108368,108.880058 
	C463.446747,108.959244 463.713501,109.142593 464.008545,109.655075 
	C464.108368,109.880058 464.056610,109.937576 463.798523,109.874908 
	C463.248688,109.614120 463.070190,109.341759 463.030762,108.966370 
	C463.056610,108.937576 463.108368,108.880058 463.108368,108.880058 
z"/>
<path fill="#86DAFF" opacity="1.000000" stroke="none" 
	d="
M500.108368,145.880066 
	C500.382385,146.061447 500.656403,146.242828 500.996979,146.683167 
	C501.063538,146.942139 501.004913,146.995148 500.772705,146.903656 
	C500.248779,146.614059 500.070251,146.341721 500.030762,145.966370 
	C500.056610,145.937576 500.108368,145.880066 500.108368,145.880066 
z"/>
<path fill="#86DAFF" opacity="1.000000" stroke="none" 
	d="
M409.088989,54.918175 
	C409.451996,54.974586 409.720947,55.155510 409.993469,55.688744 
	C410.063629,55.942081 410.004913,55.995178 409.772491,55.903557 
	C409.248108,55.613377 409.069763,55.340519 409.005096,54.993362 
	C409.005096,54.993362 409.061462,54.943722 409.088989,54.918175 
z"/>
<path fill="#86DAFF" opacity="1.000000" stroke="none" 
	d="
M511.108795,156.879623 
	C511.447113,156.959244 511.713898,157.142822 512.009399,157.655258 
	C512.109680,157.880157 512.057190,157.936432 511.799377,157.874725 
	C511.249054,157.614990 511.070160,157.342377 511.030823,156.966293 
	C511.056793,156.937393 511.108795,156.879623 511.108795,156.879623 
z"/>
<path fill="#86DAFF" opacity="1.000000" stroke="none" 
	d="
M510.108459,155.879898 
	C510.446716,155.959213 510.713470,156.142548 511.008759,156.654785 
	C511.108795,156.879623 511.056793,156.937393 510.798584,156.874893 
	C510.248596,156.614197 510.070129,156.341797 510.030762,155.966309 
	C510.056641,155.937469 510.108459,155.879898 510.108459,155.879898 
z"/>
<path fill="#86DAFF" opacity="1.000000" stroke="none" 
	d="
M509.108368,154.880035 
	C509.446747,154.959229 509.713501,155.142563 510.008545,155.654968 
	C510.108459,155.879898 510.056641,155.937469 509.798523,155.874863 
	C509.248688,155.614120 509.070190,155.341751 509.030762,154.966370 
	C509.056610,154.937561 509.108368,154.880035 509.108368,154.880035 
z"/>
<path fill="#86DAFF" opacity="1.000000" stroke="none" 
	d="
M508.108368,153.880066 
	C508.446747,153.959229 508.713501,154.142578 509.008484,154.655075 
	C509.108368,154.880035 509.056610,154.937561 508.798523,154.874893 
	C508.248779,154.614090 508.070251,154.341721 508.030762,153.966370 
	C508.056610,153.937576 508.108368,153.880066 508.108368,153.880066 
z"/>
<path fill="#86DAFF" opacity="1.000000" stroke="none" 
	d="
M507.108368,152.880066 
	C507.446747,152.959259 507.713501,153.142593 508.008545,153.655090 
	C508.108368,153.880066 508.056610,153.937576 507.798553,153.874878 
	C507.248779,153.614059 507.070251,153.341721 507.030762,152.966370 
	C507.056610,152.937576 507.108368,152.880066 507.108368,152.880066 
z"/>
<path fill="#86DAFF" opacity="1.000000" stroke="none" 
	d="
M506.108368,151.880066 
	C506.446747,151.959259 506.713501,152.142593 507.008545,152.655090 
	C507.108368,152.880066 507.056610,152.937576 506.798553,152.874878 
	C506.248779,152.614059 506.070251,152.341721 506.030762,151.966370 
	C506.056610,151.937576 506.108368,151.880066 506.108368,151.880066 
z"/>
<path fill="#86DAFF" opacity="1.000000" stroke="none" 
	d="
M505.108368,150.880066 
	C505.446747,150.959259 505.713501,151.142593 506.008545,151.655090 
	C506.108368,151.880066 506.056610,151.937576 505.798553,151.874878 
	C505.248779,151.614059 505.070251,151.341721 505.030762,150.966370 
	C505.056610,150.937576 505.108368,150.880066 505.108368,150.880066 
z"/>
<path fill="#86DAFF" opacity="1.000000" stroke="none" 
	d="
M504.108368,149.880066 
	C504.446747,149.959259 504.713501,150.142593 505.008545,150.655090 
	C505.108368,150.880066 505.056610,150.937576 504.798553,150.874878 
	C504.248779,150.614059 504.070251,150.341721 504.030762,149.966370 
	C504.056610,149.937576 504.108368,149.880066 504.108368,149.880066 
z"/>
<path fill="#86DAFF" opacity="1.000000" stroke="none" 
	d="
M503.108368,148.880051 
	C503.446747,148.959259 503.713501,149.142624 504.008484,149.655106 
	C504.108368,149.880066 504.056610,149.937576 503.798553,149.874878 
	C503.248779,149.614059 503.070251,149.341721 503.030762,148.966354 
	C503.056610,148.937561 503.108368,148.880051 503.108368,148.880051 
z"/>
<path fill="#86DAFF" opacity="1.000000" stroke="none" 
	d="
M502.110107,147.877396 
	C502.447723,147.958572 502.713989,148.142792 503.008636,148.655060 
	C503.108368,148.880051 503.056610,148.937561 502.798553,148.874863 
	C502.248779,148.614059 502.070251,148.341721 502.031128,147.965668 
	C502.057373,147.936172 502.110107,147.877396 502.110107,147.877396 
z"/>
<path fill="#86DAFF" opacity="1.000000" stroke="none" 
	d="
M501.092957,146.915771 
	C501.450989,146.975891 501.713135,147.157990 502.009521,147.656525 
	C502.110107,147.877396 502.057373,147.936172 501.798950,147.874176 
	C501.248779,147.614059 501.070251,147.341721 501.004913,146.995148 
	C501.004913,146.995148 501.063538,146.942139 501.092957,146.915771 
z"/>
<path fill="#86DAFF" opacity="1.000000" stroke="none" 
	d="
M488.090942,133.916916 
	C488.453766,133.975235 488.721741,134.156998 488.993591,134.689178 
	C489.063538,134.942139 489.004913,134.995148 488.772705,134.903656 
	C488.248779,134.614059 488.070251,134.341721 488.004913,133.995148 
	C488.004913,133.995148 488.062195,133.942902 488.090942,133.916916 
z"/>
<path fill="#86DAFF" opacity="1.000000" stroke="none" 
	d="
M499.108368,144.880066 
	C499.446747,144.959259 499.713501,145.142593 500.008545,145.655090 
	C500.108368,145.880066 500.056610,145.937576 499.798553,145.874878 
	C499.248779,145.614059 499.070251,145.341721 499.030762,144.966370 
	C499.056610,144.937576 499.108368,144.880066 499.108368,144.880066 
z"/>
<path fill="#86DAFF" opacity="1.000000" stroke="none" 
	d="
M498.108368,143.880066 
	C498.446747,143.959259 498.713501,144.142593 499.008545,144.655090 
	C499.108368,144.880066 499.056610,144.937576 498.798553,144.874878 
	C498.248779,144.614059 498.070251,144.341721 498.030762,143.966370 
	C498.056610,143.937576 498.108368,143.880066 498.108368,143.880066 
z"/>
<path fill="#86DAFF" opacity="1.000000" stroke="none" 
	d="
M497.108368,142.880066 
	C497.446747,142.959259 497.713501,143.142593 498.008545,143.655090 
	C498.108368,143.880066 498.056610,143.937576 497.798553,143.874878 
	C497.248779,143.614059 497.070251,143.341721 497.030762,142.966370 
	C497.056610,142.937576 497.108368,142.880066 497.108368,142.880066 
z"/>
<path fill="#86DAFF" opacity="1.000000" stroke="none" 
	d="
M496.108368,141.880066 
	C496.446747,141.959259 496.713501,142.142593 497.008545,142.655090 
	C497.108368,142.880066 497.056610,142.937576 496.798553,142.874878 
	C496.248779,142.614059 496.070251,142.341721 496.030762,141.966370 
	C496.056610,141.937576 496.108368,141.880066 496.108368,141.880066 
z"/>
<path fill="#86DAFF" opacity="1.000000" stroke="none" 
	d="
M495.108368,140.880066 
	C495.446747,140.959259 495.713501,141.142593 496.008545,141.655090 
	C496.108368,141.880066 496.056610,141.937576 495.798553,141.874878 
	C495.248779,141.614059 495.070251,141.341721 495.030762,140.966370 
	C495.056610,140.937576 495.108368,140.880066 495.108368,140.880066 
z"/>
<path fill="#86DAFF" opacity="1.000000" stroke="none" 
	d="
M494.108368,139.880066 
	C494.446747,139.959259 494.713501,140.142593 495.008545,140.655090 
	C495.108368,140.880066 495.056610,140.937576 494.798553,140.874878 
	C494.248779,140.614059 494.070251,140.341721 494.030762,139.966370 
	C494.056610,139.937576 494.108368,139.880066 494.108368,139.880066 
z"/>
<path fill="#86DAFF" opacity="1.000000" stroke="none" 
	d="
M493.108368,138.880066 
	C493.446747,138.959259 493.713501,139.142593 494.008545,139.655090 
	C494.108368,139.880066 494.056610,139.937576 493.798553,139.874878 
	C493.248779,139.614059 493.070251,139.341721 493.030762,138.966370 
	C493.056610,138.937576 493.108368,138.880066 493.108368,138.880066 
z"/>
<path fill="#86DAFF" opacity="1.000000" stroke="none" 
	d="
M492.108368,137.880066 
	C492.446747,137.959259 492.713501,138.142593 493.008545,138.655090 
	C493.108368,138.880066 493.056610,138.937576 492.798553,138.874878 
	C492.248779,138.614059 492.070251,138.341721 492.030762,137.966370 
	C492.056610,137.937576 492.108368,137.880066 492.108368,137.880066 
z"/>
<path fill="#86DAFF" opacity="1.000000" stroke="none" 
	d="
M491.108368,136.880051 
	C491.446747,136.959259 491.713501,137.142624 492.008484,137.655106 
	C492.108368,137.880066 492.056610,137.937576 491.798553,137.874878 
	C491.248779,137.614059 491.070251,137.341721 491.030762,136.966354 
	C491.056610,136.937561 491.108368,136.880051 491.108368,136.880051 
z"/>
<path fill="#86DAFF" opacity="1.000000" stroke="none" 
	d="
M490.110107,135.877396 
	C490.447723,135.958572 490.713989,136.142792 491.008636,136.655060 
	C491.108368,136.880051 491.056610,136.937561 490.798553,136.874863 
	C490.248779,136.614059 490.070251,136.341721 490.031128,135.965668 
	C490.057373,135.936172 490.110107,135.877396 490.110107,135.877396 
z"/>
<path fill="#86DAFF" opacity="1.000000" stroke="none" 
	d="
M489.092957,134.915771 
	C489.450989,134.975891 489.713135,135.157990 490.009521,135.656525 
	C490.110107,135.877396 490.057373,135.936172 489.798950,135.874176 
	C489.248779,135.614059 489.070251,135.341721 489.004913,134.995148 
	C489.004913,134.995148 489.063538,134.942139 489.092957,134.915771 
z"/>
<path fill="#86DAFF" opacity="1.000000" stroke="none" 
	d="
M423.108368,68.880058 
	C423.382355,69.061440 423.656372,69.242821 423.996948,69.683167 
	C424.063538,69.942123 424.004913,69.995163 423.772675,69.903702 
	C423.248688,69.614120 423.070190,69.341759 423.030762,68.966370 
	C423.056610,68.937576 423.108368,68.880058 423.108368,68.880058 
z"/>
<path fill="#86DAFF" opacity="1.000000" stroke="none" 
	d="
M436.108368,81.880066 
	C436.382324,82.061569 436.656281,82.243073 436.996216,82.683739 
	C437.062195,82.942894 437.004913,82.995163 436.772675,82.903702 
	C436.248688,82.614120 436.070190,82.341759 436.030762,81.966370 
	C436.056610,81.937576 436.108368,81.880058 436.108368,81.880066 
z"/>
<path fill="#86DAFF" opacity="1.000000" stroke="none" 
	d="
M435.108368,80.880058 
	C435.446747,80.959244 435.713501,81.142593 436.008545,81.655075 
	C436.108368,81.880058 436.056610,81.937576 435.798523,81.874908 
	C435.248688,81.614120 435.070190,81.341759 435.030762,80.966370 
	C435.056610,80.937576 435.108368,80.880058 435.108368,80.880058 
z"/>
<path fill="#86DAFF" opacity="1.000000" stroke="none" 
	d="
M434.108368,79.880058 
	C434.446747,79.959244 434.713501,80.142593 435.008545,80.655075 
	C435.108368,80.880058 435.056610,80.937576 434.798523,80.874908 
	C434.248688,80.614120 434.070190,80.341759 434.030762,79.966370 
	C434.056610,79.937576 434.108368,79.880058 434.108368,79.880058 
z"/>
<path fill="#86DAFF" opacity="1.000000" stroke="none" 
	d="
M433.108368,78.880058 
	C433.446747,78.959244 433.713501,79.142593 434.008545,79.655075 
	C434.108368,79.880058 434.056610,79.937576 433.798523,79.874908 
	C433.248688,79.614120 433.070190,79.341759 433.030762,78.966370 
	C433.056610,78.937576 433.108368,78.880058 433.108368,78.880058 
z"/>
<path fill="#86DAFF" opacity="1.000000" stroke="none" 
	d="
M432.108368,77.880058 
	C432.446747,77.959244 432.713501,78.142593 433.008545,78.655075 
	C433.108368,78.880058 433.056610,78.937576 432.798523,78.874908 
	C432.248688,78.614120 432.070190,78.341759 432.030762,77.966370 
	C432.056610,77.937576 432.108368,77.880058 432.108368,77.880058 
z"/>
<path fill="#86DAFF" opacity="1.000000" stroke="none" 
	d="
M431.108368,76.880058 
	C431.446747,76.959244 431.713501,77.142593 432.008545,77.655075 
	C432.108368,77.880058 432.056610,77.937576 431.798523,77.874908 
	C431.248688,77.614120 431.070190,77.341759 431.030762,76.966370 
	C431.056610,76.937576 431.108368,76.880058 431.108368,76.880058 
z"/>
<path fill="#86DAFF" opacity="1.000000" stroke="none" 
	d="
M430.108368,75.880058 
	C430.446747,75.959244 430.713501,76.142593 431.008545,76.655075 
	C431.108368,76.880058 431.056610,76.937576 430.798523,76.874908 
	C430.248688,76.614120 430.070190,76.341759 430.030762,75.966370 
	C430.056610,75.937576 430.108368,75.880058 430.108368,75.880058 
z"/>
<path fill="#86DAFF" opacity="1.000000" stroke="none" 
	d="
M429.108368,74.880058 
	C429.446747,74.959244 429.713501,75.142593 430.008545,75.655075 
	C430.108368,75.880058 430.056610,75.937576 429.798523,75.874908 
	C429.248688,75.614120 429.070190,75.341759 429.030762,74.966370 
	C429.056610,74.937576 429.108368,74.880058 429.108368,74.880058 
z"/>
<path fill="#86DAFF" opacity="1.000000" stroke="none" 
	d="
M428.108368,73.880058 
	C428.446747,73.959244 428.713501,74.142593 429.008545,74.655075 
	C429.108368,74.880058 429.056610,74.937576 428.798523,74.874908 
	C428.248688,74.614120 428.070190,74.341759 428.030762,73.966370 
	C428.056610,73.937576 428.108368,73.880058 428.108368,73.880058 
z"/>
<path fill="#86DAFF" opacity="1.000000" stroke="none" 
	d="
M427.108368,72.880058 
	C427.446747,72.959244 427.713501,73.142593 428.008545,73.655075 
	C428.108368,73.880058 428.056610,73.937576 427.798523,73.874908 
	C427.248688,73.614120 427.070190,73.341759 427.030762,72.966370 
	C427.056610,72.937576 427.108368,72.880058 427.108368,72.880058 
z"/>
<path fill="#86DAFF" opacity="1.000000" stroke="none" 
	d="
M426.108368,71.880058 
	C426.446747,71.959244 426.713501,72.142593 427.008545,72.655075 
	C427.108368,72.880058 427.056610,72.937576 426.798523,72.874908 
	C426.248688,72.614120 426.070190,72.341759 426.030762,71.966370 
	C426.056610,71.937576 426.108368,71.880058 426.108368,71.880058 
z"/>
<path fill="#86DAFF" opacity="1.000000" stroke="none" 
	d="
M425.110077,70.877350 
	C425.447662,70.958565 425.713928,71.142815 426.008606,71.655075 
	C426.108368,71.880058 426.056610,71.937576 425.798523,71.874908 
	C425.248688,71.614120 425.070190,71.341759 425.031128,70.965652 
	C425.057373,70.936150 425.110077,70.877350 425.110077,70.877350 
z"/>
<path fill="#86DAFF" opacity="1.000000" stroke="none" 
	d="
M424.092957,69.915741 
	C424.450928,69.975906 424.713074,70.157997 425.009460,70.656479 
	C425.110077,70.877350 425.057373,70.936150 424.798889,70.874191 
	C424.248688,70.614120 424.070190,70.341759 424.004913,69.995163 
	C424.004913,69.995163 424.063538,69.942123 424.092957,69.915741 
z"/>
<path fill="#86DAFF" opacity="1.000000" stroke="none" 
	d="
M437.090942,82.916878 
	C437.453705,82.975182 437.721680,83.156952 437.993561,83.689163 
	C438.063599,83.942154 438.004913,83.995087 437.772705,83.903625 
	C437.248718,83.614082 437.070190,83.341751 437.004913,82.995163 
	C437.004913,82.995163 437.062195,82.942894 437.090942,82.916878 
z"/>
<path fill="#86DAFF" opacity="1.000000" stroke="none" 
	d="
M422.108368,67.880058 
	C422.446747,67.959244 422.713501,68.142593 423.008545,68.655075 
	C423.108368,68.880058 423.056610,68.937576 422.798523,68.874908 
	C422.248688,68.614120 422.070190,68.341759 422.030762,67.966370 
	C422.056610,67.937576 422.108368,67.880058 422.108368,67.880058 
z"/>
<path fill="#86DAFF" opacity="1.000000" stroke="none" 
	d="
M421.108368,66.880058 
	C421.446747,66.959244 421.713501,67.142593 422.008545,67.655075 
	C422.108368,67.880058 422.056610,67.937576 421.798523,67.874908 
	C421.248688,67.614120 421.070190,67.341759 421.030762,66.966370 
	C421.056610,66.937576 421.108368,66.880058 421.108368,66.880058 
z"/>
<path fill="#86DAFF" opacity="1.000000" stroke="none" 
	d="
M420.108368,65.880058 
	C420.446747,65.959244 420.713501,66.142593 421.008545,66.655075 
	C421.108368,66.880058 421.056610,66.937576 420.798523,66.874908 
	C420.248688,66.614120 420.070190,66.341759 420.030762,65.966370 
	C420.056610,65.937576 420.108368,65.880058 420.108368,65.880058 
z"/>
<path fill="#86DAFF" opacity="1.000000" stroke="none" 
	d="
M419.108368,64.880058 
	C419.446747,64.959244 419.713501,65.142593 420.008545,65.655075 
	C420.108368,65.880058 420.056610,65.937576 419.798523,65.874908 
	C419.248688,65.614120 419.070190,65.341759 419.030762,64.966370 
	C419.056610,64.937576 419.108368,64.880058 419.108368,64.880058 
z"/>
<path fill="#86DAFF" opacity="1.000000" stroke="none" 
	d="
M418.108368,63.880085 
	C418.446777,63.959255 418.713562,64.142593 419.008545,64.655075 
	C419.108368,64.880058 419.056610,64.937576 418.798523,64.874893 
	C418.248718,64.614090 418.070221,64.341736 418.030762,63.966377 
	C418.056610,63.937592 418.108368,63.880085 418.108368,63.880085 
z"/>
<path fill="#86DAFF" opacity="1.000000" stroke="none" 
	d="
M417.108368,62.880085 
	C417.446747,62.959282 417.713501,63.142632 418.008514,63.655113 
	C418.108368,63.880085 418.056610,63.937592 417.798523,63.874905 
	C417.248718,63.614090 417.070221,63.341740 417.030762,62.966377 
	C417.056610,62.937592 417.108368,62.880085 417.108368,62.880085 
z"/>
<path fill="#86DAFF" opacity="1.000000" stroke="none" 
	d="
M416.108368,61.880085 
	C416.446747,61.959282 416.713501,62.142632 417.008514,62.655113 
	C417.108368,62.880085 417.056610,62.937592 416.798523,62.874905 
	C416.248718,62.614090 416.070221,62.341740 416.030762,61.966377 
	C416.056610,61.937592 416.108368,61.880085 416.108368,61.880085 
z"/>
<path fill="#86DAFF" opacity="1.000000" stroke="none" 
	d="
M415.108368,60.880085 
	C415.446747,60.959282 415.713501,61.142632 416.008514,61.655113 
	C416.108368,61.880085 416.056610,61.937592 415.798523,61.874905 
	C415.248718,61.614090 415.070221,61.341740 415.030762,60.966377 
	C415.056610,60.937592 415.108368,60.880085 415.108368,60.880085 
z"/>
<path fill="#86DAFF" opacity="1.000000" stroke="none" 
	d="
M414.108368,59.880085 
	C414.446747,59.959282 414.713501,60.142632 415.008514,60.655113 
	C415.108368,60.880085 415.056610,60.937592 414.798523,60.874905 
	C414.248718,60.614090 414.070221,60.341740 414.030762,59.966377 
	C414.056610,59.937592 414.108368,59.880085 414.108368,59.880085 
z"/>
<path fill="#86DAFF" opacity="1.000000" stroke="none" 
	d="
M413.108368,58.880085 
	C413.446747,58.959282 413.713501,59.142632 414.008514,59.655113 
	C414.108368,59.880085 414.056610,59.937592 413.798523,59.874905 
	C413.248718,59.614090 413.070221,59.341740 413.030762,58.966377 
	C413.056610,58.937592 413.108368,58.880085 413.108368,58.880085 
z"/>
<path fill="#86DAFF" opacity="1.000000" stroke="none" 
	d="
M412.108368,57.880062 
	C412.446747,57.959263 412.713501,58.142620 413.008514,58.655109 
	C413.108368,58.880085 413.056610,58.937592 412.798523,58.874905 
	C412.248718,58.614090 412.070221,58.341740 412.030762,57.966370 
	C412.056610,57.937576 412.108368,57.880062 412.108368,57.880062 
z"/>
<path fill="#86DAFF" opacity="1.000000" stroke="none" 
	d="
M411.110107,56.877293 
	C411.447662,56.958565 411.713898,57.142830 412.008606,57.655075 
	C412.108368,57.880062 412.056610,57.937576 411.798523,57.874901 
	C411.248718,57.614098 411.070221,57.341747 411.031158,56.965660 
	C411.057404,56.936150 411.110107,56.877293 411.110107,56.877293 
z"/>
<path fill="#86DAFF" opacity="1.000000" stroke="none" 
	d="
M450.108368,95.880066 
	C450.382355,96.061447 450.656372,96.242828 450.996948,96.683167 
	C451.063538,96.942123 451.004913,96.995163 450.772675,96.903702 
	C450.248688,96.614120 450.070190,96.341759 450.030762,95.966370 
	C450.056610,95.937576 450.108368,95.880058 450.108368,95.880066 
z"/>
<path fill="#86DAFF" opacity="1.000000" stroke="none" 
	d="
M462.108368,107.880058 
	C462.446747,107.959244 462.713501,108.142593 463.008545,108.655075 
	C463.108368,108.880058 463.056610,108.937576 462.798523,108.874908 
	C462.248688,108.614120 462.070190,108.341759 462.030762,107.966370 
	C462.056610,107.937576 462.108368,107.880058 462.108368,107.880058 
z"/>
<path fill="#86DAFF" opacity="1.000000" stroke="none" 
	d="
M461.108368,106.880058 
	C461.446747,106.959244 461.713501,107.142593 462.008545,107.655075 
	C462.108368,107.880058 462.056610,107.937576 461.798523,107.874908 
	C461.248688,107.614120 461.070190,107.341759 461.030762,106.966370 
	C461.056610,106.937576 461.108368,106.880058 461.108368,106.880058 
z"/>
<path fill="#86DAFF" opacity="1.000000" stroke="none" 
	d="
M460.108368,105.880058 
	C460.446747,105.959244 460.713501,106.142593 461.008545,106.655075 
	C461.108368,106.880058 461.056610,106.937576 460.798523,106.874908 
	C460.248688,106.614120 460.070190,106.341759 460.030762,105.966370 
	C460.056610,105.937576 460.108368,105.880058 460.108368,105.880058 
z"/>
<path fill="#86DAFF" opacity="1.000000" stroke="none" 
	d="
M459.108368,104.880058 
	C459.446747,104.959244 459.713501,105.142593 460.008545,105.655075 
	C460.108368,105.880058 460.056610,105.937576 459.798523,105.874908 
	C459.248688,105.614120 459.070190,105.341759 459.030762,104.966370 
	C459.056610,104.937576 459.108368,104.880058 459.108368,104.880058 
z"/>
<path fill="#86DAFF" opacity="1.000000" stroke="none" 
	d="
M458.108368,103.880058 
	C458.446747,103.959244 458.713501,104.142593 459.008545,104.655075 
	C459.108368,104.880058 459.056610,104.937576 458.798523,104.874908 
	C458.248688,104.614120 458.070190,104.341759 458.030762,103.966370 
	C458.056610,103.937576 458.108368,103.880058 458.108368,103.880058 
z"/>
<path fill="#86DAFF" opacity="1.000000" stroke="none" 
	d="
M457.108368,102.880058 
	C457.446747,102.959244 457.713501,103.142593 458.008545,103.655075 
	C458.108368,103.880058 458.056610,103.937576 457.798523,103.874908 
	C457.248688,103.614120 457.070190,103.341759 457.030762,102.966370 
	C457.056610,102.937576 457.108368,102.880058 457.108368,102.880058 
z"/>
<path fill="#86DAFF" opacity="1.000000" stroke="none" 
	d="
M456.108368,101.880058 
	C456.446747,101.959244 456.713501,102.142593 457.008545,102.655075 
	C457.108368,102.880058 457.056610,102.937576 456.798523,102.874908 
	C456.248688,102.614120 456.070190,102.341759 456.030762,101.966370 
	C456.056610,101.937576 456.108368,101.880058 456.108368,101.880058 
z"/>
<path fill="#86DAFF" opacity="1.000000" stroke="none" 
	d="
M455.108368,100.880058 
	C455.446747,100.959244 455.713501,101.142593 456.008545,101.655075 
	C456.108368,101.880058 456.056610,101.937576 455.798523,101.874908 
	C455.248688,101.614120 455.070190,101.341759 455.030762,100.966370 
	C455.056610,100.937576 455.108368,100.880058 455.108368,100.880058 
z"/>
<path fill="#86DAFF" opacity="1.000000" stroke="none" 
	d="
M454.108368,99.880058 
	C454.446747,99.959244 454.713501,100.142593 455.008545,100.655075 
	C455.108368,100.880058 455.056610,100.937576 454.798523,100.874908 
	C454.248688,100.614120 454.070190,100.341759 454.030762,99.966370 
	C454.056610,99.937576 454.108368,99.880058 454.108368,99.880058 
z"/>
<path fill="#86DAFF" opacity="1.000000" stroke="none" 
	d="
M453.108368,98.880058 
	C453.446747,98.959244 453.713501,99.142593 454.008545,99.655075 
	C454.108368,99.880058 454.056610,99.937576 453.798523,99.874908 
	C453.248688,99.614120 453.070190,99.341759 453.030762,98.966370 
	C453.056610,98.937576 453.108368,98.880058 453.108368,98.880058 
z"/>
<path fill="#86DAFF" opacity="1.000000" stroke="none" 
	d="
M452.110077,97.877350 
	C452.447662,97.958565 452.713928,98.142815 453.008606,98.655075 
	C453.108368,98.880058 453.056610,98.937576 452.798523,98.874908 
	C452.248688,98.614120 452.070190,98.341759 452.031128,97.965652 
	C452.057373,97.936150 452.110077,97.877350 452.110077,97.877350 
z"/>
<path fill="#86DAFF" opacity="1.000000" stroke="none" 
	d="
M451.092957,96.915741 
	C451.450928,96.975906 451.713074,97.157997 452.009460,97.656479 
	C452.110077,97.877350 452.057373,97.936150 451.798889,97.874191 
	C451.248688,97.614120 451.070190,97.341759 451.004913,96.995163 
	C451.004913,96.995163 451.063538,96.942123 451.092957,96.915741 
z"/>
<path fill="#86DAFF" opacity="1.000000" stroke="none" 
	d="
M410.093079,55.915649 
	C410.450989,55.975876 410.713104,56.158005 411.009491,56.656452 
	C411.110107,56.877293 411.057404,56.936150 410.798920,56.874207 
	C410.248657,56.614166 410.070129,56.341805 410.004913,55.995178 
	C410.004913,55.995178 410.063629,55.942081 410.093079,55.915649 
z"/>
<path fill="#86DAFF" opacity="1.000000" stroke="none" 
	d="
M449.108368,94.880058 
	C449.446747,94.959244 449.713501,95.142593 450.008545,95.655075 
	C450.108368,95.880058 450.056610,95.937576 449.798523,95.874908 
	C449.248688,95.614120 449.070190,95.341759 449.030762,94.966370 
	C449.056610,94.937576 449.108368,94.880058 449.108368,94.880058 
z"/>
<path fill="#86DAFF" opacity="1.000000" stroke="none" 
	d="
M448.108368,93.880058 
	C448.446747,93.959244 448.713501,94.142593 449.008545,94.655075 
	C449.108368,94.880058 449.056610,94.937576 448.798523,94.874908 
	C448.248688,94.614120 448.070190,94.341759 448.030762,93.966370 
	C448.056610,93.937576 448.108368,93.880058 448.108368,93.880058 
z"/>
<path fill="#86DAFF" opacity="1.000000" stroke="none" 
	d="
M447.108368,92.880058 
	C447.446747,92.959244 447.713501,93.142593 448.008545,93.655075 
	C448.108368,93.880058 448.056610,93.937576 447.798523,93.874908 
	C447.248688,93.614120 447.070190,93.341759 447.030762,92.966370 
	C447.056610,92.937576 447.108368,92.880058 447.108368,92.880058 
z"/>
<path fill="#86DAFF" opacity="1.000000" stroke="none" 
	d="
M446.108368,91.880058 
	C446.446747,91.959244 446.713501,92.142593 447.008545,92.655075 
	C447.108368,92.880058 447.056610,92.937576 446.798523,92.874908 
	C446.248688,92.614120 446.070190,92.341759 446.030762,91.966370 
	C446.056610,91.937576 446.108368,91.880058 446.108368,91.880058 
z"/>
<path fill="#86DAFF" opacity="1.000000" stroke="none" 
	d="
M445.108368,90.880058 
	C445.446747,90.959244 445.713501,91.142593 446.008545,91.655075 
	C446.108368,91.880058 446.056610,91.937576 445.798523,91.874908 
	C445.248688,91.614120 445.070190,91.341759 445.030762,90.966370 
	C445.056610,90.937576 445.108368,90.880058 445.108368,90.880058 
z"/>
<path fill="#86DAFF" opacity="1.000000" stroke="none" 
	d="
M444.108368,89.880058 
	C444.446747,89.959244 444.713501,90.142593 445.008545,90.655075 
	C445.108368,90.880058 445.056610,90.937576 444.798523,90.874908 
	C444.248688,90.614120 444.070190,90.341759 444.030762,89.966370 
	C444.056610,89.937576 444.108368,89.880058 444.108368,89.880058 
z"/>
<path fill="#86DAFF" opacity="1.000000" stroke="none" 
	d="
M443.108368,88.880058 
	C443.446747,88.959244 443.713501,89.142593 444.008545,89.655075 
	C444.108368,89.880058 444.056610,89.937576 443.798523,89.874908 
	C443.248688,89.614120 443.070190,89.341759 443.030762,88.966370 
	C443.056610,88.937576 443.108368,88.880058 443.108368,88.880058 
z"/>
<path fill="#86DAFF" opacity="1.000000" stroke="none" 
	d="
M442.108368,87.880058 
	C442.446747,87.959244 442.713501,88.142593 443.008545,88.655075 
	C443.108368,88.880058 443.056610,88.937576 442.798523,88.874908 
	C442.248688,88.614120 442.070190,88.341759 442.030762,87.966370 
	C442.056610,87.937576 442.108368,87.880058 442.108368,87.880058 
z"/>
<path fill="#86DAFF" opacity="1.000000" stroke="none" 
	d="
M441.108368,86.880058 
	C441.446747,86.959244 441.713501,87.142593 442.008545,87.655075 
	C442.108368,87.880058 442.056610,87.937576 441.798523,87.874908 
	C441.248688,87.614120 441.070190,87.341759 441.030762,86.966370 
	C441.056610,86.937576 441.108368,86.880058 441.108368,86.880058 
z"/>
<path fill="#86DAFF" opacity="1.000000" stroke="none" 
	d="
M440.108368,85.880058 
	C440.446747,85.959244 440.713501,86.142593 441.008545,86.655075 
	C441.108368,86.880058 441.056610,86.937576 440.798523,86.874908 
	C440.248688,86.614120 440.070190,86.341759 440.030762,85.966370 
	C440.056610,85.937576 440.108368,85.880058 440.108368,85.880058 
z"/>
<path fill="#86DAFF" opacity="1.000000" stroke="none" 
	d="
M439.110077,84.877350 
	C439.447662,84.958565 439.713928,85.142815 440.008606,85.655075 
	C440.108368,85.880058 440.056610,85.937576 439.798523,85.874908 
	C439.248688,85.614120 439.070190,85.341759 439.031128,84.965652 
	C439.057373,84.936150 439.110077,84.877350 439.110077,84.877350 
z"/>
<path fill="#86DAFF" opacity="1.000000" stroke="none" 
	d="
M438.092957,83.915726 
	C438.450867,83.975838 438.713043,84.157928 439.009460,84.656464 
	C439.110077,84.877350 439.057373,84.936150 438.798889,84.874191 
	C438.248657,84.614113 438.070129,84.341736 438.004913,83.995087 
	C438.004913,83.995087 438.063599,83.942154 438.092957,83.915726 
z"/>
<path fill="#A5E9FF" opacity="1.000000" stroke="none" 
	d="
M437.772705,83.903625 
	C438.070129,84.341736 438.248657,84.614113 438.772675,84.903702 
	C439.070190,85.341759 439.248688,85.614120 439.772675,85.903702 
	C440.070190,86.341759 440.248688,86.614120 440.772675,86.903702 
	C441.070190,87.341759 441.248688,87.614120 441.772675,87.903702 
	C442.070190,88.341759 442.248688,88.614120 442.772675,88.903702 
	C443.070190,89.341759 443.248688,89.614120 443.772675,89.903702 
	C444.070190,90.341759 444.248688,90.614120 444.772675,90.903702 
	C445.070190,91.341759 445.248688,91.614120 445.772675,91.903702 
	C446.070190,92.341759 446.248688,92.614120 446.772675,92.903702 
	C447.070190,93.341759 447.248688,93.614120 447.772675,93.903702 
	C448.070190,94.341759 448.248688,94.614120 448.772675,94.903702 
	C449.070190,95.341759 449.248688,95.614120 449.772675,95.903702 
	C450.070190,96.341759 450.248688,96.614120 450.772675,96.903702 
	C451.070190,97.341759 451.248688,97.614120 451.772675,97.903702 
	C452.070190,98.341759 452.248688,98.614120 452.772675,98.903702 
	C453.070190,99.341759 453.248688,99.614120 453.772675,99.903702 
	C454.070190,100.341759 454.248688,100.614120 454.772675,100.903702 
	C455.070190,101.341759 455.248688,101.614120 455.772675,101.903702 
	C456.070190,102.341759 456.248688,102.614120 456.772675,102.903702 
	C457.070190,103.341759 457.248688,103.614120 457.772675,103.903702 
	C458.070190,104.341759 458.248688,104.614120 458.772675,104.903702 
	C459.070190,105.341759 459.248688,105.614120 459.772675,105.903702 
	C460.070190,106.341759 460.248688,106.614120 460.772675,106.903702 
	C461.070190,107.341759 461.248688,107.614120 461.772675,107.903702 
	C462.070190,108.341759 462.248688,108.614120 462.772675,108.903702 
	C463.070190,109.341759 463.248688,109.614120 463.772675,109.903702 
	C464.070190,110.341759 464.248688,110.614120 464.772675,110.903702 
	C465.070190,111.341759 465.248688,111.614120 465.772675,111.903702 
	C466.070190,112.341759 466.248688,112.614120 466.772675,112.903702 
	C467.070190,113.341759 467.248688,113.614120 467.772675,113.903702 
	C468.070190,114.341759 468.248688,114.614120 468.772675,114.903702 
	C469.070190,115.341759 469.248688,115.614120 469.772675,115.903702 
	C470.070190,116.341759 470.248688,116.614120 470.772675,116.903702 
	C471.070190,117.341759 471.248688,117.614120 471.772675,117.903702 
	C472.070190,118.341759 472.248688,118.614120 472.772675,118.903702 
	C473.070190,119.341759 473.248688,119.614120 473.772675,119.903702 
	C474.070190,120.341759 474.248688,120.614120 474.772675,120.903702 
	C475.070190,121.341759 475.248688,121.614120 475.772675,121.903702 
	C476.070190,122.341759 476.248688,122.614120 476.772675,122.903702 
	C477.070190,123.341759 477.248688,123.614120 477.772675,123.903702 
	C478.070190,124.341759 478.248688,124.614120 478.772675,124.903702 
	C479.070190,125.341759 479.248688,125.614120 479.772675,125.903702 
	C480.070190,126.341759 480.248688,126.614120 480.772675,126.903702 
	C481.070190,127.341759 481.248688,127.614120 481.772675,127.903702 
	C482.070129,128.341782 482.248657,128.614136 482.772675,128.903702 
	C483.070251,129.341721 483.248779,129.614059 483.772705,129.903656 
	C484.070251,130.341721 484.248779,130.614059 484.772705,130.903656 
	C485.070251,131.341721 485.248779,131.614059 485.772705,131.903656 
	C486.070251,132.341721 486.248779,132.614059 486.772705,132.903656 
	C487.070251,133.341721 487.248779,133.614059 487.772705,133.903656 
	C488.070251,134.341721 488.248779,134.614059 488.772705,134.903656 
	C489.070251,135.341721 489.248779,135.614059 489.772705,135.903656 
	C490.070251,136.341721 490.248779,136.614059 490.772705,136.903656 
	C491.070251,137.341721 491.248779,137.614059 491.772705,137.903656 
	C492.070251,138.341721 492.248779,138.614059 492.772705,138.903656 
	C493.070251,139.341721 493.248779,139.614059 493.772705,139.903656 
	C494.070251,140.341721 494.248779,140.614059 494.772705,140.903656 
	C495.070251,141.341721 495.248779,141.614059 495.772705,141.903656 
	C496.070251,142.341721 496.248779,142.614059 496.772705,142.903656 
	C497.070251,143.341721 497.248779,143.614059 497.772705,143.903656 
	C498.070251,144.341721 498.248779,144.614059 498.772705,144.903656 
	C499.070251,145.341721 499.248779,145.614059 499.772705,145.903656 
	C500.070251,146.341721 500.248779,146.614059 500.772705,146.903656 
	C501.070251,147.341721 501.248779,147.614059 501.772705,147.903656 
	C502.070251,148.341721 502.248779,148.614059 502.772705,148.903656 
	C503.070251,149.341721 503.248779,149.614059 503.772705,149.903656 
	C504.070251,150.341721 504.248779,150.614059 504.772705,150.903656 
	C505.070251,151.341721 505.248779,151.614059 505.772705,151.903656 
	C506.070251,152.341721 506.248779,152.614059 506.772705,152.903656 
	C507.070251,153.341721 507.248779,153.614059 507.772705,153.903656 
	C508.070251,154.341721 508.248779,154.614090 508.772705,154.903687 
	C509.070190,155.341751 509.248688,155.614120 509.772644,155.903717 
	C510.070129,156.341797 510.248596,156.614197 510.772614,156.903793 
	C511.070160,157.342377 511.249054,157.614990 511.774475,157.904007 
	C510.221649,158.663330 508.437317,159.911148 506.650146,159.915329 
	C460.748749,160.022537 414.847015,159.999954 368.477509,160.000519 
	C375.564056,139.299316 383.095856,118.589241 390.680634,97.898598 
	C395.873932,83.731636 401.141022,69.591721 406.622589,55.187782 
	C407.344513,54.961391 407.818939,54.986931 408.649231,55.002914 
	C409.069763,55.340519 409.248108,55.613377 409.772491,55.903557 
	C410.070129,56.341805 410.248657,56.614166 410.772675,56.903717 
	C411.070221,57.341747 411.248718,57.614098 411.772705,57.903690 
	C412.070221,58.341740 412.248718,58.614090 412.772705,58.903687 
	C413.070221,59.341740 413.248718,59.614090 413.772705,59.903687 
	C414.070221,60.341740 414.248718,60.614090 414.772705,60.903687 
	C415.070221,61.341740 415.248718,61.614090 415.772705,61.903687 
	C416.070221,62.341740 416.248718,62.614090 416.772705,62.903687 
	C417.070221,63.341740 417.248718,63.614090 417.772705,63.903687 
	C418.070221,64.341736 418.248718,64.614090 418.772705,64.903687 
	C419.070190,65.341759 419.248688,65.614120 419.772675,65.903702 
	C420.070190,66.341759 420.248688,66.614120 420.772675,66.903702 
	C421.070190,67.341759 421.248688,67.614120 421.772675,67.903702 
	C422.070190,68.341759 422.248688,68.614120 422.772675,68.903702 
	C423.070190,69.341759 423.248688,69.614120 423.772675,69.903702 
	C424.070190,70.341759 424.248688,70.614120 424.772675,70.903702 
	C425.070190,71.341759 425.248688,71.614120 425.772675,71.903702 
	C426.070190,72.341759 426.248688,72.614120 426.772675,72.903702 
	C427.070190,73.341759 427.248688,73.614120 427.772675,73.903702 
	C428.070190,74.341759 428.248688,74.614120 428.772675,74.903702 
	C429.070190,75.341759 429.248688,75.614120 429.772675,75.903702 
	C430.070190,76.341759 430.248688,76.614120 430.772675,76.903702 
	C431.070190,77.341759 431.248688,77.614120 431.772675,77.903702 
	C432.070190,78.341759 432.248688,78.614120 432.772675,78.903702 
	C433.070190,79.341759 433.248688,79.614120 433.772675,79.903702 
	C434.070190,80.341759 434.248688,80.614120 434.772675,80.903702 
	C435.070190,81.341759 435.248688,81.614120 435.772675,81.903702 
	C436.070190,82.341759 436.248688,82.614120 436.772675,82.903702 
	C437.070190,83.341751 437.248718,83.614082 437.772705,83.903625 
z"/>
<path fill="#86DAFF" opacity="1.000000" stroke="none" 
	d="
M147.475571,159.985458 
	C153.772903,153.137939 160.416107,146.156250 167.333542,139.457748 
	C176.421829,130.657089 185.784943,122.140961 194.925446,113.393356 
	C215.019928,94.162598 235.048126,74.862579 255.108582,55.596237 
	C255.583099,55.140518 256.118835,54.748543 256.929138,54.074818 
	C258.043365,55.024815 259.192139,55.906971 260.230591,56.904007 
	C280.294281,76.166931 300.346649,95.441666 320.398041,114.717407 
	C335.881592,129.601974 351.360565,144.491272 366.940430,159.705048 
	C294.007324,160.013504 220.975388,159.995392 147.475571,159.985458 
z"/>
</svg>