<?xml version="1.0" encoding="UTF-8"?>
<!DOCTYPE svg PUBLIC "-//W3C//DTD SVG 1.1//EN" "http://www.w3.org/Graphics/SVG/1.1/DTD/svg11.dtd">
<!-- Creator: CorelDRAW 2021 (64-Bit) -->
<svg xmlns="http://www.w3.org/2000/svg" xml:space="preserve" width="15in" height="15in" version="1.1" style="shape-rendering:geometricPrecision; text-rendering:geometricPrecision; image-rendering:optimizeQuality; fill-rule:evenodd; clip-rule:evenodd"
viewBox="0 0 15000 15000"
 xmlns:xlink="http://www.w3.org/1999/xlink"
 xmlns:xodm="http://www.corel.com/coreldraw/odm/2003">
 <defs>
  <style type="text/css">
   <![CDATA[
    .str0 {stroke:black;stroke-width:13.89;stroke-linecap:round;stroke-linejoin:round;stroke-miterlimit:2.61313}
    .fil24 {fill:none}
    .fil25 {fill:#2063F2}
    .fil0 {fill:white}
    .fil14 {fill:black;fill-rule:nonzero}
    .fil11 {fill:#2063F2;fill-rule:nonzero}
    .fil7 {fill:#263238;fill-rule:nonzero}
    .fil20 {fill:#DE5753;fill-rule:nonzero}
    .fil4 {fill:#E0E0E0;fill-rule:nonzero}
    .fil18 {fill:#E4897B;fill-rule:nonzero}
    .fil2 {fill:#E6E6E6;fill-rule:nonzero}
    .fil1 {fill:#EBEBEB;fill-rule:nonzero}
    .fil3 {fill:#F0F0F0;fill-rule:nonzero}
    .fil6 {fill:whitesmoke;fill-rule:nonzero}
    .fil5 {fill:#FAFAFA;fill-rule:nonzero}
    .fil10 {fill:white;fill-rule:nonzero}
    .fil22 {fill:black;fill-rule:nonzero;fill-opacity:0.039216}
    .fil17 {fill:white;fill-rule:nonzero;fill-opacity:0.039216}
    .fil23 {fill:black;fill-rule:nonzero;fill-opacity:0.090196}
    .fil21 {fill:white;fill-rule:nonzero;fill-opacity:0.101961}
    .fil13 {fill:black;fill-rule:nonzero;fill-opacity:0.200000}
    .fil8 {fill:white;fill-rule:nonzero;fill-opacity:0.200000}
    .fil16 {fill:white;fill-rule:nonzero;fill-opacity:0.301961}
    .fil15 {fill:black;fill-rule:nonzero;fill-opacity:0.400000}
    .fil19 {fill:white;fill-rule:nonzero;fill-opacity:0.400000}
    .fil9 {fill:white;fill-rule:nonzero;fill-opacity:0.600000}
    .fil12 {fill:white;fill-rule:nonzero;fill-opacity:0.800000}
   ]]>
  </style>
   <clipPath id="id0">
    <path d="M2148.55 1553.81l10702.91 0c547.87,0 996.11,448.24 996.11,996.11l0 11384.52c0,547.86 -448.24,996.11 -996.11,996.11l-10702.91 0c-547.86,0 -996.11,-448.24 -996.11,-996.11l0 -11384.52c0,-547.86 448.24,-996.11 996.11,-996.11z"/>
   </clipPath>
   <clipPath id="id1">
    <path d="M7499.81 69.43c837.54,0 1516.5,678.96 1516.5,1516.5 0,837.54 -678.96,1516.5 -1516.5,1516.5 -837.54,0 -1516.5,-678.96 -1516.5,-1516.5 0,-837.54 678.96,-1516.5 1516.5,-1516.5z"/>
   </clipPath>
    <clipPath id="id2">
     <path d="M8680.31 634.08c48.67,60.28 92.83,124.33 131.94,191.69l0 1520.32c-78.63,135.47 -177.6,257.68 -292.78,362.37l-2039.33 0c-100.12,-91 -187.96,-195.24 -260.89,-309.9l0 -1625.27c30.75,-48.34 64.19,-94.8 100.06,-139.22l2360.99 0z"/>
    </clipPath>
    <clipPath id="id3">
     <path d="M7499.81 69.43c837.54,0 1516.5,678.96 1516.5,1516.5 0,837.54 -678.96,1516.5 -1516.5,1516.5 -837.54,0 -1516.5,-678.96 -1516.5,-1516.5 0,-837.54 678.96,-1516.5 1516.5,-1516.5z"/>
    </clipPath>
 </defs>
 <g id="Layer_x0020_1">
  <metadata id="CorelCorpID_0Corel-Layer"/>
  <path class="fil0" d="M2148.55 1553.81l10702.91 0c547.87,0 996.11,448.24 996.11,996.11l0 11384.52c0,547.86 -448.24,996.11 -996.11,996.11l-10702.91 0c-547.86,0 -996.11,-448.24 -996.11,-996.11l0 -11384.52c0,-547.86 448.24,-996.11 996.11,-996.11z"/>
  <g style="clip-path:url(#id0)">
   <g id="_1607160123712">
    <g>
     <g id="freepik--background-complete--inject-55">
      <rect class="fil1" x="-142.7" y="12163.98" width="15231.08" height="7.62"/>
      <rect class="fil1" x="12553.31" y="12654.12" width="1008.91" height="7.62"/>
      <rect class="fil1" x="9682.26" y="12736.97" width="264.71" height="7.62"/>
      <rect class="fil1" x="11938.29" y="12371.43" width="584.57" height="7.62"/>
      <rect class="fil1" x="1455.34" y="12422.61" width="1315.66" height="7.62"/>
      <rect class="fil1" x="3042.42" y="12422.61" width="192.83" height="7.62"/>
      <rect class="fil1" x="3862.16" y="12551.16" width="2853.69" height="7.62"/>
      <path class="fil1" d="M7076.83 10805.37l-5881.94 0c-95.93,-0.15 -173.62,-78 -173.62,-173.94 0,0 0,0 0,0l-0.01 -8268.34c0.82,-95.35 78.29,-172.27 173.64,-172.41l5881.93 0c96.06,0 173.94,77.89 173.94,173.94l-0.01 8266.82c0.01,96.04 -77.88,173.93 -173.93,173.93l-0 0zm-5881.94 -8608.6c-91.7,0.16 -166,74.6 -166,166.32 0,0 0,0 0,0l-0.02 8268.35c0.02,-0.01 0.02,-0.01 0.02,-0.01 0,91.72 74.3,166.16 166.02,166.32l5881.93 0.01c91.8,-0.18 166.17,-74.55 166.33,-166.34l-0.01 -8268.33c-0.15,-91.79 -74.52,-166.16 -166.31,-166.32l-5881.94 0z"/>
      <path class="fil1" d="M13666.1 10805.37l-5882.24 0c-95.98,-0.15 -173.8,-77.97 -173.94,-173.95l0 -8268.33c0.99,-95.39 78.56,-172.27 173.94,-172.41l5882.24 0c95.21,0.31 172.51,77.19 173.33,172.41l-0.01 8268.35c0,-0.01 0,-0.01 0,-0.01 0,95.82 -77.51,173.63 -173.33,173.94zm-5882.24 -8608.6c-91.79,0.16 -166.16,74.53 -166.32,166.32l-0.01 8268.35c0.17,91.78 74.54,166.15 166.33,166.31l5882.24 0.02c91.78,-0.18 166.15,-74.55 166.31,-166.34l0.01 -8268.33c-0.17,-91.79 -74.54,-166.16 -166.33,-166.32l-5882.24 0z"/>
      <path class="fil2" d="M3027.49 4972.18c0,0 -35.94,-235.17 135.86,-386.26 171.8,-151.09 156.58,-240.65 107.54,-252.23 -49.04,-11.57 -94.43,139.21 -169.67,180.64 0,0 -2.43,-215.06 74.03,-294.26 76.46,-79.2 116.97,-283.3 44.17,-286.96 -72.81,-3.66 -80.73,121.85 -95.65,209.58 -14.93,87.73 -96.26,213.24 -96.26,213.24 0,0 -16.15,-192.52 -65.5,-271.72 -49.35,-79.2 82.56,-260.45 30.46,-339.66 -52.09,-79.2 -141.65,71.89 -134.03,241.57 7.62,169.68 121.85,350.92 94.13,528.21 0,0 -49.65,-124.59 -94.74,-135.86 -45.09,-11.26 -91.39,-93.52 -120.02,-124.28 -28.63,-30.76 -67.93,75.24 0,173.33 67.93,98.09 241.26,360.37 214.76,572.69l74.93 -28.02z"/>
      <path class="fil2" d="M3129.85 4865.25l56.35 352.75c1.44,9.26 2.21,18.65 2.21,28.03 0,99.07 -80.35,179.42 -179.42,179.42 -0.02,0 -0.04,0 -0.06,0l-60.94 0c-0.02,0 -0.04,0 -0.07,0 -99.07,0 -179.42,-80.35 -179.42,-179.42 0,-9.38 0.77,-18.77 2.22,-28.02l56.35 -352.75 302.78 -0.01z"/>
      <rect class="fil1" x="6504.44" y="4603.89" width="175.16" height="752.42"/>
      <rect class="fil1" x="5658.2" y="4603.89" width="175.16" height="752.42"/>
      <rect class="fil1" transform="matrix(-1.76585 -0.304381 0.304381 -1.76585 4742.04 5356.04)" width="97.75" height="419.9"/>
      <rect class="fil1" x="6287.55" y="4702.89" width="175.16" height="653.41"/>
      <rect class="fil1" x="5885.15" y="4702.89" width="175.16" height="653.41"/>
      <rect class="fil1" x="4869.54" y="4702.89" width="175.16" height="653.41"/>
      <rect class="fil1" transform="matrix(-1.74921 -0.388752 0.388752 -1.74921 5457.54 5356)" width="97.75" height="364.65"/>
      <rect class="fil1" x="6136.46" y="4566.11" width="87.43" height="789.89"/>
      <rect class="fil1" x="5095.27" y="4566.11" width="87.43" height="789.89"/>
      <rect class="fil1" x="3617.85" y="4758.94" width="852.94" height="588.83"/>
      <rect class="fil1" x="6681.74" y="5000.2" width="714.64" height="439.57"/>
      <rect class="fil1" x="6872.12" y="4613.63" width="357.32" height="439.57"/>
      <rect class="fil3" x="2969.31" y="5307.26" width="4575.72" height="6708.68"/>
      <rect class="fil4" x="3131.06" y="5518.67" width="4252.21" height="1238.9"/>
      <rect class="fil1" x="3131.06" y="5719.1" width="241.57" height="1038.46"/>
      <rect class="fil1" x="4298.98" y="5719.1" width="241.57" height="1038.46"/>
      <rect class="fil1" transform="matrix(1.76585 -0.304381 0.304381 1.76585 5628.37 5734.03)" width="134.81" height="579.53"/>
      <rect class="fil1" x="3430.2" y="5855.88" width="241.57" height="901.68"/>
      <rect class="fil1" x="3985.53" y="5855.88" width="241.57" height="901.68"/>
      <rect class="fil1" x="5386.79" y="5855.88" width="241.57" height="901.68"/>
      <rect class="fil1" transform="matrix(1.74921 -0.388752 0.388752 1.74921 4622.12 5877.39)" width="134.81" height="503.2"/>
      <rect class="fil1" x="3759.81" y="5667.63" width="120.63" height="1089.94"/>
      <rect class="fil1" x="5196.71" y="5667.63" width="120.63" height="1089.94"/>
      <rect class="fil4" x="3130.76" y="6953.74" width="4252.21" height="1238.9"/>
      <rect class="fil1" x="7141.41" y="7154.48" width="241.57" height="1038.46"/>
      <rect class="fil1" x="5973.79" y="7154.48" width="241.57" height="1038.46"/>
      <rect class="fil1" transform="matrix(-1.76585 -0.304381 0.304381 -1.76585 4709.67 8192.66)" width="134.81" height="579.53"/>
      <rect class="fil1" x="6842.27" y="7290.96" width="241.57" height="901.68"/>
      <rect class="fil1" x="6286.95" y="7290.96" width="241.57" height="901.68"/>
      <rect class="fil1" x="4885.69" y="7290.96" width="241.57" height="901.68"/>
      <rect class="fil1" transform="matrix(-1.74921 -0.388752 0.388752 -1.74921 5697.29 8192.42)" width="134.81" height="503.2"/>
      <rect class="fil1" x="6633.6" y="7103" width="120.63" height="1089.94"/>
      <rect class="fil1" x="5196.7" y="7103" width="120.63" height="1089.94"/>
      <rect class="fil1" x="3131.06" y="7154.18" width="241.57" height="1038.46"/>
      <rect class="fil1" x="3430.2" y="7291.26" width="241.57" height="901.68"/>
      <rect class="fil1" x="3985.53" y="7291.26" width="241.57" height="901.68"/>
      <rect class="fil1" x="3759.81" y="7102.7" width="120.63" height="1089.94"/>
      <rect class="fil4" x="3131.06" y="8388.81" width="4252.21" height="1238.9"/>
      <rect class="fil1" x="5571.69" y="8589.55" width="241.57" height="1038.46"/>
      <rect class="fil1" transform="matrix(1.76585 -0.304381 0.304381 1.76585 6901.36 8604.29)" width="134.81" height="579.53"/>
      <rect class="fil1" x="4702.91" y="8726.33" width="241.57" height="901.68"/>
      <rect class="fil1" x="5258.24" y="8726.33" width="241.57" height="901.68"/>
      <rect class="fil1" x="6659.49" y="8726.33" width="241.57" height="901.68"/>
      <rect class="fil1" transform="matrix(1.74921 -0.388752 0.388752 1.74921 5895.01 8747.28)" width="134.81" height="503.2"/>
      <rect class="fil1" x="5032.52" y="8538.08" width="120.63" height="1089.94"/>
      <rect class="fil1" x="6469.42" y="8538.08" width="120.63" height="1089.94"/>
      <rect class="fil1" transform="matrix(1.76585 -0.304381 0.304381 1.76585 4122.17 8604.5)" width="134.81" height="579.53"/>
      <rect class="fil1" x="3880.43" y="8726.33" width="241.57" height="901.68"/>
      <rect class="fil1" transform="matrix(1.74921 -0.388752 0.388752 1.74921 3116.03 8747.36)" width="134.81" height="503.2"/>
      <rect class="fil1" x="3690.36" y="8538.08" width="120.63" height="1089.94"/>
      <rect class="fil4" x="2180.04" y="5307.56" width="789.27" height="6726.04"/>
      <polygon class="fil4" points="12633.74,4490.87 11621.48,3902.04 10841.65,3902.04 9812.64,4463.15 9812.64,8279.76 12633.74,8279.76 "/>
      <path class="fil5" d="M9783.69 4491.17l28.94 -28.03c373.15,-359.71 872.36,-561.11 1390.9,-561.11 1.71,0 3.43,0 5.13,0l0.06 0c1.76,0 3.47,0 5.19,0 518.54,0 1017.74,201.4 1390.92,561.11l28.94 28.03 -0.03 3788.57 -2850.04 0 0 -3788.58zm4086.2 -508.11c-336.91,-309.39 -778.49,-481.43 -1236.15,-481.43 -457.66,0 -899.24,172.04 -1236.19,481.53l0 3518.38 2472.34 -0.1 0 -3518.38z"/>
      <polygon class="fil3" points="11279.69,8113.43 11137.74,8113.43 11137.74,6846.81 9936.92,6846.81 9936.92,6704.86 11137.74,6704.86 11137.74,5409.61 9936.92,5409.61 9936.92,5267.66 11137.74,5267.66 11137.74,4066.84 11279.69,4066.84 11279.69,5267.66 12480.51,5267.66 12480.51,5409.61 11279.69,5409.61 11279.69,6704.86 12480.51,6704.86 12480.51,6846.81 11279.69,6846.81 "/>
      <path class="fil3" d="M9688.96 4452.49l27.72 -27.72c395.91,-395.44 933.06,-617.72 1492.65,-617.72 559.58,0 1096.74,222.28 1492.57,617.61l27.72 27.72 0.07 3922.12 -3040.73 0 0 -3922zm2878.06 51.18c-357.9,-343.06 -834.73,-534.64 -1330.59,-534.64 -495.85,0 -972.69,191.58 -1330.49,534.59l-0.09 3681.4 2661.17 0 0 -3681.35z"/>
     </g>
     <g id="freepik--Shadow--inject-55">
      <ellipse id="freepik--path--inject-55" class="fil6" cx="7472.84" cy="13194.82" rx="5906.31" ry="344.83"/>
     </g>
     <g id="freepik--Device--inject-55">
      <path class="fil7" d="M12046.42 4672.43l0 52.39c0,11.61 -9.41,21.02 -21.02,21.02l-445.66 0c-11.61,0 -21.02,-9.41 -21.02,-21.02l0 -52.4c0,-11.6 9.41,-21.01 21.02,-21.01l445.67 -0c11.61,0 21.02,9.42 21.02,21.02z"/>
      <path class="fil7" d="M12668.46 4892.06l0 7883.61c-0.01,111.51 -90.45,201.95 -201.97,201.95l-5499.63 0.01c-111.51,-0.01 -201.95,-90.45 -201.95,-201.97l-0.02 -7883.6c0.02,-111.52 90.46,-201.96 201.98,-201.96l5499.63 -0.01c111.51,0.01 201.95,90.45 201.95,201.97z"/>
      <path class="fil8" d="M12516.15 4892.06l0 7883.61c-0.01,111.51 -90.45,201.95 -201.96,201.95l-5347.33 0.01c-111.5,-0.01 -201.95,-90.45 -201.95,-201.98l-0.01 -7883.6c0.01,-111.51 90.46,-201.96 201.98,-201.96l5347.3 0c111.52,0 201.96,90.44 201.96,201.97z"/>
      <path class="fil9" d="M9588.13 4843.63c0,-29.94 -24.27,-54.22 -54.22,-54.22 -29.94,0 -54.22,24.28 -54.22,54.22 0,29.95 24.28,54.22 54.22,54.22 29.96,0 54.22,-24.27 54.22,-54.22z"/>
      <path class="fil9" d="M9801.06 4843.63c0,-14.96 -12.14,-27.11 -27.1,-27.11 -14.98,0 -27.11,12.14 -27.11,27.11 0,14.98 12.13,27.11 27.11,27.11 14.96,0 27.1,-12.14 27.1,-27.11z"/>
      <circle class="fil10" cx="9640.22" cy="12681.23" r="166.32"/>
      <rect class="fil11" transform="matrix(4.74574E-14 1.79189 -1.79189 4.74574E-14 12349.8 5010.56)" width="4128.28" height="3024.3"/>
      <polygon class="fil12" points="6930.61,5240.55 6930.61,12407.69 12349.83,12407.69 12349.83,5240.55 "/>
      <path class="fil9" d="M11910.87 5124.79c0,-28.26 -22.92,-51.18 -51.18,-51.18 -28.27,0 -51.17,22.92 -51.17,51.18 0,28.27 22.91,51.17 51.17,51.17 28.26,0 51.18,-22.91 51.18,-51.17z"/>
      <path class="fil9" d="M12087.54 5124.79c0,-28.26 -22.91,-51.18 -51.17,-51.18 -28.26,0 -51.17,22.92 -51.17,51.18 0,28.27 22.91,51.17 51.17,51.17 28.27,0 51.17,-22.91 51.17,-51.17z"/>
      <path class="fil9" d="M12264.23 5124.79c0,-28.26 -22.92,-51.18 -51.18,-51.18 -28.26,0 -51.17,22.92 -51.17,51.18 0,28.27 22.91,51.17 51.17,51.17 28.26,0 51.18,-22.91 51.18,-51.17z"/>
      <polygon class="fil13" points="6930.61,5568.62 12349.83,5568.62 12349.83,5240.85 6930.61,5240.85 "/>
      <path class="fil9" d="M12185.94 5483.02l-1677.25 0c-43.22,0 -78.28,-35.06 -78.28,-78.29l0 0c0,-43.23 35.06,-78.28 78.28,-78.28l1677.25 0c43.23,0 78.29,35.05 78.29,78.28l0 0c0,43.24 -35.06,78.29 -78.29,78.29z"/>
      <path class="fil7" d="M8879.28 6059.37c0,-0.54 -0.01,-1.14 -0.01,-1.69 0,-77.72 63.02,-140.74 140.73,-140.74 2.24,0 4.5,0.05 6.72,0.16 1.73,-0.04 3.51,-0.09 5.25,-0.09 38.07,0 74.48,15.83 100.45,43.66l-25.59 24.98c-20.17,-21.19 -48.19,-33.2 -77.45,-33.2 -59.04,0 -106.92,47.88 -106.92,106.92 0,59.04 47.88,106.92 106.92,106.92 29.26,0 57.28,-12.02 77.45,-33.21l25.59 24.98c-26.05,28.03 -62.61,43.96 -100.87,43.96 -1.72,0 -3.44,-0.05 -5.15,-0.1 -2.11,0.08 -4.28,0.15 -6.41,0.15 -77.71,0 -140.73,-63.02 -140.73,-140.73 0,-0.66 0.02,-1.34 0.02,-1.98z"/>
      <polygon class="fil7" points="9428.81,5921.68 9428.81,6199.8 9388.91,6199.8 9388.91,6075.82 9229.29,6075.82 9229.29,6199.8 9189.38,6199.8 9189.38,5921.68 9229.29,5921.68 9229.29,6041.4 9388.91,6041.39 9388.91,5921.68 "/>
      <path class="fil7" d="M9689.57 6130.35l-147.74 0 -30.46 69.45 -40.82 0 126.11 -278.12 38.99 0 126.42 278.12 -41.74 0 -30.77 -69.45zm-13.7 -31.98l-60.93 -136.17 -60.93 136.17 121.85 0z"/>
      <path class="fil7" d="M10028 6018.55c0,60.93 -43.87,97.17 -116.06,97.17l-68.84 0 0 84.08 -39.6 0 0 -278.12 108.44 0c72.2,0 116.06,36.55 116.06,96.87zm-39.91 0c0,-39.6 -26.5,-60.93 -77.37,-60.93l-67.62 0 0 124.9 66.71 0c51.79,-1.52 78.28,-23.15 78.28,-63.97z"/>
      <polygon class="fil7" points="10133.1,5956.1 10037.75,5956.1 10037.75,5921.68 10267.74,5921.68 10267.74,5956.1 10172.39,5956.1 10172.39,6199.8 10133.1,6199.8 "/>
      <polygon class="fil7" points="10512.96,6165.38 10512.96,6199.8 10311.3,6199.8 10311.3,5921.68 10507.48,5921.68 10507.48,5956.1 10350.91,5956.1 10350.91,6041.7 10490.42,6041.7 10490.42,6075.52 10350.91,6075.52 10350.91,6165.38 "/>
      <path class="fil7" d="M10762.75 6199.8l-60.92 -85.29 -17.67 0 -68.54 0 0 84.69 -39.91 0 0 -278.12 108.45 -0c72.5,0 116.06,36.56 116.06,96.87 0.06,1.4 0.1,2.83 0.1,4.25 0,38.21 -24.66,72.08 -61.02,83.79l66.1 93.21 -42.65 0.61zm37.47 -364.63c0,-39.6 -26.81,-60.93 -77.68,-60.93l-67.32 0 0 125.2 67.32 0c13.1,181.86 40.21,159.93 40.21,119.11l37.47 -183.38z"/>
      <polygon class="fil11" points="10918.71,5568.62 10918.71,7001.26 11357.98,6562.3 11774.7,6979.02 11774.7,5568.62 "/>
      <path class="fil10" d="M11498.41 6214.11c0,74.33 -54.83,134.65 -166.63,134.65 -2.34,0.08 -4.79,0.11 -7.17,0.11 -56.04,0 -110.51,-18.83 -154.59,-53.41l28.94 -49.96c35.81,30.48 81.35,47.26 128.4,47.26 1.47,0 2.97,-0.02 4.42,-0.05 66.1,0 103.87,-30.46 103.87,-77.98 0,-47.52 -33.51,-76.76 -109.05,-76.76l-35.34 -0 0 -44.17 110.89 -135.86 -213.23 0 0 -54.83 290.61 0 0 42.95 -113.93 143.78c88.04,6.7 132.82,56.35 132.82,124.28z"/>
      <path class="fil7" d="M7777.46 7769.52c0,97.48 -70.37,156.27 -186.73,156.27l-110.58 0 0 135.56 -63.96 0 0 -448.4 174.55 0c116.36,0 186.73,60.92 186.73,156.58zm-63.97 0c0,-63.97 -42.65,-100.22 -124.59,-100.22l-108.75 -0.01 0 200.75 108.76 0c81.94,0 124.59,-36.56 124.59,-100.52z"/>
      <path class="fil14" d="M11810.95 7651.63l-3929.62 0c-8.41,0 -15.23,-6.82 -15.23,-15.23 0,-8.41 6.82,-15.23 15.23,-15.23l3929.62 0c8.41,0 15.23,6.82 15.23,15.23 0,8.41 -6.82,15.23 -15.23,15.23z"/>
      <path class="fil14" d="M11810.95 7809.72l-3929.62 0c-8.41,0 -15.23,-6.82 -15.23,-15.23 0,-8.41 6.82,-15.23 15.23,-15.23l3929.62 0c8.35,0.16 15.07,6.89 15.23,15.23 0,8.41 -6.82,15.23 -15.23,15.23z"/>
      <path class="fil14" d="M11810.95 7967.83l-3929.62 0c-8.41,0 -15.23,-6.82 -15.23,-15.23 0,-8.41 6.82,-15.23 15.23,-15.23l3929.62 0c8.35,0.16 15.07,6.89 15.23,15.22 0,8.42 -6.82,15.24 -15.23,15.24z"/>
      <path class="fil14" d="M11810.95 8125.92l-3929.62 0c-8.41,0 -15.23,-6.82 -15.23,-15.23 0,-8.41 6.82,-15.23 15.23,-15.23l3929.62 0c8.35,0.16 15.07,6.89 15.23,15.23 0,8.41 -6.82,15.23 -15.23,15.23z"/>
      <path class="fil14" d="M11810.95 8283.11l-4386.55 0c-8.4,-0.01 -15.22,-6.83 -15.22,-15.24 0,-8.41 6.82,-15.23 15.23,-15.23l4386.54 0.01c8.41,-0.01 15.23,6.81 15.23,15.22 -0.16,8.34 -6.89,15.07 -15.22,15.22l-0.01 0.01z"/>
      <path class="fil14" d="M11810.95 8442.42l-4386.55 0c-8.4,-0 -15.22,-6.83 -15.22,-15.24 0,-8.41 6.82,-15.23 15.23,-15.23l4386.54 0.01c8.41,-0.01 15.23,6.81 15.23,15.22 -0.16,8.34 -6.89,15.07 -15.22,15.22l-0.01 0.01z"/>
      <path class="fil14" d="M11810.95 8600.53l-4386.55 0c-8.4,-0.01 -15.22,-6.83 -15.22,-15.24 0,-8.41 6.82,-15.23 15.23,-15.23l4386.54 0.01c8.41,-0.01 15.23,6.81 15.23,15.22 -0.16,8.34 -6.89,15.07 -15.22,15.22l-0.01 0.02z"/>
      <path class="fil14" d="M11810.95 8758.62l-4386.55 0c-8.4,-0.01 -15.22,-6.83 -15.22,-15.24 0,-8.41 6.82,-15.23 15.23,-15.23l4386.54 0c8.41,-0 15.23,6.81 15.23,15.22 0,8.41 -6.82,15.23 -15.23,15.23l0 0.01z"/>
      <path class="fil14" d="M9373.67 8916.72l-1948.06 0c-8.4,-0.01 -15.22,-6.83 -15.22,-15.24 0,-8.41 6.82,-15.23 15.23,-15.23l1948.05 0.01c8.41,-0.01 15.23,6.81 15.23,15.22 0,8.41 -6.82,15.23 -15.23,15.23l0 0.01z"/>
      <path class="fil14" d="M11810.95 9266.12l-3899.15 0c-8.41,-0.01 -15.23,-6.83 -15.23,-15.24 0,-8.41 6.82,-15.23 15.23,-15.23l3899.15 0.01c8.35,0.15 15.07,6.88 15.23,15.22 0,8.41 -6.82,15.23 -15.23,15.23l0 0.01z"/>
      <path class="fil14" d="M11810.95 9424.22l-4386.55 0c-8.4,-0.01 -15.22,-6.83 -15.22,-15.24 0,-8.41 6.82,-15.23 15.23,-15.23l4386.54 0.01c8.35,0.15 15.07,6.89 15.23,15.22 0,8.41 -6.82,15.23 -15.23,15.23l0 0.01z"/>
      <path class="fil14" d="M11810.95 9582.62l-4386.55 0c-8.4,-0 -15.22,-6.83 -15.22,-15.24 0,-8.41 6.82,-15.23 15.23,-15.23l4386.54 0.01c8.41,-0.01 15.23,6.81 15.23,15.22 -0.16,8.34 -6.89,15.07 -15.22,15.22l-0.01 0.01z"/>
      <path class="fil14" d="M11810.95 9740.72l-4386.55 0c-8.4,-0.01 -15.22,-6.83 -15.22,-15.24 0,-8.41 6.82,-15.23 15.23,-15.23l4386.54 0.01c8.41,-0.01 15.23,6.81 15.23,15.22 -0.16,8.35 -6.89,15.07 -15.22,15.23l-0.01 0.01z"/>
      <path class="fil14" d="M11810.95 9897.6l-4386.55 0c-8.4,-0.01 -15.22,-6.83 -15.22,-15.24 0,-8.41 6.82,-15.23 15.23,-15.23l4386.54 0c8.41,-0 15.23,6.81 15.23,15.22 0,8.41 -6.82,15.23 -15.23,15.23l0 0.01z"/>
      <path class="fil14" d="M11810.95 10056.92l-4386.55 0c-8.4,-0.01 -15.22,-6.83 -15.22,-15.24 0,-8.41 6.82,-15.23 15.23,-15.23l4386.54 0.01c8.41,-0.01 15.23,6.81 15.23,15.22 0,8.41 -6.82,15.23 -15.23,15.23l0 0.01z"/>
      <path class="fil14" d="M11810.95 10215.02l-4386.55 0c-8.4,-0.01 -15.22,-6.83 -15.22,-15.24 0,-8.41 6.82,-15.23 15.23,-15.23l4386.54 0.01c8.41,-0.01 15.23,6.81 15.23,15.22 0,8.41 -6.82,15.23 -15.23,15.23l0 0.01z"/>
      <path class="fil14" d="M11810.95 10373.11l-4386.55 0c-8.4,-0 -15.22,-6.83 -15.22,-15.24 0,-8.41 6.82,-15.23 15.23,-15.23l4386.54 0.01c8.35,0.15 15.07,6.89 15.23,15.22 0,8.41 -6.82,15.23 -15.23,15.23l0 0z"/>
      <path class="fil14" d="M10896.78 10531.21l-3471.17 0c-8.4,-0.01 -15.22,-6.83 -15.22,-15.24 0,-8.41 6.82,-15.23 15.23,-15.23l3472.68 0.01c8.41,-0.01 15.23,6.81 15.23,15.22 0,0.03 0,0.06 0,0.08 0,8.41 -6.82,15.23 -15.23,15.23 -0.51,0 -1.02,-0.03 -1.52,-0.08l0 0.01z"/>
      <path class="fil14" d="M11810.95 10911.38l-3899.15 0c-8.41,-0.01 -15.23,-6.83 -15.23,-15.24 0,-8.41 6.82,-15.23 15.23,-15.23l3899.15 0.01c8.41,-0.01 15.23,6.81 15.23,15.22 -0.16,8.34 -6.89,15.07 -15.22,15.22l-0.01 0.02z"/>
      <path class="fil14" d="M11810.95 11069.48l-4386.55 0c-8.4,-0.01 -15.22,-6.83 -15.22,-15.24 0,-8.41 6.82,-15.23 15.23,-15.23l4386.54 0.01c8.41,-0.01 15.23,6.81 15.23,15.22 0,8.41 -6.82,15.23 -15.23,15.23l0 0.01z"/>
      <path class="fil14" d="M11810.95 11227.58l-4386.55 0c-8.4,-0.01 -15.22,-6.83 -15.22,-15.24 0,-8.41 6.82,-15.23 15.23,-15.23l4386.54 0.01c8.41,-0.01 15.23,6.81 15.23,15.22 0,8.41 -6.82,15.23 -15.23,15.23l0 0.01z"/>
      <path class="fil14" d="M10592.16 11385.68l-3166.54 0c-8.4,-0.01 -15.22,-6.83 -15.22,-15.24 0,-8.41 6.82,-15.23 15.23,-15.23l3168.06 0.01c8.41,-0.01 15.23,6.81 15.23,15.22 0,8.41 -6.82,15.23 -15.23,15.23l-1.52 0.01z"/>
      <polygon class="fil7" points="11679.66,11848.7 11679.66,11867.28 11602.29,12040.61 11571.82,12040.61 11647.68,11872.46 11559.94,11872.46 11559.94,11908.1 11533.75,11908.1 11533.75,11850.23 "/>
      <path class="fil7" d="M11832.88 11983.96c0,32.59 -23.76,58.79 -72.5,58.79 -0.93,0 -1.91,0.03 -2.84,0.03 -24.59,0 -48.51,-8.29 -67.82,-23.5l12.8 -21.63c15.52,13.38 35.36,20.75 55.85,20.75 0.67,0 1.36,-0.01 2.02,-0.02 28.63,0 45.09,-13.1 45.09,-34.11 0,-21.02 -14.31,-33.51 -47.22,-33.51l-15.54 0 0 -19.19 48.44 -59.09 -91.39 0 0 -23.76 126.72 0 0 18.58 -50.27 60.93c37.17,4.57 56.66,26.19 56.66,55.75z"/>
      <polygon class="fil15" points="12213.05,12407.98 12350.13,12407.98 12350.13,5568.62 12213.05,5568.62 "/>
      <path class="fil16" d="M12281.59 6727.41l0 0c37.85,-0.01 68.53,30.68 68.53,68.53l0 682.35c0,37.85 -30.69,68.54 -68.53,68.54l0 0c-37.85,0 -68.55,-30.69 -68.55,-68.54l0.01 -682.35c-0.01,-37.85 30.69,-68.54 68.54,-68.54z"/>
      <path class="fil7" d="M12620.02 6427.66l39.3 0c18,0 32.59,14.59 32.59,32.59l0 746.32c0,18 -14.59,32.59 -32.59,32.59l-39.3 0c-18,0 -32.59,-14.6 -32.59,-32.59l0 -746.32c0,-18 14.6,-32.59 32.59,-32.59z"/>
      <path class="fil7" d="M12620.02 5513.8l39.3 0c18,0 32.59,14.59 32.59,32.59l0 746.32c0,18 -14.59,32.59 -32.59,32.59l-39.3 0c-18,0 -32.59,-14.59 -32.59,-32.59l0 -746.32c0,-18 14.6,-32.59 32.59,-32.59z"/>
      <path class="fil8" d="M12620.03 6427.66l39.3 0c17.98,0 32.59,14.59 32.59,32.6l0 746.32c0,17.99 -14.61,32.59 -32.59,32.59l-39.3 0c-18,0 -32.59,-14.61 -32.59,-32.59l0 -746.32c0,-18 14.59,-32.6 32.59,-32.6z"/>
      <path class="fil8" d="M12620.03 5513.8l39.3 0c17.98,0 32.59,14.59 32.59,32.59l0 746.32c0,18 -14.61,32.59 -32.59,32.59l-39.3 0c-18,0 -32.59,-14.59 -32.59,-32.59l0 -746.32c0,-18 14.59,-32.59 32.59,-32.59z"/>
     </g>
     <g id="freepik--Character--inject-55">
      <path class="fil11" d="M6112.09 11491.69l-3201.27 0 -487.39 -2519.22c-5.39,-27.95 -8.17,-56.5 -8.17,-85 0,-246.43 199.79,-446.27 446.22,-446.27l2291.96 0c213.74,-0 397.51,151.78 438.05,361.6l520.6 2688.89z"/>
      <path class="fil11" d="M3820.12 11491.69l-909.3 0 -487.39 -2519.22c-5.39,-27.95 -8.17,-56.5 -8.17,-85 0,-246.43 199.79,-446.27 446.22,-446.27l-0 0c213.74,0.16 397.36,151.78 438.04,361.57l520.61 2688.91z"/>
      <g>
       <path class="fil17" d="M6112.09 11491.69l-3201.26 0 -487.4 -2519.22c-5.38,-27.95 -8.16,-56.5 -8.16,-85 0,-246.42 199.8,-446.28 446.21,-446.28l2291.97 0.01c213.74,-0.01 397.51,151.78 438.05,361.6l520.6 2688.89z"/>
      </g>
      <path class="fil8" d="M6112.09 11486.81l-2291.96 0 -520.61 -2685.84c-40.48,-208.73 -223.37,-359.46 -435.98,-359.46 -0.77,0 -1.63,0 -2.38,0l2291.99 0.01c0.74,-0.01 1.56,-0.01 2.31,-0.01 212.57,0 395.39,150.8 435.76,359.46l520.88 2685.84z"/>
      <path class="fil7" d="M5014.24 8157.3c0,0 -120.33,471.56 -462.72,397.83 -342.39,-73.72 -353.67,-523.03 -353.67,-523.03 0,0 -52.7,139.51 -40.51,215.67 -18.54,-33.5 -28.31,-71.22 -28.31,-109.53 0,-36.99 9.14,-73.51 26.49,-106.15 17.35,-32.64 -91.39,48.44 -91.39,125.2 -5.34,-14.25 -8.09,-29.41 -8.09,-44.64 0,-45.8 24.62,-88.09 64.44,-110.71 39.81,-22.62 -204.1,46.3 -121.85,-235.17 82.25,-281.46 345.74,-130.68 318.03,35.94 65.94,-62.95 152.65,-100.01 243.72,-104.16 149.85,-7.94 600.99,174.52 453.86,458.74z"/>
      <path class="fil18" d="M5105.62 8770.5c150.18,48.44 328.08,684.48 374.38,706.42 46.3,21.93 231.21,-397.84 231.21,-397.84l21.63 -177.59 62.45 -110.89c0,0 95.65,130.68 95.96,197.7 0.3,67.02 -116.97,155.67 -116.97,155.67 0,0 -182.77,636.05 -311.32,611.37 -128.55,-24.68 -360.67,-514.5 -360.67,-514.5l3.35 -470.33z"/>
      <path class="fil18" d="M6653.1 10834.31c-2.74,4.57 -5.48,6.4 -8.83,5.79 -91.39,-16.45 -335.09,116.67 -629.35,270.2l-82.86 42.65c-9.44,5.18 -18.89,9.75 -28.33,14.31 -149.26,76.46 -307.67,152.31 -464.55,216.28 -184.3,74.94 -365.55,130.38 -526.39,142.26 -21.93,1.83 -42.95,2.43 -63.97,2.43 -718.91,0 -484.65,-1186.5 -484.65,-1186.5l858.72 -65.8 101.44 174.55 54.83 94.43 123.98 -33.2c60.93,-16.76 154.74,-38.39 261.36,-60.93l24.68 -5.48c35.64,-7.62 72.8,-14.93 110.89,-22.54 280.26,-56.97 601.93,-111.8 721.04,-112.41 85.3,-0.61 70.37,467.59 31.99,523.95z"/>
      <path class="fil7" d="M5780.97 10404.8l166.62 825.83c0,0 -573.6,466.07 -1066.17,284.21 -492.57,-181.85 -338.44,-1021.7 -338.44,-1021.7l604.07 -380.47 240.95 336.91 392.97 -44.78z"/>
      <polygon class="fil7" points="5752.64,10388.95 5925.97,11282.71 6030.15,11200.47 5891.24,10371.59 "/>
      <polygon class="fil19" points="6030.15,11200.47 5925.97,11282.71 5920.19,11251.64 5903.73,11167.26 5833.05,10803.85 5764.52,10450.8 5756.9,10410.89 5752.33,10388.96 5891.56,10371.58 5900.08,10422.76 5964.96,10811.46 6014.91,11110.3 "/>
      <path class="fil13" d="M6653.11 10834.31c-2.74,4.58 -5.48,6.41 -8.84,5.79 -91.38,-16.45 -335.08,116.67 -629.35,270.2l15.23 91.38 -104.17 82.26 -5.79 -34.12c-110.15,75.92 -227.94,142.81 -349.52,198.96l0.12 -0.05 -131.3 -67.02 -190.39 -100.51 77.99 -710.07 112.71 156.26c0,0 262.89,63.67 392.95,76.15l30.47 2.75c35.64,3.04 70.67,4.87 102.96,5.17 23.15,0 44.46,0 65.19,-1.82 222.98,-15.54 464.55,-23.76 621.74,24.67z"/>
      <path class="fil18" d="M8460.11 11313.79l-7.93 171.81 -20.11 0 -138.91 7c-368.59,16.76 -1283.06,49.04 -1672.98,-28.94l-1791.79 34.73 393.88 -689.97 2463.79 384.74 758.2 117.89 15.84 2.74z"/>
      <path class="fil7" d="M8756.2 11108.78c-3.35,67.32 -5.78,127.94 -8.53,182.77 -3.66,76.76 -6.4,144.7 -9.45,209.89 -5.18,113.32 -98.09,38.08 -299.14,24.06 -4.87,0 -6.7,-16.15 -7.01,-39.6 0,-50.26 7.31,-135.25 11.28,-175.77l2.43 -23.15c24.57,-22.83 47.87,-47.15 69.72,-72.48 55.96,-59.91 98.95,-130.97 125.87,-208.37 39.89,-139.84 121.83,-56.37 114.82,102.65z"/>
      <path class="fil7" d="M5711.21 10861.73l-201.66 704.59 -396.01 -38.08c0,0 -1140.2,301.27 -822.48,-1333.33l856.59 -82.25 249.79 651.58 313.76 97.49z"/>
      <polygon class="fil7" points="5667.95,10823.35 5440.1,11577.59 5574.74,11577.59 5774.26,10861.73 "/>
      <polygon class="fil19" points="5667.95,10823.35 5440.09,11577.59 5574.74,11577.59 5774.26,10861.73 "/>
      <path class="fil13" d="M8747.67 11292.47c-3.65,76.76 -6.39,144.7 -9.44,209.87 -5.19,113.33 -98.1,38.08 -299.15,24.07 -4.87,0 -6.7,-16.15 -7.01,-39.6l-138.89 7.01c-189.78,-106.92 -456.94,-231.52 -609.25,-300.67l758.2 117.9 2.43 -23.17c24.57,-22.83 47.87,-47.14 69.72,-72.48l233.39 77.06z"/>
      <path class="fil18" d="M6621.42 10310.36c-30.46,0 -10.06,523.95 22.85,529.74 139.82,25.28 2047.06,588.22 2047.06,588.22l55.44 -167.24c0,0 -1812.81,-952.56 -2125.35,-950.73z"/>
      <path class="fil7" d="M8668.78 11460.62c-18.28,-6.7 71.28,-228.17 71.28,-228.17 0,0 187.95,-91.39 264.71,-216.58 76.76,-125.2 132.81,-22.24 82.56,128.85l-124.28 374.07c-35.64,107.22 -104.79,9.75 -294.26,-58.18z"/>
      <polygon class="fil14" points="4276.14,10190.65 4267.61,10320.72 5154.06,10132.77 5115.67,9989.29 "/>
      <rect class="fil7" transform="matrix(1.76183 -0.326854 0.326854 1.76183 4512.6 10108.3)" width="23.8" height="121.21"/>
      <rect class="fil10" transform="matrix(1.74805 -0.393941 0.393941 1.74805 4739.1 10087.4)" width="105.23" height="79.73"/>
      <rect class="fil7" transform="matrix(1.76183 -0.326854 0.326854 1.76183 5026.21 9980.94)" width="23.8" height="121.21"/>
      <path class="fil7" d="M5123.6 10014.57l-847.16 180.34c0,0 2.74,-468.81 -63.67,-727.74 -21.63,-84.08 -48.74,-178.2 -83.16,-287.56 -14.62,-46.3 -30.46,-95.04 -47.82,-147.44 -17.36,-52.39 -33.2,-100.52 -52.39,-155.06 113.66,-35.98 230.96,-64.45 348.56,-83.95 124.24,-21.92 250.79,-35.39 376.69,-39.67 163.28,-1.52 350.92,17.06 350.92,17.06 0,0 26.5,6.4 43.26,179.42 15.58,162.61 8.88,473.63 -25.23,1064.59z"/>
      <path class="fil12" d="M5123.59 10014.57l-847.15 180.34c0,0 0,-10.35 0,-28.63 -1.52,-41.73 -2.74,-121.85 -7.01,-215.68 -6.4,-152.3 -20.71,-346.35 -56.05,-483.43 -15.23,-60.92 -33.51,-125.2 -55.44,-197.4l-11.28 -37.16c-5.18,-17.06 -10.35,-34.73 -16.14,-52.7 -14.63,-46.31 -30.46,-95.34 -48.13,-147.74 -17.66,-52.39 -33.21,-100.52 -52.09,-154.75 113.79,-36.21 230.54,-64.64 348.18,-84 124.13,-22.25 251.05,-35.73 376.98,-40.01 163.27,0 350.92,17.06 350.92,17.06 0,0 26.5,6.71 43.56,179.42 14.48,162.69 7.77,473.71 -26.35,1064.67z"/>
      <path class="fil18" d="M4685.55 8938.96c-207.14,-26.5 -269.29,-115.15 -269.29,-115.15 84.69,-79.51 69.15,-197.09 47.52,-270.51 -6.44,-23.26 -14.97,-46.11 -25.29,-67.93l248.87 46.61c-5.59,34.65 -8.83,70 -9.45,105.09 -0.08,3.76 -0.19,7.66 -0.19,11.45 0,22.05 2.43,44.1 7.22,65.61 16.75,74.33 60.92,75.24 60.92,75.24 42.03,81.96 -60.31,149.59 -60.31,149.59z"/>
      <path class="fil13" d="M4677.93 8637.08c-0.08,3.74 -0.2,7.65 -0.2,11.44 0,22.06 2.42,44.11 7.21,65.61 -99,-13.1 -173.93,-91.39 -221.16,-160.85 -6.44,-23.24 -14.96,-46.09 -25.29,-67.91l248.88 46.6c-5.58,34.65 -8.83,70 -9.46,105.1l0.01 0z"/>
      <path class="fil18" d="M4744.34 7833.18c229.07,46.91 277.81,184.6 246.44,424.34 -39.29,299.44 -147.43,495.62 -421.29,374.07 -371.64,-165.72 -205.93,-876.09 174.85,-798.41z"/>
      <path class="fil20" d="M4845.17 8214.26c11.31,37.91 27.26,74.57 47.25,108.75 -11.93,11.17 -27.68,17.41 -44.02,17.41 -7.32,0 -14.6,-1.25 -21.5,-3.7l18.26 -122.46z"/>
      <path class="fil7" d="M4632.24 8033.63c-0.07,0 -0.15,0 -0.22,0 -3.22,0 -6.27,-1.46 -8.29,-3.96 -1.64,-1.97 -2.54,-4.45 -2.54,-7.01 0,-3.3 1.5,-6.44 4.06,-8.52 22.04,-15.18 48.2,-23.31 74.96,-23.31 14.27,0 28.49,2.34 42.01,6.86 4.52,1.58 7.54,5.84 7.54,10.63 0,1.15 -0.18,2.29 -0.52,3.39 -1.46,4.52 -5.68,7.6 -10.44,7.6 -1.21,0 -2.43,-0.2 -3.57,-0.6 -11.32,-3.8 -23.23,-5.76 -35.19,-5.76 -21.59,0 -42.76,6.37 -60.77,18.26 -2.02,1.51 -4.47,2.37 -7,2.43l-0.02 0.01z"/>
      <path class="fil7" d="M4994.74 8081.15c-2.87,-0.08 -5.61,-1.28 -7.61,-3.35 -19.03,-21.88 -46.63,-34.46 -75.63,-34.46 -0.88,0 -1.78,0.02 -2.65,0.04 -0.79,0.16 -1.59,0.26 -2.39,0.26 -6.06,0 -10.96,-4.91 -10.96,-10.96 0,-5.68 4.34,-10.42 10,-10.92 2.35,-0.14 4.73,-0.21 7.08,-0.21 34.48,0 67.33,14.85 90.11,40.72 2.04,2.07 3.21,4.86 3.21,7.78 0,2.91 -1.17,5.7 -3.22,7.77 -2.11,2.09 -4.95,3.29 -7.92,3.35z"/>
      <path class="fil7" d="M4415.04 8168.26c0,0 145.31,-166.32 159.02,-314.98 0,0 491.96,-91.39 420.37,372.55 0,0 127.94,-400.28 -264.41,-489.53 -392.35,-89.25 -508.11,487.39 -339.66,700.63 0.01,-1.52 -65.79,-164.19 24.68,-268.68z"/>
      <path class="fil18" d="M4442.46 8224.31c0.48,-3.98 0.72,-8.02 0.72,-12.03 0,-51.9 -38.75,-95.65 -90.26,-101.9 -72.5,-6.7 -136.16,132.2 33.51,203.49 24.05,10.05 43.55,-11.88 56.04,-89.56z"/>
      <path class="fil7" d="M4820.5 8404.96c-19.51,20.89 -37.59,43.26 -53.89,66.67l-13.7 -6.4c-60.93,-30.46 -79.81,-64.58 -81.64,-93.52 -0.11,-1.53 -0.16,-3.12 -0.16,-4.69 0,-12.47 2.76,-24.81 8.05,-36.1 3.11,-7.39 7.22,-14.41 12.19,-20.71 29.59,35.56 66.63,64.32 108.44,84.09 12.48,7.3 20.71,10.65 20.71,10.65z"/>
      <path class="fil10" d="M4799.78 8394.6l-16.45 19.5c-57.87,-28.63 -94.74,-56.35 -104.18,-82.86 3.12,-7.41 7.24,-14.42 12.2,-20.72 29.59,35.56 66.63,64.32 108.44,84.09l-0.01 -0.01z"/>
      <path class="fil20" d="M4752.87 8465.88c-60.93,-30.46 -79.81,-64.57 -81.64,-93.52 22.83,12.13 43.5,28.13 60.94,47.22 11.64,12.81 18.91,29.05 20.7,46.3l0 0z"/>
      <path class="fil7" d="M4735.81 7849.63c0,0 -169.07,358.24 -405.76,304.62 -236.69,-53.61 227.55,-456.93 227.55,-456.93 0,0 417.33,-67.02 566.6,177.6 149.26,244.61 -129.77,349.7 -129.77,349.7 0,0 74.02,-287.56 -258.62,-374.99z"/>
      <path class="fil7" d="M4508.26 8145.11c-4.09,-0.15 -7.32,-3.51 -7.32,-7.61 0,-3.39 2.24,-6.38 5.5,-7.32 198.61,-50.26 224.81,-304.62 225.12,-308.58 0.3,-3.96 3.62,-7.03 7.59,-7.03 0.21,0 0.43,0 0.64,0.03 4,0.45 7.02,3.84 7.02,7.87 0,0.22 -0,0.44 -0.03,0.66 0,2.43 -27.41,268.98 -236.69,321.68l-1.83 0.3z"/>
      <path class="fil7" d="M4711.14 8179.54c0,17.98 -10.96,32.29 -23.15,31.99 -12.19,-0.3 -21.33,-15.84 -20.71,-33.81 0.61,-17.97 11.27,-32.59 23.15,-30.46 11.88,2.13 21.63,14.01 20.71,32.29z"/>
      <path class="fil7" d="M4685.55 8146.33l40.21 -14.01c0,0 -21.02,32.59 -40.21,14.01z"/>
      <path class="fil7" d="M4937.47 8184.72c0,18.28 -11.27,32.59 -23.46,30.46 -12.19,-2.13 -21.33,-15.54 -20.41,-33.81 0.92,-18.28 10.96,-32.59 23.15,-31.98 12.19,0.61 21.32,17.06 20.71,35.34z"/>
      <path class="fil7" d="M4911.58 8151.51l40.21 -14.01c0,0 -21.02,32.59 -40.21,14.01z"/>
      <path class="fil7" d="M5001.44 9437.93l617.47 0c17.71,-0.76 32.78,-13.21 36.86,-30.47l217.81 -964.13c0.8,-2.37 1.2,-4.85 1.2,-7.36 0,-12.78 -10.37,-23.15 -23.15,-23.15 -0.5,0 -1.01,0.01 -1.51,0.05l-617.47 0.02c-17.63,0.94 -32.6,13.31 -36.85,30.45l-217.81 964.13c-0.79,2.38 -1.2,4.86 -1.2,7.36 0,12.78 10.37,23.15 23.15,23.15 0.5,0 1.01,-0.01 1.51,-0.05l-0.01 0z"/>
      <path class="fil8" d="M5001.44 9437.93l617.47 0c17.72,-0.76 32.78,-13.21 36.87,-30.47l217.8 -964.13c0.8,-2.37 1.21,-4.85 1.21,-7.36 0,-12.78 -10.37,-23.15 -23.15,-23.15 -0.5,0 -1.01,0.01 -1.51,0.06l-617.47 0.01c-17.64,0.93 -32.61,13.3 -36.86,30.44l-217.8 964.13c-0.79,2.38 -1.2,4.87 -1.2,7.37 0,12.78 10.37,23.15 23.15,23.15 0.5,0 1.01,-0.01 1.51,-0.05l-0.01 0z"/>
      <path class="fil12" d="M5482.75 8814.37c38.08,0 60.92,38.99 49.04,87.12 -11.87,48.11 -50.56,86.81 -88.34,86.81 -37.77,0 -60.92,-39 -49.35,-86.81 37.78,0 77.69,-39.61 88.65,-87.12z"/>
      <path class="fil13" d="M5269.52 8570.37l65.48 0c6.68,-0.22 12.4,-4.82 14.03,-11.28l17.97 -79.21c0.17,-0.69 0.25,-1.41 0.25,-2.13 0,-5.05 -4.09,-9.14 -9.14,-9.14 -0.08,0 -0.16,0 -0.26,0l-65.49 0.01c-6.61,0.29 -12.29,4.85 -14.01,11.26l-17.96 79.21c-0.23,0.79 -0.36,1.63 -0.36,2.45 0,4.89 3.96,8.84 8.84,8.84 0.22,0 0.43,-0.01 0.65,-0.04l0 0.02z"/>
      <path class="fil7" d="M5324.34 8498.47c-1.83,7.92 2.43,14.63 9.13,14.63 7.79,-1.04 14.06,-6.92 15.55,-14.63 1.83,-7.92 -2.13,-14.63 -8.83,-14.63 -7.9,0.91 -14.31,6.81 -15.84,14.62l-0.01 0.01z"/>
      <path class="fil7" d="M5287.79 8498.47c-1.83,7.92 2.13,14.63 9.14,14.63 7.78,-1.04 14.04,-6.92 15.54,-14.63 1.83,-7.92 -2.13,-14.63 -9.13,-14.63 -7.78,1.03 -14.04,6.91 -15.54,14.62l-0.01 0.01z"/>
      <path class="fil7" d="M5314.9 8540.51c-1.83,8.22 2.13,14.62 9.14,14.62 7.83,-0.94 14.13,-6.88 15.55,-14.63 1.83,-7.92 -2.13,-14.31 -9.13,-14.31 -7.74,0.9 -14.01,6.68 -15.54,14.31l-0.01 0.01z"/>
      <path class="fil7" d="M5279.56 8540.51c-1.83,8.22 2.13,14.62 8.83,14.62 7.95,-0.82 14.41,-6.78 15.85,-14.63 1.83,-7.92 -2.44,-14.31 -9.14,-14.31 -7.74,0.9 -14.01,6.68 -15.54,14.31l-0 0.01z"/>
      <path class="fil13" d="M5196.09 8443.95l-218.11 964.13c-0.79,2.36 -1.2,4.85 -1.2,7.35 0,12.78 10.37,23.15 23.15,23.15 0.5,0 1.01,-0.01 1.51,-0.05l25.58 0.01c-0.4,0 -0.8,0.01 -1.2,0.01 -12.78,0 -23.15,-10.36 -23.15,-23.15 0,-2.49 0.4,-4.98 1.19,-7.33l217.81 -964.14c4.16,-17.19 19.19,-29.59 36.86,-30.46l-25.89 0.01c-17.59,0.87 -32.5,13.3 -36.55,30.46l-0.01 0.01z"/>
      <path class="fil13" d="M4634.08 9553.68c-94.74,154.48 -219.21,289.28 -365.54,395.99 -6.4,-152.31 -20.71,-346.36 -56.05,-483.43 -15.24,-60.93 -33.51,-125.2 -55.44,-197.4l-11.28 -37.17c26.57,-32.79 61.85,-57.54 101.76,-71.26 33.24,126.86 50.26,257.97 50.26,389.27 0,20.38 -0.56,41.33 -1.3,61.52l337.59 -57.53z"/>
      <path class="fil18" d="M4030.61 8877.42c-62.45,14.93 -30.46,774.35 70.98,954.38 101.44,180.03 813.95,-543.44 813.95,-543.44l-43.26 -130.98c0,0 -624.78,405.14 -638.18,398.74 -13.4,-6.4 13.71,-396.01 13.71,-396.01 0,0 -24.37,-141.95 -91.39,-222.37 -67.02,-80.42 -125.81,-60.32 -125.81,-60.32z"/>
      <path class="fil18" d="M4872.28 9158.59l118.5 -167.85 91.39 239.43c0,0 -131.6,129.47 -192.83,56.05l-17.06 -127.63z"/>
      <polygon class="fil18" points="5170.2,8928.91 5219.86,9118.69 5082.48,9230.18 4990.78,8990.74 "/>
      <polygon class="fil7" points="7962.67,13190.87 8116.81,13190.87 8064.72,12676.66 7858.49,12676.66 "/>
      <polygon class="fil7" points="6374.98,13190.87 6529.12,13190.87 6477.03,12676.66 6270.8,12676.66 "/>
      <polygon class="fil7" points="5383.74,13190.87 5229.6,13190.87 5281.69,12676.66 5487.92,12676.66 "/>
      <polygon class="fil7" points="6971.43,13190.87 6817.6,13190.87 6869.38,12676.66 7075.61,12676.66 "/>
      <polygon class="fil7" points="3145.38,13190.87 2991.24,13190.87 3043.34,12676.66 3249.56,12676.66 "/>
      <polygon class="fil7" points="4733.07,13190.87 4578.93,13190.87 4631.02,12676.66 4837.25,12676.66 "/>
      <polygon class="fil21" points="5383.74,13190.87 5229.61,13190.87 5281.69,12676.67 5487.93,12676.67 "/>
      <polygon class="fil21" points="6971.44,13190.87 6817.6,13190.87 6869.38,12676.67 7075.61,12676.67 "/>
      <polygon class="fil21" points="3145.39,13190.87 2991.24,13190.87 3043.34,12676.67 3249.56,12676.67 "/>
      <polygon class="fil21" points="4733.06,13190.87 4578.94,13190.87 4631.02,12676.67 4837.26,12676.67 "/>
      <polygon class="fil7" points="10045.06,13190.87 10198.9,13190.87 10147.11,12676.66 9940.88,12676.66 "/>
      <polygon class="fil7" points="8457.07,13190.87 8611.21,13190.87 8559.12,12676.66 8353.19,12676.66 "/>
      <path class="fil11" d="M3014.4 11460.62l4990.31 0c124.14,-0.02 224.81,100.66 224.81,224.8l0 877.93c0,124.13 -100.67,224.81 -224.81,224.81l-4990.31 0c-124.13,-0 -224.8,-100.68 -224.8,-224.82l-0.01 -877.91c0.01,-124.15 100.68,-224.82 224.82,-224.82z"/>
      <path class="fil8" d="M3014.4 11460.62l4990.3 0c124.14,-0.01 224.81,100.65 224.81,224.8l0 877.93c0,124.14 -100.67,224.8 -224.81,224.8l-4990.3 0.01c-124.13,-0.01 -224.8,-100.68 -224.8,-224.81l-0.01 -877.92c0.01,-124.15 100.69,-224.82 224.83,-224.82z"/>
      <path class="fil8" d="M5096.79 11460.62l2907.91 0c124.14,-0.01 224.81,100.65 224.81,224.8l0 877.93c0,124.14 -100.67,224.8 -224.81,224.8l-2907.91 0.01c-124.14,-0.01 -224.8,-100.68 -224.8,-224.81l-0.01 -877.92c0.01,-124.15 100.67,-224.82 224.81,-224.82z"/>
      <path class="fil11" d="M5200.66 11460.62l4990.31 0c124.14,-0.02 224.81,100.66 224.81,224.8l0 877.93c0,124.13 -100.67,224.81 -224.81,224.81l-4990.31 0c-124.13,-0 -224.8,-100.68 -224.8,-224.82l0 -877.91c0,-124.15 100.67,-224.82 224.81,-224.82z"/>
      <path class="fil8" d="M5200.67 11460.62l4990.31 0c124.14,-0.01 224.8,100.65 224.8,224.8l0 877.93c0,124.14 -100.67,224.8 -224.8,224.8l-4990.31 0.01c-124.14,-0.01 -224.81,-100.68 -224.81,-224.81l0 -877.92c0,-124.15 100.67,-224.82 224.81,-224.82z"/>
      <path class="fil8" d="M7283.06 11460.62l2907.93 0c124.14,-0.01 224.8,100.65 224.8,224.8l0 877.93c0,124.14 -100.67,224.8 -224.8,224.8l-2907.93 0.01c-124.13,-0.01 -224.8,-100.68 -224.8,-224.81l0 -877.92c0,-124.15 100.68,-224.82 224.81,-224.82z"/>
     </g>
     <g id="freepik--Plant--inject-55">
      <path class="fil11" d="M2507.5 12022.34l-2.13 0c-7.56,-1.02 -13.22,-7.48 -13.22,-15.11 0,-0.65 0.04,-1.31 0.13,-1.96 0,-2.74 2.13,-32.59 4.57,-84.38 3.96,-77.07 10.35,-238.52 8.22,-454.8 0.09,-1.56 0.13,-3.14 0.13,-4.71 0,-1.57 -0.04,-3.15 -0.13,-4.72 -2.74,-241.57 -15.84,-479.17 -38.39,-707.03 -21.02,-213.24 -50.87,-418.55 -88.95,-612.9 -32.33,-166.65 -74.28,-332.65 -123.89,-495.09l0 0 -0.09 -0.22c-7.62,-24.06 -15.23,-48.13 -23.15,-71.89 -7.92,-23.76 -13.1,-39.3 -20.11,-58.8 -17.67,-50.57 -33.81,-99.31 -47.82,-144.39 -30.46,-99 -58.49,-198 -81.33,-293.96 -14.01,-57.88 -26.5,-114.54 -36.86,-168.76 -41.1,-205.14 -65.3,-414.8 -70.67,-624.02 -2.13,-82.55 0,-164.8 3.65,-243.7 4.35,-83.31 13.81,-167.2 26.8,-249.9 0,-5.78 1.83,-11.27 2.74,-16.45l0 -7.92c0.25,-3.87 1.76,-7.51 4.28,-10.4 2.85,-2.89 6.75,-4.51 10.81,-4.51 4.06,0 7.96,1.62 10.81,4.51 3.12,3.19 4.88,7.48 4.88,11.95 0,1.1 -0.11,2.2 -0.32,3.28l-0.01 0 0 7.92c0,5.48 0,11.27 -2.74,17.06 -13.02,81.7 -22.19,164.18 -26.48,246.65 -4.27,78.9 -5.48,160.54 -3.35,242.17 5.35,207.33 29.57,415.41 69.93,619 10.36,53.92 22.85,109.97 36.86,167.24 22.54,95.35 49.96,193.74 80.73,292.13 14.01,44.78 30.46,91.39 47.52,143.48 7,19.5 13.7,39.3 20.41,59.1 6.7,19.8 15.53,48.13 22.85,72.2l0 0 -0.19 0.07c49.58,163.43 92.06,331.56 124.84,499.07 38.08,195.26 68.23,402.41 89.26,615.64 22.85,228.77 35.64,467.29 38.69,709.16 0,3.65 0,7 0,10.96 2.44,215.98 -3.96,378.35 -8.22,456.93 -2.13,52.4 -4.27,83.78 -4.57,86.51 -2.03,6.26 -7.99,10.57 -14.7,10.57 -0.26,0 -0.52,-0.01 -0.78,-0.02l-0.01 0.01z"/>
      <g>
       <path class="fil11" d="M2021.63 7765.25l0 0c0,0 0,0 0,0 53.49,-52.01 119.22,-90.03 190.98,-110.3l-190.98 110.3zm0 0l0 0 0 0z"/>
      </g>
      <path class="fil11" d="M2021.63 7779.87c-0.99,0.15 -2.02,0.23 -3.04,0.23 -1.02,0 -2.05,-0.08 -3.05,-0.24 -5.55,-2.51 -9.11,-8.05 -9.11,-14.14 0,-2.04 0.4,-4.07 1.19,-5.96 0.71,-1.79 1.75,-3.44 3.04,-4.87 0.06,-0.25 0.08,-0.51 0.08,-0.76 0,-0.26 -0.03,-0.51 -0.07,-0.76l-0.02 0c26.42,-25.48 55.87,-47.95 87.41,-66.69 34.56,-20.39 71.71,-36.34 110.3,-47.25 1.34,-0.35 2.72,-0.53 4.11,-0.53 8.71,0 15.78,7.06 15.78,15.77 0,7.13 -4.78,13.38 -11.66,15.23 -36.07,10.17 -70.8,25.04 -102.98,44.15 -29.25,17.2 -56.75,37.71 -81.59,60.93l-0.03 0.02c-2.66,2.93 -6.39,4.69 -10.35,4.87l-0.01 0z"/>
      <path class="fil11" d="M1991.48 8050.07c-3.56,-0.07 -7,-1.35 -9.74,-3.66l-102.96 -85.29c-3.46,-3 -5.44,-7.36 -5.44,-11.94 0,-3.51 1.17,-6.91 3.3,-9.68 2.95,-3.53 7.31,-5.56 11.91,-5.56 3.54,0 6.97,1.21 9.72,3.42l102.96 85.6c3.58,2.89 5.67,7.25 5.67,11.86 0,3.57 -1.26,7.03 -3.54,9.76 -3,3.42 -7.33,5.42 -11.88,5.49l-0.01 -0z"/>
      <path class="fil11" d="M2176.38 9377.61c-8.48,-0.46 -15.23,-7.34 -15.53,-15.85l0 0c3.83,-28.48 10.89,-56.58 21.02,-83.48 13.46,-38.12 32.65,-74.1 56.68,-106.6 17.67,-24.46 38.16,-46.91 60.89,-66.72 2.81,-2.43 6.39,-3.76 10.07,-3.76 8.47,0 15.33,6.86 15.33,15.33 0,4.44 -1.93,8.67 -5.28,11.58 -21.22,18.08 -40.52,38.62 -57.27,60.91 -22.15,30.24 -39.68,63.85 -51.78,99.31 -8.85,24.11 -15.31,49.24 -19.21,74.65 0.02,0.2 0.02,0.41 0.02,0.61 0,7.74 -6.27,14.01 -14.01,14.01 -0.2,0 -0.42,-0.01 -0.62,-0.02l-0.32 0.02z"/>
      <path class="fil11" d="M2267.77 9652.07c-6.05,-0.06 -11.52,-3.63 -14,-9.14 -29.48,-65.01 -84.7,-115.06 -152.3,-138.01 -6.55,-1.85 -11.06,-7.83 -11.06,-14.63 0,-8.41 6.82,-15.23 15.23,-15.23 1.8,0 3.59,0.32 5.26,0.94 75.93,25.45 137.89,81.46 170.88,154.43 0.95,2.01 1.45,4.19 1.45,6.4 0,5.98 -3.56,11.37 -9.05,13.72 -2,0.94 -4.19,1.46 -6.39,1.52l-0.01 0z"/>
      <g>
       <path class="fil11" d="M2500.8 11014.04c-35.03,-38.39 -66.71,-189.78 -83.78,-270.81 -4.27,-19.5 -7.62,-35.94 -10.35,-48.13l94.13 318.94zm0 0l0 0 0 0z"/>
      </g>
      <path class="fil11" d="M2500.8 11029.57c-4.4,-0.04 -8.6,-1.93 -11.56,-5.19 -34.73,-38.38 -63.36,-163.58 -87.43,-278.12 -3.96,-19.19 -7.31,-35.64 -10.05,-47.52 -0.26,-1.15 -0.39,-2.33 -0.39,-3.5 0,-8.63 7,-15.63 15.63,-15.63 7.28,0 13.6,5.03 15.23,12.13 3.05,11.88 6.4,28.63 10.66,48.44 15.54,74.02 47.82,228.16 80.11,263.8 2.38,2.8 3.69,6.37 3.69,10.06 0,8.36 -6.61,15.22 -14.97,15.52l-0.92 0.01z"/>
      <path class="fil11" d="M2095.35 9084.26c-0.1,0 -0.21,0 -0.33,0 -8.06,0 -14.72,-6.28 -15.2,-14.32 -1.83,-24.98 -40.82,-614.72 284.52,-850.81 2.58,-1.84 5.68,-2.83 8.85,-2.83 4.96,0 9.62,2.42 12.47,6.49 1.99,2.6 3.07,5.79 3.07,9.06 0,4.89 -2.4,9.48 -6.42,12.26 -311.63,225.72 -272.33,817.6 -271.73,822.48 0.04,0.41 0.06,0.83 0.06,1.24 0,8.08 -6.31,14.75 -14.37,15.21l-0.93 1.22z"/>
      <path class="fil11" d="M2122.16 10367.33c-37.17,142.87 278.12,397.83 278.12,397.83 0,0 399.96,-67.93 437.13,-210.8 37.16,-142.87 -74.33,-369.2 -272.03,-420.69 -197.7,-51.49 -405.75,90.78 -443.22,233.65z"/>
      <path class="fil11" d="M1710.31 8671.81c45.09,148.04 337.22,241.57 337.22,241.57 0,0 190.39,-240.65 145.3,-388.7 -45.09,-148.05 -211.41,-304.62 -344.53,-265.33 -133.12,39.3 -183.08,264.41 -137.99,412.46z"/>
      <path class="fil11" d="M2489.23 9117.77c-35.36,32.56 -76.83,58.18 -121.85,75.22 -14.55,5.41 -29.96,8.19 -45.48,8.19 -32.23,0 -63.35,-11.94 -87.31,-33.45 -40.52,-42.65 -33.21,-112.1 -11.28,-166.94 43.56,-108.44 213.24,-296.7 352.44,-251 202.26,66.11 -1.23,298.83 -86.52,367.98z"/>
      <path class="fil11" d="M2097.49 9406.55c27.11,30.46 56.35,70.06 43.87,109.67 -13.13,30.06 -42.83,49.5 -75.65,49.5 -4.44,0 -8.91,-0.36 -13.29,-1.08 -36.06,-6.74 -70.19,-21.69 -99.6,-43.58 -71.89,-45.09 -219.02,-140.43 -132.2,-239.43 86.81,-99 219.31,59.72 276.88,124.92z"/>
      <path class="fil11" d="M2620.83 8030.28c30.93,0.19 58.18,20.41 67.33,49.95 7.62,34.12 -19.8,65.5 -46.61,88.34 -66.71,56.35 -268.37,209.28 -320.77,72.5 -49.66,-129.16 207.74,-217.19 300.05,-210.79z"/>
      <path class="fil11" d="M2217.81 7590.4c42.95,2.13 84.99,-15.23 128.25,-14.31 43.26,0.92 91.39,33.2 84.69,75.85 -6.7,42.65 -54.83,54.22 -94.74,58.49 -26.06,2.62 -52.44,4.04 -78.74,4.04 -41.6,0 -83.39,-3.48 -124.42,-10.15 -15.91,-0.73 -30.96,-7.49 -42.06,-18.89 -18.58,-24.98 7.62,-60.93 36.86,-70.67 29.24,-9.75 62.75,-8.83 88.95,-25.59l1.2 1.23z"/>
      <path class="fil11" d="M1811.45 7903.85c-42.95,3.35 -85.6,-13.41 -128.55,-11.58 -42.95,1.83 -91.39,35.34 -82.86,77.68 8.53,42.34 55.75,53 95.65,56.35 21.93,1.9 44.13,2.84 66.14,2.84 45.9,0 91.89,-4.23 137.04,-12.32 15.87,-0.9 30.75,-8.03 41.44,-19.77 17.98,-25.28 -8.83,-60.93 -38.08,-70.06 -29.25,-9.14 -63.06,-7.31 -89.56,-23.15l-1.22 0z"/>
      <g>
       <path class="fil22" d="M2122.16 10367.33c-37.16,142.87 278.12,397.84 278.12,397.84 0,0 399.97,-67.93 437.13,-210.8 37.16,-142.88 -74.34,-369.2 -272.04,-420.69 -197.7,-51.48 -405.75,90.78 -443.21,233.65z"/>
       <path class="fil22" d="M1710.31 8671.8c45.08,148.05 337.21,241.57 337.21,241.57 0,0 190.39,-240.65 145.31,-388.7 -45.09,-148.05 -211.41,-304.62 -344.53,-265.33 -133.13,39.29 -183.08,264.41 -137.99,412.45z"/>
       <path class="fil22" d="M2489.23 9117.77c-35.36,32.56 -76.84,58.17 -121.85,75.22 -14.55,5.41 -29.97,8.19 -45.49,8.19 -32.22,0 -63.35,-11.94 -87.32,-33.45 -40.51,-42.65 -33.2,-112.11 -11.26,-166.94 43.56,-108.44 213.23,-296.69 352.44,-251 202.26,66.11 -1.23,298.84 -86.52,367.99z"/>
       <path class="fil22" d="M2097.48 9406.56c27.11,30.46 56.36,70.06 43.87,109.66 -13.13,30.06 -42.82,49.5 -75.65,49.5 -4.44,0 -8.91,-0.36 -13.29,-1.08 -36.06,-6.73 -70.19,-21.69 -99.61,-43.57 -71.89,-45.09 -219.01,-140.43 -132.2,-239.43 86.81,-99 219.3,59.72 276.87,124.92z"/>
       <path class="fil22" d="M2620.83 8030.27c30.93,0.19 58.17,20.42 67.32,49.95 7.63,34.12 -19.8,65.5 -46.61,88.34 -66.7,56.35 -268.37,209.28 -320.77,72.5 -49.67,-129.15 207.75,-217.19 300.05,-210.8z"/>
       <path class="fil22" d="M2217.81 7590.4c42.96,2.14 84.99,-15.23 128.25,-14.31 43.27,0.92 91.4,33.21 84.69,75.86 -6.7,42.64 -54.83,54.22 -94.74,58.49 -26.06,2.61 -52.44,4.03 -78.75,4.03 -41.59,0 -83.38,-3.47 -124.42,-10.15 -15.91,-0.74 -30.95,-7.49 -42.05,-18.89 -18.58,-24.98 7.62,-60.92 36.86,-70.68 29.24,-9.74 62.74,-8.83 88.94,-25.58l1.2 1.22z"/>
       <path class="fil22" d="M1811.44 7903.85c-42.94,3.35 -85.59,-13.41 -128.55,-11.58 -42.95,1.83 -91.39,35.34 -82.86,77.69 8.54,42.34 55.74,53 95.67,56.35 21.93,1.91 44.11,2.85 66.13,2.85 45.91,0 91.9,-4.23 137.04,-12.33 15.87,-0.89 30.75,-8.02 41.44,-19.77 17.98,-25.28 -8.83,-60.92 -38.08,-70.06 -29.24,-9.13 -63.04,-7.3 -89.56,-23.15l-1.22 0z"/>
      </g>
      <path class="fil11" d="M2009.76 7821.91l0 0c-7.93,-0.61 -14.06,-7.22 -14.06,-15.18 0,-0.42 0.02,-0.85 0.05,-1.26 5.78,-83.77 -3.35,-164.19 -18.89,-168.76 -6.65,-2.04 -11.18,-8.19 -11.18,-15.14 0,-1.37 0.18,-2.73 0.53,-4.05 2,-6.53 8.02,-10.98 14.85,-10.98 1.46,0 2.93,0.21 4.34,0.62 48.44,14.31 44.78,145 40.81,200.44 -0.45,8.07 -7.12,14.37 -15.2,14.37 -0.42,0 -0.83,-0.02 -1.24,-0.05l-0.01 -0.01z"/>
      <path class="fil11" d="M2028.34 7676.61c9.75,-63.36 18.89,-130.07 -4.27,-189.78 -23.15,-59.7 -91.39,-106.62 -152.31,-83.46 -66.71,25.89 -78.59,121.85 -41.12,182.77 37.46,60.93 106.61,93.82 171.5,123.68l18.58 -25.59 7.62 -7.62z"/>
      <g>
       <path class="fil22" d="M2028.34 7676.61c9.74,-63.36 18.89,-130.07 -4.28,-189.78 -23.15,-59.7 -91.38,-106.62 -152.3,-83.45 -66.71,25.88 -78.59,121.83 -41.13,182.77 37.47,60.92 106.61,93.81 171.5,123.67l18.58 -25.59 7.63 -7.61z"/>
      </g>
      <path class="fil11" d="M2585.49 12266.65c0,2.43 -11.27,14.01 32.59,17.06 107.83,6.7 298.22,4.88 367.07,-86.81 98.39,-130.68 -137.08,-124.28 -116.37,-197.4 20.71,-73.11 274.16,-6.4 322.29,-109.97 48.13,-103.57 -137.39,-88.04 -130.38,-141.65 7,-53.61 202.27,21.02 262.58,-88.64 60.31,-109.66 -106.62,-54.53 -80.73,-99.92 25.89,-45.39 234.87,-231.81 146.83,-276.9 -88.04,-45.09 -283.61,150.18 -349.4,169.98 -65.79,19.8 -86.81,-176.99 -172.42,-113.63 -85.6,63.37 -19.19,361.89 -120.02,396.01 -74.94,25.59 -36.86,-79.81 -130.07,-77.98 -127.02,2.44 -156.57,417.33 -31.98,609.86z"/>
      <g>
       <path class="fil23" d="M2585.49 12266.64c0,2.44 -11.27,14.01 32.59,17.06 107.84,6.71 298.22,4.89 367.07,-86.81 98.39,-130.68 -137.08,-124.28 -116.37,-197.39 20.72,-73.11 274.16,-6.4 322.29,-109.97 48.11,-103.57 -137.39,-88.04 -130.39,-141.65 7.01,-53.61 202.27,21.02 262.58,-88.64 60.32,-109.65 -106.61,-54.52 -80.72,-99.92 25.89,-45.38 234.87,-231.81 146.83,-276.9 -88.04,-45.08 -283.61,150.17 -349.4,169.98 -65.79,19.79 -86.81,-176.99 -172.42,-113.63 -85.59,63.37 -19.19,361.9 -120.01,396.02 -74.94,25.58 -36.86,-79.82 -130.08,-77.99 -127.01,2.44 -156.57,417.34 -31.98,609.86z"/>
      </g>
      <path class="fil13" d="M3031.46 11718.94c-23.28,-4.2 -47.02,-6.34 -70.71,-6.34 -13.48,0 -27.09,0.69 -40.46,2.05 16.91,-17.72 35.07,-34.36 54.23,-49.61 4.69,-2.83 7.57,-7.9 7.57,-13.38 0,-8.57 -6.95,-15.53 -15.53,-15.53 -3.96,0 -7.76,1.51 -10.63,4.21 -31.54,26.31 -61.27,55.37 -88.36,86.19 -2.49,1.45 -4.43,3.72 -5.46,6.43 -12.79,14.3 -26.2,30.45 -40.21,47.81 5.75,-112.17 40.09,-221.29 99.61,-316.54 1.78,-2.52 2.74,-5.56 2.74,-8.67 0,-5.05 -2.51,-9.78 -6.69,-12.62 -2.56,-1.7 -5.57,-2.62 -8.63,-2.62 -5.05,0 -9.79,2.46 -12.7,6.58 -68.44,107.68 -104.94,232.81 -104.94,360.5 0,4.59 0.09,9.35 0.17,13.86 -39.05,54.26 -74.19,111.71 -104.83,171.17l0.02 0.07c-1.85,1.94 -3.12,4.36 -3.65,7 -13.71,27.1 -27.12,56.04 -40.21,86.2 -13.84,-47.01 -20.91,-95.86 -20.91,-144.85 0,-20.9 1.31,-41.91 3.81,-62.61 0.09,-0.53 0.12,-1.07 0.12,-1.61 0,-7.74 -5.8,-14.26 -13.49,-15.14 -0.73,-0.1 -1.47,-0.16 -2.22,-0.16 -7.61,0 -13.99,5.72 -14.84,13.27 -2.94,22.35 -4.45,45.04 -4.45,67.63 0,63.76 11.89,126.96 34.89,186.39 -38.52,96.77 -68.12,197.83 -87.64,300.09 -0.23,0.9 -0.31,1.81 -0.31,2.74 0,7.38 5.19,13.76 12.43,15.23l3.04 0c7.34,-0.04 13.61,-5.29 14.94,-12.5 26.58,-147.03 74.56,-289.67 142.01,-422.85 34.26,-31.24 79.06,-48.58 125.5,-48.58 17.7,0 35.37,2.52 52.34,7.49 1.47,0.46 3.02,0.69 4.57,0.69 8.78,0 15.89,-7.13 15.89,-15.91 0,-7.02 -4.61,-13.21 -11.33,-15.23 -20.12,-6.4 -41.2,-9.7 -62.33,-9.7 -32.67,0 -64.92,7.83 -93.95,22.8 40.87,-72.17 89.29,-140.14 144.12,-202.26 25.17,-6.19 51.07,-9.34 77.04,-9.34 21.27,0 42.52,2.13 63.36,6.28 0.86,0.13 1.74,0.2 2.59,0.2 8.54,0 15.46,-6.91 15.46,-15.44 0,-7.54 -5.43,-13.98 -12.86,-15.24l0.91 1.84z"/>
      <path class="fil11" d="M2534.01 12383.01c-83.46,5.18 -229.07,-66.1 -288.17,-138.91 -59.09,-72.81 101.44,-33.51 82.56,-91.39 -18.89,-57.87 -213.24,-6.4 -253.75,-91.39 -40.52,-84.99 102.66,-70.67 95.04,-114.24 -7.62,-43.56 -154.14,-28.33 -205.31,-117.58 -51.18,-89.25 80.42,-43.87 58.49,-80.73 -21.93,-36.86 -191,-189.17 -124.59,-225.42 66.41,-36.25 225.42,121.85 277.2,139.51 51.79,17.67 58.49,-99 127.03,-47.22 68.54,51.79 30.46,293.66 109.05,321.98 59.1,21.02 30.46,-87.73 97.48,-62.75 120.32,42.65 59.39,505.98 24.98,508.11z"/>
      <g>
       <path class="fil22" d="M2534.01 12383.02c-83.47,5.17 -229.07,-66.11 -288.17,-138.91 -59.11,-72.8 101.43,-33.51 82.54,-91.38 -18.88,-57.88 -213.23,-6.4 -253.74,-91.39 -40.51,-84.99 102.66,-70.67 95.04,-114.24 -7.62,-43.56 -154.13,-28.33 -205.3,-117.57 -51.17,-89.26 80.42,-43.87 58.49,-80.73 -21.93,-36.86 -191,-189.16 -124.6,-225.42 66.41,-36.24 225.43,121.85 277.2,139.51 51.8,17.67 58.5,-99 127.04,-47.21 68.54,51.79 30.46,293.65 109.05,321.98 59.09,21.01 30.46,-87.74 97.48,-62.76 120.33,42.66 59.39,505.98 24.98,508.12z"/>
      </g>
      <path class="fil13" d="M2557.16 12440.89c-16.33,-61.77 -37.11,-123.37 -60.95,-182.7 -23.85,-59.33 0,0 0,-1.83 21.58,-53.44 32.7,-110.58 32.7,-168.16 0,-20.81 -1.49,-41.63 -4.33,-62.22 -0.94,-7.7 -7.48,-13.51 -15.24,-13.51 -8.46,0 -15.33,6.87 -15.33,15.34 0,0.61 0.03,1.22 0.11,1.83 2.3,18.41 3.49,37.08 3.49,55.63 0,44.93 -6.83,89.75 -20.23,132.61 -20.33,-45.88 -41.56,-89.33 -63.69,-130.36 0.31,-1.22 0.47,-2.46 0.47,-3.72 0,-4.14 -1.72,-8.09 -4.73,-10.91 -1.99,-2.11 -4.24,-3.95 -6.71,-5.48 -17.37,-30.46 -34.72,-60.92 -52.4,-87.74 0.02,-3.44 0.09,-7.09 0.09,-10.6 0,-113.05 -32.77,-223.89 -94.24,-318.69 -2.77,-4.05 -7.37,-6.46 -12.28,-6.46 -3.14,0 -6.19,0.98 -8.72,2.81 -4.19,2.83 -6.7,7.56 -6.7,12.61 0,3.12 0.95,6.15 2.74,8.71 50.26,79.59 80.43,170.31 87.71,264.09 -60.09,-90.42 -129.79,-174.42 -207.4,-250.34 -2.89,-2.92 -6.79,-4.54 -10.85,-4.54 -4.07,0 -7.96,1.62 -10.81,4.52 -2.79,2.83 -4.36,6.66 -4.36,10.65 0,3.99 1.57,7.81 4.36,10.66 57.51,55.62 110.84,116.57 158.46,180.91 -41.7,-12.48 -84.98,-18.89 -128.48,-18.89 -7.93,0 -15.99,0.28 -23.86,0.65 -8.14,0.78 -14.35,7.6 -14.35,15.76 0,0.13 0,0.26 0.01,0.37 0.61,8.11 7.36,14.35 15.48,14.35 0.32,0 0.65,-0.01 0.96,-0.02 7.34,-0.33 14.83,-0.59 22.22,-0.59 49.35,0 98.4,8.77 144.7,25.85l1.82 0 3.35 0 3.06 0.04c0.36,0.08 0.72,0.12 1.07,0.12 0.36,0 0.72,-0.04 1.07,-0.13 24.37,34.42 49.65,72.8 74.63,114.25 -22.21,-8.56 -45.92,-12.99 -69.76,-12.99 -20.17,0 -40.22,3.15 -59.41,9.31 -6.37,2.1 -10.69,8.06 -10.69,14.78 0,1.49 0.22,2.99 0.64,4.43 2.09,6.37 8.04,10.69 14.76,10.69 1.49,0 2.99,-0.22 4.43,-0.64 16.28,-5.15 33.33,-7.81 50.43,-7.81 35.43,0 69.96,11.29 98.52,32.18 63.66,113.57 113.11,235.05 146.83,360.74 1.79,6.56 7.77,11.17 14.63,11.21l3.95 0c7.44,-1.31 12.86,-7.77 12.86,-15.31 0,-0.49 -0.02,-0.98 -0.07,-1.45l0 0.01z"/>
      <path class="fil7" d="M3122.54 12617.87c0,316.5 139.82,573 -573,573 -633.61,0 -573.3,-256.5 -573.3,-573 0,-316.5 257.11,-405.15 573.31,-405.15 316.2,0 572.99,88.34 572.99,405.15z"/>
      <rect class="fil7" x="1915.93" y="12205.41" width="1269.05" height="314.07"/>
      <polygon class="fil8" points="1915.93,12519.48 3184.98,12519.48 3184.98,12205.41 1915.93,12205.41 "/>
     </g>
    </g>
   </g>
  </g>
  <path class="fil24 str0" d="M2148.55 1553.81l10702.91 0c547.87,0 996.11,448.24 996.11,996.11l0 11384.52c0,547.86 -448.24,996.11 -996.11,996.11l-10702.91 0c-547.86,0 -996.11,-448.24 -996.11,-996.11l0 -11384.52c0,-547.86 448.24,-996.11 996.11,-996.11z"/>
  <path class="fil25" d="M7499.81 69.43c837.54,0 1516.5,678.96 1516.5,1516.5 0,837.54 -678.96,1516.5 -1516.5,1516.5 -837.54,0 -1516.5,-678.96 -1516.5,-1516.5 0,-837.54 678.96,-1516.5 1516.5,-1516.5z"/>
  <g style="clip-path:url(#id1)">
   <g>
   </g>
   <g style="clip-path:url(#id2)">
    <image x="6219.27" y="634.08" width="2592.98" height="2074.39" xlink:href="ebook_Images\ebook_ImgID1.png"/>
   </g>
   <g style="clip-path:url(#id3)">
   </g>
  </g>
  <path class="fil24 str0" d="M7499.81 69.43c837.54,0 1516.5,678.96 1516.5,1516.5 0,837.54 -678.96,1516.5 -1516.5,1516.5 -837.54,0 -1516.5,-678.96 -1516.5,-1516.5 0,-837.54 678.96,-1516.5 1516.5,-1516.5z"/>
 </g>
</svg>
