<?xml version="1.0" encoding="UTF-8"?>
<!DOCTYPE svg PUBLIC "-//W3C//DTD SVG 1.1//EN" "http://www.w3.org/Graphics/SVG/1.1/DTD/svg11.dtd">
<!-- Creator: CorelDRAW 2021 (64-Bit) -->
<svg xmlns="http://www.w3.org/2000/svg" xml:space="preserve" width="15in" height="15in" version="1.1" style="shape-rendering:geometricPrecision; text-rendering:geometricPrecision; image-rendering:optimizeQuality; fill-rule:evenodd; clip-rule:evenodd"
viewBox="0 0 15000 15000"
 xmlns:xlink="http://www.w3.org/1999/xlink"
 xmlns:xodm="http://www.corel.com/coreldraw/odm/2003">
 <defs>
  <style type="text/css">
   <![CDATA[
    .str2 {stroke:#263238;stroke-width:102;stroke-linecap:round;stroke-linejoin:round;stroke-miterlimit:2.61313}
    .str1 {stroke:#263238;stroke-width:51;stroke-linecap:round;stroke-linejoin:round;stroke-miterlimit:2.61313}
    .str3 {stroke:#263238;stroke-width:34;stroke-linecap:round;stroke-linejoin:round;stroke-miterlimit:2.61313}
    .str5 {stroke:black;stroke-width:13.89;stroke-linecap:round;stroke-linejoin:round;stroke-miterlimit:2.61313}
    .str0 {stroke:#263238;stroke-width:17;stroke-linecap:round;stroke-linejoin:round;stroke-miterlimit:2.61313}
    .str4 {stroke:#7A7A7A;stroke-width:17;stroke-linecap:round;stroke-linejoin:round;stroke-miterlimit:2.61313}
    .fil10 {fill:none}
    .fil3 {fill:none;fill-rule:nonzero}
    .fil0 {fill:#2063F2}
    .fil11 {fill:white}
    .fil1 {fill:#2063F2;fill-rule:nonzero}
    .fil4 {fill:#263238;fill-rule:nonzero}
    .fil8 {fill:#474747;fill-rule:nonzero}
    .fil6 {fill:#4C4C4C;fill-rule:nonzero}
    .fil9 {fill:#7A7A7A;fill-rule:nonzero}
    .fil7 {fill:white;fill-rule:nonzero}
    .fil5 {fill:black;fill-rule:nonzero;fill-opacity:0.200000}
    .fil2 {fill:white;fill-rule:nonzero;fill-opacity:0.701961}
   ]]>
  </style>
    <clipPath id="id0">
     <path d="M2064.52 1343.79l10870.95 0c556.47,0 1011.75,455.28 1011.75,1011.75l0 11563.26c0,556.46 -455.28,1011.75 -1011.75,1011.75l-10870.95 0c-556.46,0 -1011.74,-455.28 -1011.74,-1011.75l0 -11563.26c0,-556.47 455.28,-1011.75 1011.74,-1011.75z"/>
    </clipPath>
     <clipPath id="id1">
      <rect x="6401.43" y="532.72" width="2197.13" height="2154.06"/>
     </clipPath>
 </defs>
 <g id="Layer_x0020_1">
  <metadata id="CorelCorpID_0Corel-Layer"/>
  <g id="_1607164685200">
   <path class="fil0" d="M2064.52 1343.79l10870.95 0c556.47,0 1011.75,455.28 1011.75,1011.75l0 11563.26c0,556.46 -455.28,1011.75 -1011.75,1011.75l-10870.95 0c-556.46,0 -1011.74,-455.28 -1011.74,-1011.75l0 -11563.26c0,-556.47 455.28,-1011.75 1011.74,-1011.75z"/>
   <g style="clip-path:url(#id0)">
    <g>
     <g>
      <g id="freepik--background-simple--inject-41">
       <path id="_1" class="fil1" d="M3483.61 7495.09c0,0 -101.83,1533.41 1072.77,2762.28 1174.59,1228.87 2934.62,1596.04 4355.77,1930.51 1421.15,334.47 2599.92,-290.64 2886.61,-1484.48 286.69,-1193.84 -771,-1735.44 -1226.31,-3225.48 -455.32,-1490.04 -357.2,-1938.39 -1527.39,-3003.28 -1170.18,-1064.88 -3185.35,-866.79 -4359.95,427.94 -1174.59,1294.74 -1201.49,2592.5 -1201.49,2592.5z"/>
       <path class="fil2" d="M3483.61 7495.1c0,0 -101.82,1533.41 1072.76,2762.28 1174.6,1228.87 2934.63,1596.05 4355.77,1930.51 1421.15,334.48 2599.93,-290.64 2886.61,-1484.48 286.68,-1193.83 -771,-1735.44 -1226.31,-3225.48 -455.32,-1490.03 -357.2,-1938.39 -1527.39,-3003.26 -1170.18,-1064.89 -3185.36,-866.8 -4359.94,427.94 -1174.6,1294.73 -1201.5,2592.49 -1201.5,2592.49z"/>
      </g>
      <g id="freepik--Wallpaper--inject-41">
       <path class="fil3 str0" d="M5178.23 4632.38l0 6897.93c0,163.48 -46.92,323.71 -135.03,461.36l-40.36 62.86c-103.03,161.13 -257.23,283.07 -437.65,346.24l-2585.07 905.81 6964.5 0 2528.24 -842.67c150.85,-50.46 284.85,-142 386.63,-264.18l63.79 -76.54c128.33,-153.56 198.94,-347.71 199.04,-547.91l0 -6941.5"/>
       <path class="fil4 str0" d="M5105.4 4878.71l0 0c0,0 0,0 0,0 -49.85,0 -90.41,-40.14 -90.93,-89.99l0 -148.68c0.13,-50.16 40.77,-90.8 90.93,-90.93l0 0c50.22,0 90.93,40.72 90.93,90.93l-0.01 148.68c-0.37,49.82 -40.87,90 -90.68,90 -0.08,0 -0.16,0 -0.23,0l-0.01 0z"/>
       <path class="fil4 str0" d="M12175.21 4549.11l0 0c50.21,0 90.93,40.72 90.93,90.93l0 147.75c0,50.21 -40.72,90.93 -90.93,90.93l0 0c-50.21,0 -90.93,-40.72 -90.93,-90.93l0 -147.75c0,-50.21 40.72,-90.93 90.93,-90.93z"/>
       <line class="fil3 str1" x1="4846.55" y1="4611.27" x2="12319.71" y2= "4611.27" />
      </g>
      <g id="freepik--light-2--inject-41">
       <path class="fil5" d="M12672.97 13019.89c0,-190.48 -598.89,-344.91 -1337.65,-344.91 -738.76,0 -1337.65,154.43 -1337.65,344.91 0,190.48 598.89,344.91 1337.65,344.91 738.76,0 1337.65,-154.43 1337.65,-344.91z"/>
       <circle class="fil6" cx="10516.77" cy="6075.1" r="895.32"/>
       <line class="fil3 str2" x1="11330.69" y1="5851.28" x2="11330.69" y2= "12697.02" />
       <path class="fil4 str0" d="M11507.43 6037.53l-494.75 137.55c-26.33,7.23 -53.67,10.95 -81,10.95 -136.93,0 -257.13,-91.31 -293.84,-223.2l0.01 0.02c-7.37,-26.52 -11.13,-54.02 -11.13,-81.59 0,-136.97 91.39,-257.12 223.37,-293.7l494.75 -137.55c26.51,-7.37 54.01,-11.13 81.58,-11.13 136.96,0 257.12,91.39 293.7,223.37l0 -0.01c7.33,26.48 11.09,53.98 11.09,81.47 0,137.12 -91.61,257.38 -223.78,293.81l-0.01 0.01z"/>
       <polyline class="fil3 str2" points="10311.27,13147.93 11310.96,10481.9 12526.38,13187.12 "/>
       <path class="fil3 str3" d="M11669.56 5671.97c0,0 334.47,-20.87 334.47,438.85 0,459.72 -815.07,836.18 -815.07,1170.41 0,334.24 313.36,376.22 313.36,731.57 0,355.35 -229.86,208.76 -271.61,585.21 -41.76,376.45 292.49,995.99 188.11,1267.6 -104.38,271.61 -298.98,397.1 -108.32,616.29"/>
      </g>
      <g id="freepik--light-1--inject-41">
       <path class="fil5" d="M4358.76 12070.06c0,-144.24 -524.01,-261.17 -1170.42,-261.17 -646.41,0 -1170.42,116.93 -1170.42,261.17 0,144.24 524.01,261.17 1170.42,261.17 646.41,0 1170.42,-116.93 1170.42,-261.17z"/>
       <line class="fil3 str2" x1="3171.41" y1="6800.64" x2="3171.41" y2= "12057.54" />
       <polyline class="fil3 str2" points="2337.09,12090.93 3154.71,9520.94 4206.14,12024.13 "/>
       <polygon class="fil4 str0" points="3838.26,5211.56 3471.32,6095.98 3458.1,7402.31 3838.26,8161.72 "/>
       <polygon class="fil7 str0" points="3838.26,5211.56 4888.3,5199.96 4876.7,8087.26 3838.26,8161.72 "/>
       <path class="fil4 str0" d="M3641.57 6861.87l-508.9 -6.49c-123.31,-1.63 -222.45,-102.09 -222.45,-225.43 0,-0.91 0.03,-1.93 0.03,-2.81l-0.02 0c1.63,-123.31 102.1,-222.46 225.44,-222.46 0.91,0 1.93,0.03 2.81,0.03l508.89 6.72 -5.8 450.44z"/>
       <path class="fil3 str3" d="M3041.98 6667.5c0,0 -229.86,-62.63 -229.86,292.49 0,355.12 417.51,710.69 459.72,1086.91 42.22,376.22 -237.05,445.81 -223.13,724.38 13.92,278.57 411.24,278.34 285.99,466.91l-125.48 188.11"/>
      </g>
      <g id="freepik--character-2--inject-41">
       <path class="fil5" d="M9761.54 12518.18c0,-139.37 -606.05,-252.36 -1353.65,-252.36 -747.61,0 -1353.66,112.99 -1353.66,252.36 0,139.37 606.05,252.37 1353.66,252.37 747.6,0 1353.65,-112.99 1353.65,-252.37z"/>
       <path class="fil4 str0" d="M8297.95 6096.67c-46.77,-25.69 -99.33,-39.17 -152.72,-39.17 -33.74,0 -67.37,5.43 -99.41,15.96 -150.07,43.61 -363.46,145.43 -373.21,227.77 -9.74,82.34 111.57,140.56 111.57,218.03 0,77.47 33.86,344.21 -53.35,567.12 -87.21,222.9 -179.3,911.32 -125.95,1211.7 53.35,300.37 281.12,475.04 567.11,533.48 286,58.45 518.64,-53.35 625.1,-164.92 106.47,-111.57 82.57,-213.16 48.48,-343.98 -34.09,-130.82 155.17,-101.82 189.04,-426.56 33.87,-324.73 -140.57,-486.38 -179.31,-602.35 -38.74,-115.98 -247.26,-620.47 -290.87,-828.98 -43.61,-208.52 -164.69,-314.76 -266.51,-368.11z"/>
       <path class="fil7 str0" d="M8702.24 7390.02c57.71,4.48 106.02,45.59 119.68,101.83 26.91,98.58 -6.03,263.03 -56.83,385.73 -50.8,122.7 -41.98,263.02 -98.81,367.17 -56.83,104.15 -62.86,149.37 -152.62,137.55 -89.76,-11.83 -47.78,-208.76 -32.94,-340.97 14.84,-132.21 128.73,-630.91 128.73,-639.95 0,-9.05 51.03,-29.22 92.78,-11.36z"/>
       <path class="fil7 str0" d="M7616.25 7208.18c0,0 -122.93,-45.23 -187.41,115.97 -64.48,161.2 -46.39,1066.97 -46.39,1066.97 0,0 -89.77,365.32 -147.06,541.37 -72.83,222.91 -151.47,327.28 -183.71,372.51 -32.24,45.23 -224.99,217.1 -224.99,255.14 0,38.04 83.96,96.95 83.96,96.95 -15.63,10.06 -25.08,27.41 -25.08,46.01 0,2.99 0.24,6.01 0.74,8.96 4.87,38.74 29.22,4.87 58.22,-19.48 28.99,-24.35 72.6,-92.78 125.95,-140.56 53.35,-47.78 121.78,-202.96 121.78,-202.96 0,0 258.63,-417.51 324.73,-543.46 140.56,-271.38 135.69,-465.29 135.69,-465.29 0,0 0,-421.69 19.25,-537.89 19.25,-116.2 48.48,-499.39 48.48,-499.39 0,0 -29.93,-107.61 -104.16,-94.85z"/>
       <path class="fil1 str0" d="M7207.33 9299.89l-565.5 846.85c0,0 92.78,125.72 222.44,173.96 129.67,48.24 343.06,-1020.81 343.06,-1020.81z"/>
       <g>
        <path class="fil7" d="M6946.38 9546.45c0,0 -57.06,114.35 -57.98,139.17 -0.93,24.81 4.87,72.6 43.61,33.86 38.74,-38.74 62.63,-96.72 92.78,-115.98 41.3,-30.1 69.18,-75.3 77.48,-125.72 0.78,-7.72 1.2,-15.52 1.2,-23.3 0,-23.58 -3.72,-47.06 -10.94,-69.48l-146.13 161.45zm0 0l0 0 0 0z"/>
        <path id="_1_0" class="fil3 str0" d="M6946.38 9546.45c0,0 -57.06,114.35 -57.98,139.17 -0.93,24.81 4.87,72.6 43.61,33.86 38.74,-38.74 62.63,-96.72 92.78,-115.98 41.3,-30.1 69.18,-75.3 77.48,-125.72 0.78,-7.72 1.2,-15.52 1.2,-23.3 0,-23.58 -3.72,-47.06 -10.94,-69.48m-146.13 161.45l0 0 0 0z"/>
       </g>
       <path class="fil7 str0" d="M7497.72 10525.51c-33.05,184.65 -50.04,372.78 -50.04,560.52 0,50.61 1.16,101.99 3.48,152.21 23.19,361.84 172.34,993.9 172.34,993.9 0,0 -206.67,224.06 -287.15,281.59 -80.49,57.53 23.19,63.09 97.65,57.53 74.46,-5.57 201.1,-109.25 252.83,-115.98 51.72,-6.72 103.44,-11.37 103.44,-86.06 0,-74.69 -28.58,-240.72 -28.58,-280.84 0,-40.13 51.72,-591.93 80.48,-793.03 28.76,-201.1 -17.4,-499.85 -17.4,-562.94l0 -120.61c0,0 -315.45,-69.12 -327.04,-86.29z"/>
       <path class="fil4 str0" d="M7497.72 10525.51c0,0 -9.28,47.55 -19.94,125.72 94.87,32.24 228.7,75.39 347.92,104.84 0,-9.74 -1.16,-17.86 -1.16,-23.19l0 -120.62c0,0 -315.22,-69.58 -326.82,-86.75z"/>
       <path class="fil1 str0" d="M7790.91 12369.97c-1.66,-45.78 -5.9,-91.89 -12.25,-137.34 -41.29,43.37 -73.99,39.43 -73.99,39.43 -23.19,-34.33 -80.48,-40.13 -80.48,-40.13 0,0 -206.67,224.06 -287.15,281.59 -80.49,57.53 23.19,63.09 97.65,57.53 74.46,-5.57 201.1,-109.25 252.82,-115.98 51.72,-6.72 103.41,-10.42 103.41,-85.11z"/>
       <path class="fil7 str0" d="M8290.76 10583.04c0,0 183.7,672.65 281.35,890.45 97.65,217.8 293.19,677.98 321.94,758.48 28.76,80.49 189.27,394.31 344.67,356.27 252.82,-63.32 -166.54,-344.67 -201.1,-408 -34.56,-63.33 -114.81,-315.91 -114.81,-436.53 0,-120.62 -40.36,-482.69 -51.72,-591.93 -11.37,-109.24 -120.85,-338.88 -138.01,-430.96 -11.07,-64.48 -19.34,-130 -23.26,-195.3 -3.92,-65.3 -298.69,45.92 -419.07,57.52z"/>
       <path class="fil4 str0" d="M8710.12 10525.51c0,0 -298.75,46.39 -419.36,57.53 0,0 12.53,46.39 32.7,117.59 118.52,1.62 286.69,-4.4 399.65,-43.37 -10.44,-69.81 -12.99,-131.75 -12.99,-131.75z"/>
       <path class="fil1 str0" d="M9238.73 12588.23c252.82,-63.32 -166.54,-344.67 -201.1,-408 -1.39,-2.32 -2.55,-5.1 -3.94,-7.89 -22.66,32.61 -59.9,52.08 -99.62,52.08 -15.88,0 -31.61,-3.13 -46.28,-9.17l6.26 16.7c28.76,80.49 189.74,395.01 344.68,356.28z"/>
       <path class="fil1 str0" d="M8141.15 6226.8c0,0 -331.46,156.1 -347.93,178.83 -16.47,22.73 12.99,256.77 -9.74,337.95 -22.73,81.18 94.17,338.18 136.39,367.41 42.22,29.23 113.89,9.75 113.89,9.75 0,0 -25.98,156.1 -58.45,172.34 -32.47,16.24 -247.26,-64.94 -282.98,-74.69 -35.72,-9.74 -64.94,529.77 -68.19,633.92 -3.25,104.15 55.2,451.84 55.2,451.84 0,0 -380.39,835.02 -406.37,858.21 -25.98,23.19 -578.48,1159.74 -578.48,1159.74 0,0 315.22,191.82 448.59,201.56 115.88,6.7 231.39,23.2 344.56,48.61 113.89,25.98 364.17,133.37 585.21,104.15 221.04,-29.23 321.94,-71.68 432.35,-71.68 110.41,0 347.93,-23.19 461.58,-61.7 113.65,-38.5 292.72,-162.37 292.72,-162.37l-357.67 -1065.34 -412.87 -965.6 165.84 -972.09c0,0 -243.78,-19.48 -276.48,-23.2 -32.71,-3.71 -64.94,6.5 -81.18,-35.72 -16.24,-42.22 -12.99,-341.2 -12.99,-341.2l35.72 -175.58c29.35,-78.66 44.61,-162.27 44.61,-246.39 0,-19.7 -0.85,-39.57 -2.48,-59.19 -16.04,-164.48 -159.61,-278.37 -220.85,-269.56z"/>
       <path class="fil3 str0" d="M7712.51 8317.59c0,0 334.46,89.53 681.46,43.14"/>
       <line class="fil3 str0" x1="7831.04" y1="8275.14" x2="7864.9" y2= "8347.28" />
       <line class="fil3 str0" x1="8089.19" y1="8368.38" x2="8135.81" y2= "8258.2" />
       <line class="fil3 str0" x1="8288.21" y1="8376.73" x2="8326.24" y2= "8309" />
       <line class="fil3 str0" x1="7979.25" y1="8372.56" x2="7953.74" y2= "8453.05" />
       <line class="fil3 str0" x1="8182.44" y1="8381.14" x2="8220.48" y2= "8465.8" />
       <line class="fil3 str0" x1="7392.65" y1="10306.55" x2="7653.59" y2= "9101.81" />
       <line class="fil3 str0" x1="7357.86" y1="10441.08" x2="7372.93" y2= "10382.86" />
       <line class="fil3 str0" x1="8718.94" y1="9557.59" x2="8760.45" y2= "9674.26" />
       <line class="fil3 str0" x1="8245.3" y1="10517.39" x2="8121.2" y2= "8538.63" />
       <line class="fil3 str0" x1="8331.12" y1="8471.83" x2="8679.27" y2= "9446.94" />
       <path class="fil1 str0" d="M7771.89 7250.16l-195.77 -95.56c-0.38,51.93 -4.5,104.31 -11.88,155.7 -12.06,75.62 27.84,95.56 39.9,131.52 12.06,35.95 -39.9,27.83 -51.96,87.68 -12.06,59.84 43.84,83.73 43.84,131.51 0,47.78 -47.78,39.9 -55.67,107.63 -7.89,67.73 19.71,87.91 31.78,131.74 12.07,43.84 -23.19,39.9 -12.06,107.63 11.14,67.73 99.74,111.57 99.74,111.57 0,0 -31.49,-548.86 112.08,-869.41z"/>
       <path class="fil1 str0" d="M8593.22 7369.61l162.37 0c0.67,5.14 1,10.33 1,15.52 0,26.11 -8.51,51.54 -24.2,72.39 -31.78,39.89 -59.84,55.67 -63.79,103.68 -3.95,48.01 16,107.63 -11.83,139.17 -27.83,31.54 -92.78,51.96 -71.91,103.68 20.87,51.72 48.01,75.85 16,119.69 -32.01,43.84 -55.9,43.84 -43.84,83.73 12.06,39.9 27.83,79.79 12.06,99.74 -13.52,15.71 -28.32,30.41 -44.06,43.85 -15.74,13.44 20.18,-569.9 68.19,-781.44z"/>
       <path class="fil7 str0" d="M8078.76 7576.97c131.75,10.67 214.56,-128.27 255.15,-223.83 -17.84,-2.84 -32.43,-15.79 -37.35,-33.17 -16.24,-42.22 -12.99,-341.2 -12.99,-341.2l35.72 -175.58c29.47,-78.76 44.72,-162.36 44.72,-246.48 0,-19.7 -0.85,-39.57 -2.48,-59.19 -16.24,-165.61 -159.11,-278.34 -221.05,-269.76 0,0 -331.45,156.1 -347.92,178.83 -16.47,22.73 12.99,256.77 -9.74,337.95 -22.74,81.18 94.17,338.18 136.39,367.41 42.22,29.23 113.89,9.74 113.89,9.74 0,0 -25.98,156.1 -58.45,172.34 -6.08,1.3 -12.31,1.98 -18.52,1.98 -8.1,0 -16.17,-1.16 -23.94,-3.42 -6.73,90.46 -2.79,272.54 146.59,284.37z"/>
       <path class="fil3 str0" d="M7936.8 6611.6c0,0 -11.37,72.6 -34.33,91.62 -22.96,19.02 -57.29,41.99 -38.27,57.29 16.26,10.93 34.48,18.83 53.59,23.2"/>
       <path class="fil3 str0" d="M7936.8 6844.71c3.33,0.24 6.73,0.38 10.08,0.38 38.83,0 75.73,-17.13 100.78,-46.78"/>
       <path class="fil4" d="M8074.35 6597.92c0,19.94 -9.51,36.18 -21.1,36.18 -11.6,0 -20.88,-16.24 -20.88,-36.18 0,-19.94 9.28,-36.42 20.88,-36.42 11.59,0 21.1,16.7 21.1,36.42z"/>
       <path class="fil4" d="M7900.85 6594.43c0,19.94 -9.51,36.19 -21.1,36.19 -11.6,0 -20.88,-16.24 -20.88,-36.19 0,-19.94 9.28,-36.18 20.88,-36.18 11.59,0 21.1,16.47 21.1,36.18z"/>
       <path class="fil3 str0" d="M8020.77 6489.37c13.44,-7.19 28.49,-10.96 43.74,-10.96 29.53,0 57.3,14.07 74.78,37.87"/>
       <path class="fil3 str0" d="M7837.53 6516.27c0,0 53.58,-64.94 92.78,-23.2"/>
       <g>
        <path class="fil7" d="M8033.99 7121.65c0,0 131.98,-32.7 196.93,-101.36l-196.93 101.36zm0 0l0 0 0 0z"/>
        <path id="_1_1" class="fil3 str0" d="M8033.99 7121.65c0,0 131.98,-32.7 196.93,-101.36m-196.93 101.36l0 0 0 0z"/>
       </g>
       <g>
        <path class="fil4" d="M8104.04 6183.89c0,0 111.57,722.29 189.04,925.94 77.47,203.65 440.7,191.13 517.48,200.87 76.78,9.74 0,-94.4 -76.31,-292.95 -76.31,-198.55 -169.79,-727.16 -242.39,-833.85 -72.6,-106.7 -242.39,-130.82 -324.73,-72.6l-63.1 72.59zm0 0l0 0 0 0z"/>
        <path id="_1_2" class="fil3 str0" d="M8104.04 6183.89c0,0 111.57,722.29 189.04,925.94 77.47,203.65 440.7,191.13 517.48,200.87 76.78,9.74 0,-94.4 -76.31,-292.95 -76.31,-198.55 -169.79,-727.16 -242.39,-833.85 -72.6,-106.7 -242.39,-130.82 -324.73,-72.6m-63.1 72.59l0 0 0 0z"/>
       </g>
       <path class="fil7 str0" d="M8441.53 7006.84c0,0 29.69,-56.59 41.75,-72.83 12.06,-16.24 73.53,-48.01 92.78,-69.58 19.25,-21.57 40.59,-109.71 57.06,-130.12 16.46,-20.41 32.47,-16.24 32.47,12.3 0,28.53 -16.24,92.78 -16.24,105.77 0,12.99 64.94,24.35 44.77,52.88 -20.18,28.53 -170.95,101.83 -187.18,122.01 -16.23,20.18 -62.16,36.19 -65.41,-20.41z"/>
       <path class="fil7 str0" d="M8637.06 6871.38c0,0 -195.53,83.74 -195.53,135.46 0,51.72 -59.61,917.13 -59.61,997.38 0,80.25 -8.12,263.03 23.19,310.81 31.31,47.78 127.57,115.98 187.41,35.95 59.84,-80.02 83.73,-219.19 71.67,-350.94 -12.06,-131.74 -131.51,-900.89 -131.51,-928.96 0,-28.07 231.95,-95.56 243.08,-139.17 6.26,-23.19 -10.9,-80.72 -13.69,-107.86 -2.86,-23.24 -22.61,-40.71 -46.04,-40.71 -1.12,0 -2.25,0.04 -3.36,0.13 -26.94,2.22 -53.93,6.65 -80.24,12.78 -43.84,12.06 -34.56,28.07 -35.95,47.78 -3.49,57.73 40.57,27.34 40.57,27.34z"/>
      </g>
      <g id="freepik--character-1--inject-41">
       <path class="fil5" d="M5441.26 13205.45c0,-221.24 -664.52,-400.58 -1484.24,-400.58 -819.72,0 -1484.25,179.34 -1484.25,400.58 0,221.24 664.52,400.58 1484.25,400.58 819.72,0 1484.24,-179.34 1484.24,-400.58z"/>
       <path class="fil4 str0" d="M6000.72 7966.41l363.23 0c79.8,0 144.51,64.71 144.51,144.5l-0 17.86c0,79.79 -64.71,144.5 -144.5,144.5l-363.24 0 0 -306.87z"/>
       <path class="fil4 str0" d="M6263.99 7933.94l-118.06 0 0 -92.78c-1.76,-25.26 -22.79,-44.87 -48.12,-44.87 -1.04,0 -2.09,0.04 -3.13,0.1l-205.52 -0c-1.04,-0.06 -2.09,-0.1 -3.13,-0.1 -25.33,0 -46.36,19.6 -48.13,44.87l0 92.78 -112.04 -0c-1.44,-0.1 -2.9,-0.15 -4.34,-0.15 -34.29,0 -62.77,26.49 -65.24,60.68l0 305.71c2.36,34.3 30.88,60.92 65.26,60.92 1.44,0 2.9,-0.06 4.33,-0.15l538.12 0c1.43,0.09 2.9,0.15 4.33,0.15 34.38,0 62.9,-26.62 65.26,-60.92l-0.01 -305.71c-2.47,-34.19 -30.94,-60.68 -65.24,-60.68 -1.44,0 -2.91,0.05 -4.35,0.15l-0 0z"/>
       <rect class="fil8 str0" x="5893.8" y="7846.27" width="147.06" height="113.65"/>
       <path class="fil7 str0" d="M5554.92 8140.84c0,0 95.79,-141.02 124.09,-197.39 28.3,-56.37 67.73,-16.93 67.73,46.39 0,63.32 -28.3,95.79 -45.23,141.02 -16.93,45.23 5.8,112.72 5.8,157.96 0,45.24 -46.39,73.3 -96.03,95.8 -49.64,22.5 -90.22,-136.61 -56.36,-243.78z"/>
       <path class="fil7 str0" d="M6055.24 9340.25c0,0 166.77,59.84 234.73,-5.1 67.96,-64.94 124.56,-276.72 90.93,-510.29 -22.61,-151.01 -57.49,-300.98 -103.52,-446.63 -46.04,-145.65 115.97,-80.02 120.38,-120.85 4.41,-40.82 -25.05,-219.19 -25.05,-219.19 0,0 30.85,-139.17 -35.49,-154.02 -66.34,-14.85 -77.93,72.37 -113.42,96.49 -31.17,22.81 -61.21,47.96 -89.2,74.58 -27.99,26.62 41.75,-111.57 19.94,-164.69 -21.81,-53.12 -98.81,-96.03 -101.37,-49.41 -2.55,46.63 8.12,101.83 -5.56,150.31 -13.68,48.48 -72.14,192.05 -54.98,251.89 17.17,59.84 78.4,197.39 87.68,276.02 9.28,78.63 -49.87,187.88 -104.15,324.73 -54.28,136.85 -99.06,346.54 79.08,496.14z"/>
       <path class="fil7 str0" d="M5526.62 7497.87c-2.32,16.7 5.8,107.16 -28.07,180.46 -33.87,73.3 -56.36,79.09 -90.23,162.37 -33.86,83.27 -62.16,124.09 -157.96,197.62 -95.8,73.53 -146.83,73.3 -253.98,61.93 -107.16,-11.37 -107.16,-135.46 -135.23,-287.61 -28.07,-152.16 135.23,-423.07 315.91,-445.57 180.69,-22.5 355.35,91.39 349.55,130.82z"/>
       <path class="fil4 str0" d="M5239 7706.63c0,0 -23.2,-220.12 -124.09,-174.89 -100.89,45.23 -73.3,152.16 -33.86,202.96 39.43,50.8 56.37,56.59 56.37,56.59 -56.67,27.37 -117.8,44.52 -180.43,50.56 -107.16,11.37 -327.05,-112.72 -372.28,-185.56 -45.23,-72.83 -23.2,-581.04 163.52,-671.26 186.72,-90.23 411.94,-101.59 485.24,-5.8 0,0 118.52,-129.66 236.82,-45 118.3,84.67 23.2,152.39 50.8,202.96 27.6,50.57 169.32,-39.43 214.32,118.52 45,157.96 -39.43,242.62 -95.79,265.12 -56.36,22.5 -96.03,23.19 -135.46,5.8 -39.43,-17.39 -78.86,11.14 -73.3,33.63 5.57,22.5 33.86,56.59 -45.23,67.73 -79.09,11.13 -95.83,112.5 -146.63,78.63z"/>
       <path class="fil1 str0" d="M5820.04 9105.52c0,0 -56.37,96.03 -33.86,118.53 22.5,22.5 141.02,174.89 287.61,157.96 146.59,-16.93 220.12,-259.55 208.76,-378.07 -11.37,-118.53 -152.16,-197.39 -197.39,-214.32 -45.23,-16.93 -236.82,276.47 -265.12,315.91z"/>
       <path class="fil1 str0" d="M4264.12 12670.57c0,0 259.55,127.34 357.43,132.22 97.88,4.87 156.57,44.07 162.37,78.17 5.8,34.1 -298.75,92.78 -386.89,112.72 -88.14,19.94 -195.77,4.87 -298.52,44.07 -102.75,39.2 -122.47,-63.79 -122.47,-146.82 0.41,-52.83 7.04,-105.52 19.48,-156.79 12.44,-51.26 219.66,63.78 268.6,-63.56z"/>
       <path class="fil4" d="M4723.15 12824.82c-39.2,17.86 -105.31,46.39 -212.93,88.14 -165.38,64.71 -390.6,69.59 -523.28,72.14 14.85,46.39 46.39,77.01 110.41,52.65 102.76,-39.2 210.38,-24.59 298.52,-44.07 88.15,-19.48 391.76,-78.4 386.89,-112.72 -2.56,-20.41 -23.43,-40.59 -59.61,-56.13z"/>
       <path class="fil3 str0" d="M4444.81 12789.56c0,0 -18.79,85.36 -132.91,104.38 -64.54,10.29 -128.35,26.31 -189.98,47.54"/>
       <path class="fil4 str0" d="M4328.83 9950.04c0,0 0,-238.91 -166.77,-340.5 -166.77,-101.59 -607.71,50.1 -803.24,79.79 -113.19,16.04 -224.48,45.42 -330.95,87.44 -106.48,42.02 -67.26,245.64 12.3,426.79 79.56,181.15 427.48,528.84 492.66,579.87 65.17,51.03 332.11,332.85 332.11,332.85 0,0 29,731.57 50.8,898.11 21.8,166.54 79.56,782.13 79.56,818.31 0,36.19 108.78,57.99 166.54,29 57.76,-28.99 123.17,-72.37 130.35,-289.7 7.19,-217.34 65.18,-1332.55 65.18,-1332.55l-42.45 -1092.71 13.92 -196.69z"/>
       <g>
        <path class="fil4" d="M3351.64 10435.28l267.9 50.8 724.37 1020.58c0,0 -166.54,492.43 -224.52,651.78 -57.99,159.35 -398.26,855.43 -405.68,920.61 -7.42,65.18 7.43,188.34 137.78,152.16 130.35,-36.19 166.54,-123.17 166.54,-123.17 0,0 941.48,-1441.33 963.29,-1521.12 21.8,-79.78 -72.37,-246.1 -246.33,-731.57 -173.96,-485.47 -391.06,-1013.85 -391.06,-1013.85 0,0 14.38,-57.99 -152.16,-144.97 -166.54,-86.98 -362.07,-86.98 -456.24,-21.8l-383.88 760.56zm0 0l0 0 0 0z"/>
        <path id="_1_3" class="fil3 str0" d="M3351.64 10435.28l267.9 50.8 724.37 1020.58c0,0 -166.54,492.43 -224.52,651.78 -57.99,159.35 -398.26,855.43 -405.68,920.61 -7.42,65.18 7.43,188.34 137.78,152.16 130.35,-36.19 166.54,-123.17 166.54,-123.17 0,0 941.48,-1441.33 963.29,-1521.12 21.8,-79.78 -72.37,-246.1 -246.33,-731.57 -173.96,-485.47 -391.06,-1013.85 -391.06,-1013.85 0,0 14.38,-57.99 -152.16,-144.97 -166.54,-86.98 -362.07,-86.98 -456.24,-21.8m-383.88 760.56l0 0 0 0z"/>
       </g>
       <line class="fil3 str4" x1="4059.78" y1="12320.56" x2="4027.76" y2= "12412.41" />
       <polyline class="fil3 str4" points="3399.42,10386.34 3619.54,10486.07 4343.91,11507.35 4098.51,12209.46 "/>
       <path class="fil9 str0" d="M5695.94 9077.45c0,0 174.89,124.09 208.75,124.09 33.87,0 197.39,-73.53 219.89,-214.56 2.47,-15.71 3.74,-31.67 3.74,-47.6 0,-68.66 -23.16,-135.34 -65.68,-189.22 -42.52,-53.89 -394.31,-502.17 -552.96,-671.26 -158.65,-169.09 -293.19,-248.19 -530.23,-349.78 -237.05,-101.59 -400.35,-141.02 -564.1,-84.66 -163.76,56.36 -513.3,310.35 -727.62,637.4 -172.51,265.35 -326.81,546.3 -457.3,834.93 -101.59,219.89 -202.96,659.89 -202.96,659.89 0,0 11.14,152.39 411.71,79.09 400.58,-73.3 465.52,-190.89 629.05,-123.17 163.52,67.72 318.7,202.03 318.7,202.03 0,0 -50.8,-293.19 118.52,-451.14 169.32,-157.96 518.87,-406.14 603.07,-547.17 45.96,-74.27 87.95,-152.47 124.45,-231.79l462.98 372.9z"/>
       <line class="fil3 str0" x1="5233.44" y1="8704.94" x2="4889.22" y2= "8439.82" />
       <path class="fil3 str0" d="M4872.3 8530.05l265.12 112.96c0,0 -415.65,324.73 -964.91,365.78"/>
       <path class="fil3 str0" d="M3971.17 8889.57c-31.78,-2.32 -64.25,-5.57 -97.42,-9.98"/>
       <path class="fil3 str0" d="M4729.87 8782.64c0,0 -266.28,121.08 -662.44,111.8"/>
       <path class="fil3 str0" d="M4996.39 7757.66c0,0 -218.03,-16 -403.82,88.83 -185.79,104.84 -282.74,169.79 -282.74,169.79"/>
       <path class="fil3 str0" d="M4592.56 7789.44c0,0 -258.39,40.36 -428.18,162.36"/>
       <path class="fil3 str0" d="M3687.96 9340.02c137.32,47.78 281.97,72.22 427.41,72.22 67.8,0 135.76,-5.4 202.6,-15.88"/>
       <path class="fil1 str0" d="M4053.75 13028.01c0,0 303.39,122.24 391.53,122.24 88.14,0 112.72,69.59 112.72,122.47 0,52.88 -362.3,146.82 -494.52,195.76 -132.21,48.94 -357.43,83.27 -455.31,58.69 -97.89,-24.59 107.63,-474.8 107.63,-474.8 44.69,47.47 106.24,75.65 171.41,78.39 116.9,9.74 166.54,-102.76 166.54,-102.76z"/>
       <path class="fil4" d="M4558 13272.72c0,-0.1 0,-0.24 0,-0.34 0,-19.11 -3.39,-38.12 -9.97,-56.04 -166.15,79.31 -341.34,140.74 -520.77,181.28 -143.44,32.8 -290.48,49.52 -437.77,49.52 -1.67,0 -3.58,0 -5.25,0 -4.64,43.38 0,74.23 24.81,80.02 97.88,24.59 323.11,-9.74 455.31,-58.69 132.21,-48.94 493.63,-141.95 493.63,-195.76z"/>
       <path class="fil3 str0" d="M3864.94 13179c0,0 56.83,37.81 46.39,237.28"/>
       <path class="fil3 str0" d="M3921.76 13283.38c0,0 294.58,0 389.44,-28.53 94.87,-28.53 95.1,-85.36 95.1,-85.36"/>
      </g>
     </g>
    </g>
   </g>
   <path class="fil10 str5" d="M2064.52 1343.79l10870.95 0c556.47,0 1011.75,455.28 1011.75,1011.75l0 11563.26c0,556.46 -455.28,1011.75 -1011.75,1011.75l-10870.95 0c-556.46,0 -1011.74,-455.28 -1011.74,-1011.75l0 -11563.26c0,-556.47 455.28,-1011.75 1011.74,-1011.75z"/>
   <g>
    <circle class="fil11 str5" cx="7500" cy="1609.75" r="1540.31"/>
    <g style="clip-path:url(#id1)">
     <image x="6401.43" y="532.73" width="2197.13" height="2154.05" xlink:href="photography_Images\photography_ImgID1.png"/>
    </g>
   </g>
  </g>
 </g>
</svg>
