<svg width="25" height="20" viewBox="0 0 25 20" fill="none" xmlns="http://www.w3.org/2000/svg">
<path d="M6.875 13.375L6.875 6.625" stroke="white" stroke-width="1.5" stroke-linecap="round" stroke-linejoin="round"/>
<path d="M22.4375 6.625H19.5096C17.5023 6.625 15.875 8.13604 15.875 10C15.875 11.864 17.5023 13.375 19.5096 13.375H22.4375C22.5312 13.375 22.5781 13.375 22.6177 13.3726C23.2244 13.3357 23.7076 12.8869 23.7474 12.3236C23.75 12.2868 23.75 12.2433 23.75 12.1562V7.84375C23.75 7.7567 23.75 7.71317 23.7474 7.67642C23.7076 7.11307 23.2244 6.66433 22.6177 6.62741C22.5781 6.625 22.5312 6.625 22.4375 6.625Z" stroke="white" stroke-width="1.5"/>
<circle cx="19.25" cy="10" r="1.125" fill="white"/>
<path d="M22.5857 6.625C22.4982 4.51866 22.2162 3.22721 21.307 2.31802C19.989 1 17.8676 1 13.625 1L10.25 1C6.00736 1 3.88604 1 2.56802 2.31802C1.25 3.63604 1.25 5.75736 1.25 10C1.25 14.2426 1.25 16.364 2.56802 17.682C3.88604 19 6.00736 19 10.25 19H13.625C17.8676 19 19.989 19 21.307 17.682C22.2162 16.7728 22.4982 15.4813 22.5857 13.375" stroke="white" stroke-width="1.5"/>
</svg>
